<svg width="26" height="26" viewBox="0 0 26 26" fill="none" xmlns="http://www.w3.org/2000/svg">
<circle cx="13" cy="13" r="13" fill="#FFCF00"/>
<path d="M4.18352 16L7.01852 9.7H8.17052L11.0145 16H9.79052L7.35152 10.321H7.81952L5.38952 16H4.18352ZM5.48852 14.542L5.80352 13.624H9.20552L9.52052 14.542H5.48852ZM14.3717 16.063C13.9637 16.063 13.6007 15.973 13.2827 15.793C12.9647 15.613 12.7127 15.343 12.5267 14.983C12.3467 14.617 12.2567 14.155 12.2567 13.597C12.2567 13.033 12.3497 12.571 12.5357 12.211C12.7277 11.851 12.9827 11.584 13.3007 11.41C13.6247 11.23 13.9817 11.14 14.3717 11.14C14.8457 11.14 15.2627 11.242 15.6227 11.446C15.9887 11.65 16.2767 11.935 16.4867 12.301C16.7027 12.667 16.8107 13.099 16.8107 13.597C16.8107 14.095 16.7027 14.527 16.4867 14.893C16.2767 15.259 15.9887 15.547 15.6227 15.757C15.2627 15.961 14.8457 16.063 14.3717 16.063ZM11.7077 16V9.322H12.8327V12.31L12.7427 13.588L12.7787 14.866V16H11.7077ZM14.2457 15.1C14.5157 15.1 14.7557 15.04 14.9657 14.92C15.1817 14.8 15.3527 14.626 15.4787 14.398C15.6047 14.17 15.6677 13.903 15.6677 13.597C15.6677 13.285 15.6047 13.018 15.4787 12.796C15.3527 12.568 15.1817 12.394 14.9657 12.274C14.7557 12.154 14.5157 12.094 14.2457 12.094C13.9757 12.094 13.7327 12.154 13.5167 12.274C13.3007 12.394 13.1297 12.568 13.0037 12.796C12.8777 13.018 12.8147 13.285 12.8147 13.597C12.8147 13.903 12.8777 14.17 13.0037 14.398C13.1297 14.626 13.3007 14.8 13.5167 14.92C13.7327 15.04 13.9757 15.1 14.2457 15.1ZM19.3626 16.063C18.9606 16.063 18.5736 16.012 18.2016 15.91C17.8356 15.802 17.5446 15.673 17.3286 15.523L17.7606 14.668C17.9766 14.806 18.2346 14.92 18.5346 15.01C18.8346 15.1 19.1346 15.145 19.4346 15.145C19.7886 15.145 20.0436 15.097 20.1996 15.001C20.3616 14.905 20.4426 14.776 20.4426 14.614C20.4426 14.482 20.3886 14.383 20.2806 14.317C20.1726 14.245 20.0316 14.191 19.8576 14.155C19.6836 14.119 19.4886 14.086 19.2726 14.056C19.0626 14.026 18.8496 13.987 18.6336 13.939C18.4236 13.885 18.2316 13.81 18.0576 13.714C17.8836 13.612 17.7426 13.477 17.6346 13.309C17.5266 13.141 17.4726 12.919 17.4726 12.643C17.4726 12.337 17.5596 12.073 17.7336 11.851C17.9076 11.623 18.1506 11.449 18.4626 11.329C18.7806 11.203 19.1556 11.14 19.5876 11.14C19.9116 11.14 20.2386 11.176 20.5686 11.248C20.8986 11.32 21.1716 11.422 21.3876 11.554L20.9556 12.409C20.7276 12.271 20.4966 12.178 20.2626 12.13C20.0346 12.076 19.8066 12.049 19.5786 12.049C19.2366 12.049 18.9816 12.1 18.8136 12.202C18.6516 12.304 18.5706 12.433 18.5706 12.589C18.5706 12.733 18.6246 12.841 18.7326 12.913C18.8406 12.985 18.9816 13.042 19.1556 13.084C19.3296 13.126 19.5216 13.162 19.7316 13.192C19.9476 13.216 20.1606 13.255 20.3706 13.309C20.5806 13.363 20.7726 13.438 20.9466 13.534C21.1266 13.624 21.2706 13.753 21.3786 13.921C21.4866 14.089 21.5406 14.308 21.5406 14.578C21.5406 14.878 21.4506 15.139 21.2706 15.361C21.0966 15.583 20.8476 15.757 20.5236 15.883C20.1996 16.003 19.8126 16.063 19.3626 16.063Z" fill="white"/>
</svg>
