<svg width="26" height="26" viewBox="0 0 26 26" fill="none" xmlns="http://www.w3.org/2000/svg">
<circle cx="13" cy="13" r="13" fill="#FFCF00"/>
<mask id="mask0_254_1594" style="mask-type:alpha" maskUnits="userSpaceOnUse" x="0" y="0" width="26" height="26">
<circle cx="13" cy="13" r="13" fill="#FFCF00"/>
</mask>
<g mask="url(#mask0_254_1594)">
<line x1="14.624" y1="38.0773" x2="-11.3857" y2="6.52507" stroke="#43B839"/>
<line x1="17.7792" y1="35.4764" x2="-8.23044" y2="3.92412" stroke="#43B839"/>
<line x1="20.9343" y1="32.8754" x2="-5.07541" y2="1.32317" stroke="#43B839"/>
<line x1="24.0895" y1="30.2744" x2="-1.92013" y2="-1.27782" stroke="#43B839"/>
<line x1="27.2448" y1="27.6732" x2="1.23514" y2="-3.87904" stroke="#43B839"/>
<line x1="30.4001" y1="25.0723" x2="4.39047" y2="-6.48" stroke="#43B839"/>
<line x1="33.5551" y1="22.4713" x2="7.54544" y2="-9.08095" stroke="#43B839"/>
<line x1="36.7104" y1="19.8706" x2="10.7007" y2="-11.6817" stroke="#43B839"/>
</g>
<path d="M4.18207 16L7.01707 9.7H8.16907L11.0131 16H9.78907L7.35007 10.321H7.81807L5.38807 16H4.18207ZM5.48707 14.542L5.80207 13.624H9.20407L9.51907 14.542H5.48707ZM14.4992 16.063C14.0912 16.063 13.7282 15.973 13.4102 15.793C13.0922 15.613 12.8402 15.343 12.6542 14.983C12.4742 14.617 12.3842 14.155 12.3842 13.597C12.3842 13.033 12.4772 12.571 12.6632 12.211C12.8552 11.851 13.1102 11.584 13.4282 11.41C13.7522 11.23 14.1092 11.14 14.4992 11.14C14.9732 11.14 15.3902 11.242 15.7502 11.446C16.1162 11.65 16.4042 11.935 16.6142 12.301C16.8302 12.667 16.9382 13.099 16.9382 13.597C16.9382 14.095 16.8302 14.527 16.6142 14.893C16.4042 15.259 16.1162 15.547 15.7502 15.757C15.3902 15.961 14.9732 16.063 14.4992 16.063ZM11.8352 16V9.322H12.9602V12.31L12.8702 13.588L12.9062 14.866V16H11.8352ZM14.3732 15.1C14.6432 15.1 14.8832 15.04 15.0932 14.92C15.3092 14.8 15.4802 14.626 15.6062 14.398C15.7322 14.17 15.7952 13.903 15.7952 13.597C15.7952 13.285 15.7322 13.018 15.6062 12.796C15.4802 12.568 15.3092 12.394 15.0932 12.274C14.8832 12.154 14.6432 12.094 14.3732 12.094C14.1032 12.094 13.8602 12.154 13.6442 12.274C13.4282 12.394 13.2572 12.568 13.1312 12.796C13.0052 13.018 12.9422 13.285 12.9422 13.597C12.9422 13.903 13.0052 14.17 13.1312 14.398C13.2572 14.626 13.4282 14.8 13.6442 14.92C13.8602 15.04 14.1032 15.1 14.3732 15.1ZM19.4901 16.063C19.0881 16.063 18.7011 16.012 18.3291 15.91C17.9631 15.802 17.6721 15.673 17.4561 15.523L17.8881 14.668C18.1041 14.806 18.3621 14.92 18.6621 15.01C18.9621 15.1 19.2621 15.145 19.5621 15.145C19.9161 15.145 20.1711 15.097 20.3271 15.001C20.4891 14.905 20.5701 14.776 20.5701 14.614C20.5701 14.482 20.5161 14.383 20.4081 14.317C20.3001 14.245 20.1591 14.191 19.9851 14.155C19.8111 14.119 19.6161 14.086 19.4001 14.056C19.1901 14.026 18.9771 13.987 18.7611 13.939C18.5511 13.885 18.3591 13.81 18.1851 13.714C18.0111 13.612 17.8701 13.477 17.7621 13.309C17.6541 13.141 17.6001 12.919 17.6001 12.643C17.6001 12.337 17.6871 12.073 17.8611 11.851C18.0351 11.623 18.2781 11.449 18.5901 11.329C18.9081 11.203 19.2831 11.14 19.7151 11.14C20.0391 11.14 20.3661 11.176 20.6961 11.248C21.0261 11.32 21.2991 11.422 21.5151 11.554L21.0831 12.409C20.8551 12.271 20.6241 12.178 20.3901 12.13C20.1621 12.076 19.9341 12.049 19.7061 12.049C19.3641 12.049 19.1091 12.1 18.9411 12.202C18.7791 12.304 18.6981 12.433 18.6981 12.589C18.6981 12.733 18.7521 12.841 18.8601 12.913C18.9681 12.985 19.1091 13.042 19.2831 13.084C19.4571 13.126 19.6491 13.162 19.8591 13.192C20.0751 13.216 20.2881 13.255 20.4981 13.309C20.7081 13.363 20.9001 13.438 21.0741 13.534C21.2541 13.624 21.3981 13.753 21.5061 13.921C21.6141 14.089 21.6681 14.308 21.6681 14.578C21.6681 14.878 21.5781 15.139 21.3981 15.361C21.2241 15.583 20.9751 15.757 20.6511 15.883C20.3271 16.003 19.9401 16.063 19.4901 16.063Z" fill="white"/>
</svg>
