<svg width="36" height="36" viewBox="0 0 36 36" fill="none" xmlns="http://www.w3.org/2000/svg">
<g clip-path="url(#clip0_416_4796)">
<path d="M35.2947 0.396402C34.9399 0.0885037 34.4686 -0.0500119 34.0034 0.0162225L11.3084 3.25833C10.5097 3.37245 9.91655 4.05645 9.91655 4.86321V11.3475V23.8693C8.95636 23.3099 7.8417 22.9878 6.65257 22.9878C3.06516 22.9878 0.146484 25.9065 0.146484 29.4939C0.146484 33.0813 3.06509 36 6.6525 36C10.2399 36 13.1586 33.0813 13.1586 29.4939V12.7535L32.6115 9.97451V20.6271C31.6513 20.0677 30.5366 19.7456 29.3475 19.7456C25.7601 19.7456 22.8414 22.6643 22.8414 26.2517C22.8414 29.8391 25.7601 32.7578 29.3475 32.7578C32.9349 32.7578 35.8536 29.8391 35.8536 26.2517V8.10532V1.62104C35.8536 1.15107 35.6497 0.704301 35.2947 0.396402Z" fill="#FFCF00"/>
</g>
<defs>
<clipPath id="clip0_416_4796">
<rect width="36" height="36" fill="white"/>
</clipPath>
</defs>
</svg>
