<svg width="27" height="27" viewBox="0 0 27 27" fill="none" xmlns="http://www.w3.org/2000/svg">
<path d="M24.5411 27H2.45893C1.10893 27 0 25.9393 0 24.5893V18.8036C0 17.984 0.626786 17.3572 1.44643 17.3572C2.26607 17.3572 2.89286 17.984 2.89286 18.8036V24.1072H24.1071V18.8036C24.1071 17.984 24.7339 17.3572 25.5536 17.3572C26.3732 17.3572 27 17.984 27 18.8036V24.5893C27 25.9393 25.8911 27 24.5411 27Z" fill="black"/>
<path d="M22.275 13.0179C21.7447 12.4393 20.8286 12.3911 20.25 12.9214L14.9464 17.7911V1.44643C14.9464 0.626786 14.3197 0 13.5 0C12.6804 0 12.0536 0.626786 12.0536 1.44643V17.7911L6.75001 12.9214C6.12322 12.3911 5.20715 12.4875 4.72501 13.0661C4.24287 13.6446 4.29108 14.5125 4.82144 15.0429L11.8125 21.5036C12.7768 22.3714 14.2232 22.3714 15.1875 21.5036L22.1786 15.0429C22.7572 14.5125 22.8054 13.5964 22.275 13.0179Z" fill="black"/>
</svg>
