<svg width="49" height="39" viewBox="0 0 49 39" fill="none" xmlns="http://www.w3.org/2000/svg">
<path d="M30.2617 12.1965V6.77859L41.8199 7.13979V12.1965H30.2617Z" fill="#FFCF00"/>
<path d="M30.0757 13.2363H41.9513C42.411 13.2363 42.7175 12.9298 42.7175 12.4701V6.72387C42.7175 6.26417 42.411 5.9577 41.9513 5.9577H30.0757C29.616 5.9577 29.3096 6.26417 29.3096 6.72387V12.4701C29.3096 12.8532 29.616 13.2363 30.0757 13.2363ZM30.8419 7.49004H41.1852V11.704H30.8419V7.49004Z" fill="black"/>
<path d="M30.0757 18.9826H41.9513C42.411 18.9826 42.7175 18.6761 42.7175 18.2164C42.7175 17.7567 42.411 17.4502 41.9513 17.4502H30.0757C29.616 17.4502 29.3096 17.7567 29.3096 18.2164C29.3096 18.5995 29.616 18.9826 30.0757 18.9826Z" fill="black"/>
<path d="M30.0757 24.6522H41.9513C42.411 24.6522 42.7175 24.3457 42.7175 23.886C42.7175 23.4263 42.411 23.1199 41.9513 23.1199H30.0757C29.616 23.1199 29.3096 23.4263 29.3096 23.886C29.3096 24.3457 29.616 24.6522 30.0757 24.6522Z" fill="black"/>
<path d="M22.797 7.49004C23.2567 7.49004 23.5632 7.18357 23.5632 6.72387C23.5632 6.26417 23.2567 5.9577 22.797 5.9577H10.9214C10.4617 5.9577 10.1553 6.26417 10.1553 6.72387C10.1553 7.18357 10.4617 7.49004 10.9214 7.49004H22.797Z" fill="black"/>
<path d="M3.53348 7.50098L1.00513 4.61143L3.17229 2.80547L5.70064 5.69501L3.53348 7.50098Z" fill="#FFCF00"/>
<path d="M48.2338 3.81244H46.3184V1.51393C46.3184 1.13085 46.0119 0.82438 45.6289 0.747763C39.193 0.0582117 32.3742 -0.784573 26.398 1.43731C20.4219 -0.707957 13.603 0.0582117 7.16722 0.747763C6.78414 0.82438 6.47767 1.13085 6.47767 1.51393V5.11492L3.71947 1.89701C3.413 1.59055 2.9533 1.51393 2.64683 1.8204L0.271714 3.88905C-0.0347535 4.19552 -0.11137 4.65522 0.195097 4.96169C0.271714 5.0383 4.17917 9.63531 3.94932 9.32884V35.3019C3.94932 35.7616 4.25579 36.0681 4.71549 36.0681H21.8777L22.4906 37.6771C22.5672 37.9835 22.8737 38.1368 23.1801 38.1368H29.8458C30.1523 38.1368 30.4587 37.9069 30.5354 37.6771L31.1483 36.0681H48.2338C48.6935 36.0681 49 35.7616 49 35.3019V4.65522C49 4.19552 48.6935 3.81244 48.2338 3.81244ZM9.08265 31.5477L8.31648 29.3258C13.603 28.9427 20.5752 29.0194 25.6319 30.7049V31.6243H9.08265V31.5477ZM4.56225 7.71989L5.78812 6.64726L15.8249 18.3696C15.7483 18.4462 14.5224 19.5189 14.5991 19.4423C11.0747 15.305 8.3931 12.1637 4.56225 7.71989ZM17.1274 21.1278L15.9015 20.4383L16.6677 19.8253L17.1274 21.1278ZM27.2408 30.6283C32.3742 29.0194 39.0398 28.9427 44.403 29.2492L43.1771 31.4711H27.2408V30.6283ZM44.7861 2.20348V27.7935C39.4995 27.4104 32.2975 27.487 27.1642 29.0194V2.81642C32.4508 0.977613 38.5035 1.59055 44.7861 2.20348ZM8.08663 2.20348C14.4458 1.51393 20.4219 0.977613 25.7085 2.81642V29.0194C21.8776 27.8701 18.0468 27.6403 14.216 27.6403C12.9901 27.6403 9.3125 27.7169 8.08663 27.7935V14.1557L13.9861 21.0512C14.1394 21.2044 14.0627 21.1278 18.2767 23.503C18.5831 23.6562 18.8896 23.6562 19.1194 23.4263C19.3493 23.1965 19.4259 22.89 19.3493 22.5835C17.9702 18.9826 17.7403 18.2164 17.5871 17.9865L13.5264 13.2363H22.8737C23.3334 13.2363 23.6398 12.9298 23.6398 12.4701C23.6398 12.0104 23.3334 11.704 22.8737 11.704H12.1473L8.01001 6.95372V2.20348H8.08663ZM3.02992 3.42935L4.79211 5.498L3.56624 6.57064L1.80405 4.50199L3.02992 3.42935ZM47.4677 34.4592H30.612C30.3055 34.4592 29.999 34.689 29.9224 34.9189L29.3095 36.5278H23.7165L23.1035 34.9189C23.0269 34.6124 22.7204 34.4592 22.414 34.4592H5.40504V11.0144L6.55429 12.3169V28.6363V28.8661L7.78016 32.5437C7.85678 32.8502 8.16324 33.0801 8.54633 33.0801H43.6368C43.9433 33.0801 44.1731 32.9268 44.3264 32.697L46.3184 29.0194C46.3184 29.0194 46.395 28.7129 46.395 28.6363V5.34477H47.4677V34.4592Z" fill="black"/>
</svg>
