<svg width="29" height="29" viewBox="0 0 29 29" fill="none" xmlns="http://www.w3.org/2000/svg">
<path d="M22.334 11.8303L18.7893 7.42177L5.56359 18.0557L7.05481 18.2177L7.3359 20.26L9.27021 20.973L9.65929 22.0212L22.334 11.8303Z" fill="#FFCF00" stroke="black"/>
<path d="M27.5928 7.73194L23.9212 3.16562C23.6677 2.85037 23.2067 2.80029 22.8914 3.05376L4.95509 17.4752C4.95445 17.4757 4.95385 17.4762 4.95321 17.4767C4.94861 17.4811 4.84159 17.5588 4.76444 17.6957L4.75842 17.7064C4.758 17.7071 4.75757 17.7079 4.75714 17.7086C4.21299 18.6745 1.4423 23.592 0.892191 24.5683C0.745183 24.8293 0.771813 25.1534 0.959515 25.3868C1.14782 25.621 1.45901 25.7156 1.74443 25.6283C3.55807 25.0738 7.48661 23.8728 9.28822 23.322L9.28811 23.3217C9.37477 23.2952 9.45808 23.2527 9.53299 23.1924C10.1907 22.6636 25.8157 10.1006 27.4809 8.76172C27.6323 8.64 27.7291 8.46315 27.7501 8.26999C27.7711 8.07684 27.7145 7.88332 27.5928 7.73194ZM3.06716 23.6921L3.91054 22.1953C4.08771 22.3164 4.24765 22.4632 4.38425 22.6331C4.52089 22.803 4.62992 22.9907 4.71016 23.1898L3.06716 23.6921ZM8.373 22.07L6.11444 22.7605C5.97791 22.3846 5.78008 22.0315 5.52583 21.7152C5.27153 21.399 4.96913 21.13 4.63134 20.9159L5.79069 18.8583L6.64892 18.9515L6.50655 20.2622C6.46287 20.6643 6.75347 21.0257 7.15559 21.0694L8.46624 21.2118L8.373 22.07ZM9.96659 20.9642L10.0016 20.6419C10.0453 20.2397 9.75469 19.8783 9.35256 19.8346L8.04192 19.6923L8.18429 18.3816C8.22797 17.9795 7.93737 17.6181 7.53525 17.5744L7.21293 17.5394L18.6721 8.32585L21.4257 11.7507L9.96659 20.9642ZM22.5673 10.8328L19.8137 7.40797L20.9553 6.4901L23.7089 9.91492L22.5673 10.8328ZM24.8506 8.997L22.0969 5.57218L23.2385 4.65431L25.9921 8.07913L24.8506 8.997Z" fill="black"/>
</svg>
