<svg width="61" height="50" viewBox="0 0 61 50" fill="none" xmlns="http://www.w3.org/2000/svg">
<path d="M50 25.5H39V40L45 37.5L50 40V25.5Z" fill="#FFCF00"/>
<path d="M58.0215 44.1052H57.4669C56.479 43.1888 55.9175 41.9153 55.9175 40.5646C55.9175 39.2141 56.479 37.9406 57.4668 37.0242H58.0215C58.8164 37.0242 59.5642 36.7174 60.1272 36.1604C60.6901 35.6033 61 34.8635 61 34.0769C61 32.4517 59.6638 31.1295 58.0215 31.1295H55.2836C55.5954 30.8939 55.8944 30.638 56.1765 30.3588C57.838 28.7145 58.749 26.5282 58.7411 24.2025C58.7262 19.7204 55.1988 16.0258 50.7176 15.6056C50.8498 15.2811 50.9196 14.9315 50.9196 14.5708C50.9196 13.0477 49.6678 11.8085 48.1292 11.8085H47.6561C46.7877 10.9911 46.2944 9.86263 46.2944 8.66621C46.2944 7.46957 46.788 6.34083 47.6567 5.52345H48.1292C48.873 5.52345 49.5736 5.23672 50.1038 4.71397C50.6299 4.19157 50.9196 3.49799 50.9196 2.76114C50.9196 1.23862 49.6678 0 48.1292 0H14.9284C10.0493 0 6.06811 3.87502 6.05369 8.63768C6.04595 10.9634 6.95678 13.1497 8.61831 14.7939C8.90044 15.0731 9.19936 15.329 9.51115 15.5646H5.85354C4.31424 15.5646 3.06195 16.8032 3.06195 18.3257C3.06195 19.0636 3.35218 19.7572 3.8789 20.2785C4.40657 20.8006 5.10772 21.088 5.85342 21.088H6.32533C7.19411 21.9055 7.68782 23.0343 7.68782 24.2309C7.68782 25.4279 7.19399 26.5568 6.32486 27.3743H5.85354C4.31424 27.3743 3.06195 28.6129 3.06195 30.1354C3.06195 30.8722 3.3517 31.5658 3.87997 32.0905C4.07751 32.2852 4.29923 32.4472 4.53846 32.5737C1.82492 34.2402 0.0110032 37.1843 4.23006e-05 40.5339C-0.00746355 43.0663 0.984143 45.4464 2.79234 47.2357C4.59374 49.0183 6.98835 50 9.53498 50H58.0215C58.8164 50 59.5641 49.6932 60.1272 49.1362C60.6901 48.5791 61 47.8392 61 47.0526C61 45.4274 59.6638 44.1052 58.0215 44.1052ZM59.2129 34.0769C59.2129 34.3912 59.0887 34.687 58.8633 34.9101C58.638 35.133 58.3391 35.2559 58.0215 35.2559H50.8762V32.8979H58.0215C58.6784 32.8979 59.2129 33.4268 59.2129 34.0769ZM9.88216 13.5436C8.55958 12.2349 7.83461 10.4948 7.8408 8.64334C7.85236 4.85262 11.0317 1.76856 14.9284 1.76856H48.1292C48.6825 1.76856 49.1325 2.21386 49.1325 2.76125C49.1325 3.02699 49.0279 3.27717 48.8402 3.46356C48.6494 3.65161 48.397 3.75512 48.1292 3.75512H19.5677C19.0741 3.75512 18.6741 4.15102 18.6741 4.63934C18.6741 5.12767 19.0741 5.52357 19.5677 5.52357H45.386C44.817 6.46096 44.5071 7.54231 44.5071 8.66645C44.5071 9.79024 44.8169 10.8715 45.3857 11.8086H14.8117C13.9504 11.8086 13.1436 11.4717 12.5399 10.8598C11.9366 10.2483 11.6157 9.44186 11.6364 8.58899C11.6775 6.89871 13.1361 5.52357 14.8878 5.52357H15.9935C16.4871 5.52357 16.887 5.12767 16.887 4.63934C16.887 4.15102 16.4871 3.75512 15.9935 3.75512H14.8878C12.1743 3.75512 9.91408 5.90437 9.84963 8.54643C9.81734 9.8796 10.3187 11.1399 11.2611 12.0951C12.204 13.0508 13.4649 13.5771 14.8117 13.5771H48.1292C48.6825 13.5771 49.1325 14.023 49.1325 14.5709C49.1325 14.8364 49.0283 15.0859 48.8391 15.2731C48.6489 15.4612 48.3968 15.5648 48.1292 15.5648H14.8117C12.9498 15.5648 11.199 14.8469 9.88216 13.5436ZM5.14262 19.0281C4.95331 18.8408 4.84906 18.5914 4.84906 18.3258C4.84906 17.7784 5.29965 17.3331 5.85354 17.3331H14.8116H48.1292H49.8651C53.7614 17.3331 56.9415 20.4173 56.954 24.2083C56.9602 26.0594 56.2352 27.7995 54.9126 29.1082C53.8087 30.2007 52.3996 30.8798 50.8762 31.0715V29.0623C51.8799 28.8825 52.8013 28.4014 53.5317 27.6611C54.4746 26.7054 54.976 25.4446 54.9438 24.1112C54.8809 21.4691 52.6213 19.3196 49.9069 19.3196H5.85354C5.58511 19.3198 5.33265 19.2162 5.14262 19.0281ZM8.59615 21.0883H49.9069C51.6589 21.0883 53.1169 22.4632 53.1572 24.1534C53.1779 25.0069 52.8569 25.8139 52.2529 26.4259C51.8648 26.8193 51.3925 27.0984 50.8762 27.2479V25.3986C50.8762 24.9102 50.4762 24.5143 49.9826 24.5143H32.3087C31.8151 24.5143 31.4151 24.9102 31.4151 25.3986C31.4151 25.8869 31.8151 26.2828 32.3087 26.2828H38.3398V27.3745H8.59579C9.16493 26.437 9.47505 25.3554 9.47505 24.2311C9.47505 23.107 9.16505 22.0257 8.59615 21.0883ZM40.1269 26.2828H49.0892V38.8188L45.019 36.7324C44.8902 36.6664 44.749 36.6334 44.6081 36.6334C44.4671 36.6334 44.3259 36.6664 44.197 36.7325L40.1271 38.8188V26.2828H40.1269ZM5.85354 29.1428H38.3398V31.1294H5.85354C5.58499 31.1294 5.33218 31.0259 5.1437 30.8401C4.95367 30.6514 4.84906 30.4012 4.84906 30.1355C4.84918 29.5882 5.29977 29.1428 5.85354 29.1428ZM58.8633 47.8858C58.6379 48.1088 58.339 48.2316 58.0215 48.2316H9.53498C7.46575 48.2316 5.51994 47.4338 4.05618 45.9853C2.58682 44.5314 1.78107 42.5972 1.78715 40.5393C1.80085 36.3259 5.3342 32.8979 9.66353 32.8979H38.3397V35.2559H9.61838C6.68395 35.2559 4.24049 37.5793 4.17139 40.4353C4.13696 41.8769 4.67917 43.2396 5.6983 44.2722C6.71742 45.3049 8.07992 45.8736 9.53486 45.8736H42.1055C42.5991 45.8736 42.9991 45.4777 42.9991 44.9894C42.9991 44.5011 42.5991 44.1052 42.1055 44.1052H9.53498C8.56541 44.1052 7.65685 43.7257 6.97691 43.0367C6.29686 42.3476 5.93503 41.4386 5.95802 40.4774C6.00413 38.5734 7.64613 37.0243 9.61838 37.0243H38.3398V40.2726C38.3398 40.5813 38.5025 40.8676 38.7691 41.0281C39.0357 41.1885 39.3674 41.1997 39.6445 41.0577L44.6081 38.5132L49.5718 41.0577C49.701 41.1239 49.842 41.1568 49.9827 41.1568C50.1439 41.1568 50.3048 41.1137 50.447 41.0281C50.7135 40.8676 50.8763 40.5813 50.8763 40.2726V37.0242H55.1668C54.4971 38.0707 54.1304 39.2923 54.1304 40.5646C54.1304 41.8371 54.4971 43.0586 55.1669 44.1052H45.6797C45.1861 44.1052 44.7862 44.5011 44.7862 44.9894C44.7862 45.4777 45.1861 45.8736 45.6797 45.8736H58.0215C58.6784 45.8736 59.2129 46.4025 59.2129 47.0526C59.2129 47.3669 59.0887 47.6627 58.8633 47.8858Z" fill="black"/>
</svg>
