<svg width="39" height="51" viewBox="0 0 39 51" fill="none" xmlns="http://www.w3.org/2000/svg">
<path d="M33.8438 19.125H32.25V12.75C32.25 5.71838 26.5316 0 19.5 0C12.4684 0 6.75 5.71838 6.75 12.75V19.125H5.15625C2.52125 19.125 0.375 21.2691 0.375 23.9062V46.2188C0.375 48.8559 2.52125 51 5.15625 51H33.8438C36.4787 51 38.625 48.8559 38.625 46.2188V23.9062C38.625 21.2691 36.4787 19.125 33.8438 19.125ZM11 12.75C11 8.06225 14.8123 4.25 19.5 4.25C24.1877 4.25 28 8.06225 28 12.75V19.125H11V12.75ZM21.625 35.5342V40.375C21.625 41.548 20.6751 42.5 19.5 42.5C18.3249 42.5 17.375 41.548 17.375 40.375V35.5342C16.1106 34.7969 15.25 33.4411 15.25 31.875C15.25 29.5311 17.1561 27.625 19.5 27.625C21.8439 27.625 23.75 29.5311 23.75 31.875C23.75 33.4411 22.8894 34.7969 21.625 35.5342Z" fill="#696969" fill-opacity="0.4"/>
</svg>
