<svg width="25" height="33" viewBox="0 0 25 33" fill="none" xmlns="http://www.w3.org/2000/svg">
<path d="M21.7812 12.375H20.75V8.25C20.75 3.70012 17.0499 0 12.5 0C7.95012 0 4.25 3.70012 4.25 8.25V12.375H3.21875C1.51375 12.375 0.125 13.7624 0.125 15.4688V29.9062C0.125 31.6126 1.51375 33 3.21875 33H21.7812C23.4862 33 24.875 31.6126 24.875 29.9062V15.4688C24.875 13.7624 23.4862 12.375 21.7812 12.375ZM7 8.25C7 5.21675 9.46675 2.75 12.5 2.75C15.5332 2.75 18 5.21675 18 8.25V12.375H7V8.25ZM13.875 22.9928V26.125C13.875 26.884 13.2604 27.5 12.5 27.5C11.7396 27.5 11.125 26.884 11.125 26.125V22.9928C10.3069 22.5156 9.75 21.6384 9.75 20.625C9.75 19.1084 10.9834 17.875 12.5 17.875C14.0166 17.875 15.25 19.1084 15.25 20.625C15.25 21.6384 14.6931 22.5156 13.875 22.9928Z" fill="#696969"/>
</svg>
