<svg width="46" height="46" viewBox="0 0 46 46" fill="none" xmlns="http://www.w3.org/2000/svg">
<g clip-path="url(#clip0_410_7555)">
<path d="M10.1858 42.0572V35.1572H14.4572V42.0572H10.1858Z" fill="#FFCF00"/>
<path d="M16.7571 22.0144V8.87158L28.2571 15.443L16.7571 22.0144Z" fill="#FFCF00"/>
<path fill-rule="evenodd" clip-rule="evenodd" d="M0.91626 18.3569C1.41251 18.3569 1.8147 17.9547 1.8147 17.4585V3.47478C1.8147 2.54967 2.56749 1.79688 3.4926 1.79688H42.5072C43.4324 1.79688 44.1852 2.54967 44.1852 3.47478V6.22414C44.1852 6.72003 44.5873 7.12257 45.0836 7.12257C45.5798 7.12257 45.982 6.72003 45.982 6.22414V3.47478C45.982 1.55893 44.4231 0 42.5072 0H3.4926C1.57675 0 0.0178223 1.55893 0.0178223 3.47478V17.4585C0.0178223 17.9547 0.420013 18.3569 0.91626 18.3569Z" fill="black"/>
<path fill-rule="evenodd" clip-rule="evenodd" d="M45.0836 12.6562C44.5873 12.6562 44.1852 13.0588 44.1852 13.5547V27.5387C44.1852 28.4638 43.4324 29.2166 42.5072 29.2166H3.4926C2.56749 29.2166 1.8147 28.4638 1.8147 27.5387V24.7894C1.8147 24.2931 1.41251 23.8909 0.91626 23.8909C0.420013 23.8909 0.0178223 24.2931 0.0178223 24.7894V27.5387C0.0178223 29.4546 1.57675 31.0135 3.4926 31.0135H42.5072C44.4231 31.0135 45.982 29.4546 45.982 27.5387V13.5547C45.982 13.0588 45.5798 12.6562 45.0836 12.6562Z" fill="black"/>
<path fill-rule="evenodd" clip-rule="evenodd" d="M17.2451 7.56462C16.9672 7.40424 16.6246 7.40424 16.3467 7.56462C16.0687 7.72501 15.8975 8.02156 15.8975 8.34269V22.67C15.8975 22.9911 16.0687 23.2876 16.3467 23.448C16.4857 23.5284 16.6408 23.5684 16.7959 23.5684C16.951 23.5684 17.1061 23.5284 17.2451 23.448L29.653 16.2844C29.931 16.124 30.1022 15.8274 30.1022 15.5063C30.1022 15.1856 29.931 14.889 29.653 14.7283L17.2451 7.56462ZM17.6943 21.1142V9.89881L27.4073 15.5063L17.6943 21.1142Z" fill="black"/>
<path fill-rule="evenodd" clip-rule="evenodd" d="M45.0836 37.614H15.7026V36.7675C15.7026 34.9671 14.2384 33.5029 12.438 33.5029C10.638 33.5029 9.17346 34.9671 9.17346 36.7675V37.614H0.91626C0.420013 37.614 0.0178223 38.0162 0.0178223 38.5124C0.0178223 39.0087 0.420013 39.4109 0.91626 39.4109H9.17346V40.257C9.17346 42.0574 10.638 43.5216 12.438 43.5216C14.2384 43.5216 15.7026 42.0574 15.7026 40.257V39.4109H45.0836C45.5798 39.4109 45.982 39.0087 45.982 38.5124C45.982 38.0162 45.5798 37.614 45.0836 37.614ZM13.9057 40.257C13.9057 41.0667 13.2473 41.7247 12.438 41.7247C11.6287 41.7247 10.9703 41.0667 10.9703 40.257V36.7675C10.9703 35.9582 11.6287 35.2998 12.438 35.2998C13.2473 35.2998 13.9057 35.9582 13.9057 36.7675V40.257Z" fill="black"/>
<path fill-rule="evenodd" clip-rule="evenodd" d="M0.916336 22.0402C1.42101 22.0402 1.83267 21.6285 1.83267 21.1239C1.83267 20.6192 1.42101 20.2075 0.916336 20.2075C0.411667 20.2075 0 20.6192 0 21.1239C0 21.6285 0.411667 22.0402 0.916336 22.0402Z" fill="black"/>
<path fill-rule="evenodd" clip-rule="evenodd" d="M45.0836 8.97266C44.5789 8.97266 44.1672 9.38432 44.1672 9.88899C44.1672 10.3937 44.5789 10.8053 45.0836 10.8053C45.5882 10.8053 45.9999 10.3937 45.9999 9.88899C45.9999 9.38432 45.5882 8.97266 45.0836 8.97266Z" fill="black"/>
</g>
<defs>
<clipPath id="clip0_410_7555">
<rect width="46" height="46" fill="white"/>
</clipPath>
</defs>
</svg>
