<svg width="16" height="14" viewBox="0 0 16 14" fill="none" xmlns="http://www.w3.org/2000/svg">
<g clip-path="url(#clip0_521_6029)">
<path d="M8.00482 11.9877C8.00482 12.2696 7.84196 12.5256 7.58709 12.6452C7.48855 12.6918 7.38296 12.7143 7.27806 12.7143C7.11193 12.7143 6.94735 12.6572 6.81442 12.547L2.84219 9.25541H0.726585C0.325372 9.25575 0 8.9302 0 8.52899V5.63417C0 5.23279 0.325372 4.90742 0.726585 4.90742H2.84237L6.81459 1.61586C7.03162 1.43598 7.33257 1.39763 7.58727 1.51801C7.84196 1.63753 8.00499 1.89377 8.00499 2.17546L8.00482 11.9877ZM10.7971 10.8523C10.7794 10.8535 10.7624 10.8542 10.7449 10.8542C10.5529 10.8542 10.3679 10.7784 10.2312 10.6415L10.134 10.544C9.87915 10.2896 9.84922 9.88672 10.0638 9.59746C10.608 8.86382 10.8952 7.99416 10.8952 7.08184C10.8952 6.10057 10.5691 5.18017 9.95206 4.42005C9.71715 4.13113 9.73882 3.71152 10.0021 3.4484L10.0991 3.35124C10.2442 3.20609 10.4387 3.12698 10.6492 3.13954C10.8542 3.14986 11.0456 3.24633 11.1756 3.40524C12.0316 4.45255 12.4837 5.72412 12.4837 7.08201C12.4837 8.3467 12.0838 9.55051 11.3272 10.5627C11.2008 10.7314 11.0075 10.8374 10.7971 10.8523ZM13.8012 13.0978C13.6698 13.2531 13.4797 13.3463 13.2763 13.3549C13.2663 13.3552 13.2562 13.3556 13.2459 13.3556C13.0534 13.3556 12.8687 13.2796 12.732 13.1428L12.6366 13.0474C12.3698 12.7808 12.3518 12.3545 12.5943 12.066C13.7661 10.6723 14.4117 8.90234 14.4117 7.08184C14.4117 5.18825 13.7205 3.36534 12.466 1.94897C12.2116 1.66143 12.2245 1.22617 12.4952 0.954453L12.5905 0.859008C12.7318 0.716959 12.9155 0.638711 13.1262 0.645418C13.3262 0.651093 13.5153 0.739487 13.6483 0.889103C15.1647 2.59645 16 4.79598 16 7.08184C16.0003 9.2812 15.2194 11.4178 13.8012 13.0978Z" fill="#CBCBCB"/>
<rect y="-0.243408" width="1" height="21.5719" transform="rotate(-49.1569 0 -0.243408)" fill="white"/>
<rect x="-0.0546875" y="0.81958" width="1" height="19.5975" transform="rotate(-49.1569 -0.0546875 0.81958)" fill="#D9D9D9"/>
</g>
<defs>
<clipPath id="clip0_521_6029">
<rect width="16" height="14" fill="white"/>
</clipPath>
</defs>
</svg>
