<svg width="70" height="70" viewBox="0 0 70 70" fill="none" xmlns="http://www.w3.org/2000/svg">
<circle cx="35.5" cy="26.5" r="11.5" fill="#FFCF00"/>
<path d="M22.6953 26.7969C22.6953 33.5817 28.2152 39.1016 35 39.1016C41.7848 39.1016 47.3047 33.5817 47.3047 26.7969C47.3047 20.0121 41.7848 14.4922 35 14.4922C28.2152 14.4922 22.6953 20.0121 22.6953 26.7969ZM44.5703 26.7969C44.5703 32.0739 40.2771 36.3672 35 36.3672C29.7229 36.3672 25.4297 32.0739 25.4297 26.7969C25.4297 21.5198 29.7229 17.2266 35 17.2266C40.2771 17.2266 44.5703 21.5198 44.5703 26.7969Z" fill="black"/>
<path d="M60.1562 13.9453C60.9113 13.9453 61.5234 13.3332 61.5234 12.5781C61.5234 11.823 60.9113 11.2109 60.1562 11.2109C59.4012 11.2109 58.7891 11.823 58.7891 12.5781C58.7891 13.3332 59.4012 13.9453 60.1562 13.9453Z" fill="black"/>
<path d="M35 70C54.4009 70 70 54.2873 70 35C70 28.5785 68.2492 22.301 64.9372 16.8462C64.5453 16.2009 63.7046 15.9954 63.0589 16.3871C62.4135 16.7791 62.208 17.6199 62.6 18.2654C65.6522 23.2924 67.2656 29.0791 67.2656 35C67.2656 44.3554 63.3321 53.0327 56.3998 59.1559C54.2894 49.2015 45.4628 41.8359 35 41.8359C24.5372 41.8359 15.7097 49.2023 13.6015 59.1571C6.66832 53.0332 2.73438 44.3555 2.73438 35C2.73438 17.2087 17.2087 2.73438 35 2.73438C42.2446 2.73438 49.0863 5.07432 54.7854 9.50141C55.3816 9.96461 56.2406 9.8566 56.7038 9.26037C57.167 8.66414 57.0592 7.80514 56.4628 7.34193C50.2795 2.53873 42.8578 0 35 0C25.6435 0 16.8522 3.63891 10.2453 10.2463C3.6385 16.8533 0 25.6443 0 35C0 54.336 15.6487 70 35 70ZM35 44.5703C44.6656 44.5703 52.6888 51.6305 53.9659 61.1142C48.4349 65.141 41.8946 67.2656 35 67.2656C28.1061 67.2656 21.5666 65.1407 16.0356 61.1138C17.3109 51.6302 25.3333 44.5703 35 44.5703Z" fill="black"/>
</svg>
