<svg width="14" height="12" viewBox="0 0 14 12" fill="none" xmlns="http://www.w3.org/2000/svg">
<path d="M13.4536 5.48194L8.6385 0.666694C8.50105 0.529243 8.31785 0.453796 8.12252 0.453796C7.92696 0.453796 7.74388 0.529351 7.60642 0.666694L7.16925 1.10398C7.0319 1.24122 6.95624 1.42452 6.95624 1.61997C6.95624 1.8153 7.0319 2.00479 7.16925 2.14202L9.97832 4.95728H1.05375C0.651372 4.95728 0.333435 5.27229 0.333435 5.67478V6.29299C0.333435 6.69548 0.651372 7.04225 1.05375 7.04225H10.0102L7.16935 9.87323C7.03201 10.0107 6.95635 10.189 6.95635 10.3844C6.95635 10.5797 7.03201 10.7606 7.16935 10.8979L7.60653 11.3338C7.74398 11.4713 7.92707 11.5462 8.12262 11.5462C8.31796 11.5462 8.50116 11.4703 8.63861 11.3328L13.4537 6.5177C13.5915 6.37982 13.6673 6.19575 13.6667 6.00009C13.6672 5.80378 13.5915 5.61961 13.4536 5.48194Z" fill="#373435"/>
</svg>
