<svg width="14" height="12" viewBox="0 0 14 12" fill="none" xmlns="http://www.w3.org/2000/svg">
<path d="M0.546405 5.48194L5.36153 0.666694C5.49898 0.529243 5.68218 0.453796 5.87752 0.453796C6.07307 0.453796 6.25616 0.529351 6.39361 0.666694L6.83078 1.10398C6.96813 1.24122 7.04379 1.42452 7.04379 1.61997C7.04379 1.8153 6.96813 2.00479 6.83078 2.14202L4.02171 4.95728H12.9463C13.3487 4.95728 13.6666 5.27229 13.6666 5.67478V6.29299C13.6666 6.69548 13.3487 7.04225 12.9463 7.04225H3.98984L6.83068 9.87323C6.96802 10.0107 7.04368 10.189 7.04368 10.3844C7.04368 10.5797 6.96802 10.7606 6.83068 10.8979L6.3935 11.3338C6.25605 11.4713 6.07296 11.5462 5.87741 11.5462C5.68207 11.5462 5.49887 11.4703 5.36142 11.3328L0.546296 6.5177C0.40852 6.37982 0.332748 6.19575 0.33329 6.00009C0.332857 5.80378 0.40852 5.61961 0.546405 5.48194Z" fill="#373435"/>
</svg>
