<svg width="70" height="58" viewBox="0 0 70 58" fill="none" xmlns="http://www.w3.org/2000/svg">
<path d="M45 46.5V30H57V46.5L51 43.5L45 46.5Z" fill="#FFCF00" stroke="black"/>
<path d="M66.582 51.1553H65.9456C64.8119 50.0926 64.1676 48.6157 64.1676 47.0495C64.1676 45.4834 64.8119 44.0065 65.9455 42.9438H66.582C67.4942 42.9438 68.3524 42.5881 68.9984 41.9421C69.6444 41.2961 70 40.4382 70 39.526C70 37.6413 68.4667 36.108 66.582 36.108H63.4402C63.798 35.8349 64.141 35.538 64.4648 35.2143C66.3715 33.3075 67.4168 30.7722 67.4078 28.0751C67.3907 22.8775 63.3429 18.593 58.2005 18.1057C58.3522 17.7295 58.4324 17.324 58.4324 16.9057C58.4324 15.1395 56.9958 13.7024 55.2303 13.7024H54.6874C53.6908 12.7545 53.1247 11.4459 53.1247 10.0585C53.1247 8.67076 53.6911 7.36181 54.688 6.41394H55.2303C56.0838 6.41394 56.8877 6.08144 57.4961 5.47523C58.0999 4.86943 58.4324 4.06511 58.4324 3.21062C58.4324 1.44503 56.9958 0.00866699 55.2303 0.00866699H17.1308C11.5319 0.00866699 6.96335 4.50234 6.9468 10.0254C6.93792 12.7224 7.98313 15.2577 9.88981 17.1644C10.2136 17.4882 10.5566 17.785 10.9144 18.0581H6.71712C4.95071 18.0581 3.51366 19.4945 3.51366 21.2601C3.51366 22.1158 3.84671 22.9201 4.45114 23.5247C5.05667 24.1301 5.86126 24.4634 6.71698 24.4634H7.25852C8.25548 25.4114 8.82204 26.7204 8.82204 28.1081C8.82204 29.4962 8.25534 30.8052 7.25798 31.7533H6.71712C4.95071 31.7533 3.51366 33.1896 3.51366 34.9552C3.51366 35.8097 3.84616 36.614 4.45237 37.2224C4.67905 37.4483 4.93348 37.6361 5.20801 37.7828C2.09411 39.7153 0.0125656 43.1295 -1.24935e-05 47.0138C-0.00862577 49.9505 1.12928 52.7106 3.20426 54.7856C5.27145 56.8528 8.01936 57.9912 10.9417 57.9912H66.582C67.4942 57.9912 68.3523 57.6355 68.9984 56.9895C69.6444 56.3435 70 55.4854 70 54.5733C70 52.6886 68.4667 51.1553 66.582 51.1553ZM67.9492 39.526C67.9492 39.8905 67.8067 40.2335 67.5481 40.4922C67.2895 40.7507 66.9465 40.8932 66.582 40.8932H58.3825V38.1588H66.582C67.3359 38.1588 67.9492 38.7721 67.9492 39.526ZM11.3401 15.7145C9.82241 14.1969 8.99048 12.179 8.99759 10.0319C9.01085 5.63601 12.6593 2.05958 17.1308 2.05958H55.2303C55.8652 2.05958 56.3816 2.57597 56.3816 3.21076C56.3816 3.51892 56.2615 3.80904 56.0461 4.02519C55.8272 4.24326 55.5375 4.3633 55.2303 4.3633H22.4547C21.8883 4.3633 21.4293 4.8224 21.4293 5.38869C21.4293 5.95498 21.8883 6.41408 22.4547 6.41408H52.0823C51.4293 7.50113 51.0737 8.75511 51.0737 10.0587C51.0737 11.3619 51.4292 12.6158 52.0819 13.7026H16.997C16.0087 13.7026 15.0828 13.3118 14.39 12.6022C13.6977 11.8931 13.3294 10.9579 13.3532 9.9689C13.4003 8.00877 15.0742 6.41408 17.0844 6.41408H18.3531C18.9195 6.41408 19.3785 5.95498 19.3785 5.38869C19.3785 4.8224 18.9195 4.3633 18.3531 4.3633H17.0844C13.9705 4.3633 11.3768 6.85568 11.3028 9.91955C11.2657 11.4656 11.8411 12.9271 12.9225 14.0348C14.0045 15.143 15.4515 15.7533 16.997 15.7533H55.2303C55.8652 15.7533 56.3816 16.2704 56.3816 16.9059C56.3816 17.2138 56.2619 17.5031 56.0448 17.7202C55.8266 17.9382 55.5373 18.0584 55.2303 18.0584H16.997C14.8604 18.0584 12.8513 17.2259 11.3401 15.7145ZM5.90132 22.0747C5.68407 21.8574 5.56444 21.5683 5.56444 21.2602C5.56444 20.6254 6.08151 20.1091 6.71712 20.1091H16.9969H55.2303H57.2223C61.6934 20.1091 65.3427 23.6856 65.357 28.0818C65.3641 30.2284 64.5322 32.2464 63.0145 33.764C61.7476 35.031 60.1307 35.8185 58.3825 36.0408V33.7108C59.5343 33.5023 60.5917 32.9444 61.4298 32.0859C62.5118 30.9777 63.0872 29.5156 63.0503 27.9693C62.9781 24.9053 60.3851 22.4126 57.2702 22.4126H6.71712C6.40909 22.4129 6.11938 22.2927 5.90132 22.0747ZM9.86438 24.4637H57.2702C59.2807 24.4637 60.9539 26.0581 61.0001 28.0182C61.0239 29.0079 60.6554 29.9438 59.9624 30.6535C59.5169 31.1097 58.975 31.4333 58.3825 31.6067V29.4621C58.3825 28.8958 57.9235 28.4367 57.3571 28.4367H37.0755C36.5091 28.4367 36.0501 28.8958 36.0501 29.4621C36.0501 30.0284 36.5091 30.4875 37.0755 30.4875H43.9965V31.7535H9.86397C10.5171 30.6663 10.873 29.4121 10.873 28.1083C10.873 26.8047 10.5172 25.5507 9.86438 24.4637ZM46.0473 30.4875H56.3318V45.025L51.6611 42.6054C51.5133 42.5289 51.3513 42.4906 51.1895 42.4906C51.0278 42.4906 50.8658 42.5289 50.7179 42.6056L46.0474 45.025V30.4875H46.0473ZM6.71712 33.8042H43.9965V36.1079H6.71712C6.40895 36.1079 6.11883 35.9878 5.90255 35.7724C5.68448 35.5536 5.56444 35.2635 5.56444 34.9553C5.56458 34.3207 6.08165 33.8042 6.71712 33.8042ZM67.5481 55.5394C67.2894 55.7981 66.9464 55.9404 66.582 55.9404H10.9417C8.56719 55.9404 6.3343 55.0153 4.65458 53.3355C2.96842 51.6495 2.0438 49.4065 2.05077 47.0201C2.06649 42.134 6.12116 38.1588 11.0892 38.1588H43.9964V40.8932H11.0374C7.67005 40.8932 4.86608 43.5875 4.78678 46.8995C4.74727 48.5713 5.36948 50.1515 6.53897 51.349C7.70846 52.5465 9.27198 53.2061 10.9416 53.2061H48.3178C48.8842 53.2061 49.3432 52.747 49.3432 52.1807C49.3432 51.6144 48.8842 51.1553 48.3178 51.1553H10.9417C9.82911 51.1553 8.78649 50.7152 8.00624 49.9162C7.22585 49.1171 6.81063 48.063 6.83702 46.9483C6.88993 44.7403 8.77419 42.944 11.0374 42.944H43.9965V46.7108C43.9965 47.0688 44.1831 47.4009 44.4891 47.5869C44.7951 47.773 45.1757 47.786 45.4937 47.6212L51.1895 44.6706L56.8857 47.6212C57.0339 47.6981 57.1957 47.7362 57.3572 47.7362C57.5422 47.7362 57.7267 47.6862 57.89 47.5869C58.1958 47.4009 58.3826 47.0688 58.3826 46.7108V42.9438H63.3061C62.5376 44.1573 62.1168 45.574 62.1168 47.0495C62.1168 48.5251 62.5376 49.9416 63.3062 51.1553H52.4193C51.8529 51.1553 51.3939 51.6144 51.3939 52.1807C51.3939 52.747 51.8529 53.2061 52.4193 53.2061H66.582C67.3359 53.2061 67.9492 53.8194 67.9492 54.5733C67.9492 54.9377 67.8067 55.2808 67.5481 55.5394Z" fill="black"/>
</svg>
