<svg width="78" height="78" viewBox="0 0 78 78" fill="none" xmlns="http://www.w3.org/2000/svg">
<g filter="url(#filter0_d_254_1102)">
<circle cx="12.5" cy="7.5" r="2.5" fill="#FFCF00"/>
<circle cx="65.5" cy="33.5" r="2.5" fill="#FFCF00"/>
<circle cx="12.5" cy="57.5" r="2.5" fill="#FFCF00"/>
<path d="M57.656 0H8.47277C6.0441 0 4.06824 1.97586 4.06824 4.40467V11.4238C4.06824 13.8526 6.0441 15.8285 8.47277 15.8285H13.1027L16.1148 20.2899C16.3051 20.5718 16.623 20.7408 16.963 20.7408C17.303 20.7408 17.6209 20.5718 17.8112 20.2899L20.8233 15.8285H57.656C60.0846 15.8285 62.0605 13.8526 62.0605 11.4238V4.40467C62.0605 1.97586 60.0846 0 57.656 0ZM60.0135 11.4238C60.0135 12.7239 58.9559 13.7817 57.6558 13.7817H20.2793C19.9392 13.7817 19.6214 13.9506 19.431 14.2326L16.9629 17.8884L14.4947 14.2326C14.3044 13.9506 13.9865 13.7817 13.6465 13.7817H8.47277C7.17271 13.7817 6.11505 12.7239 6.11505 11.4238V4.40467C6.11505 3.10461 7.17271 2.04682 8.47277 2.04682H57.6557C58.9558 2.04682 60.0134 3.10461 60.0134 4.40467V11.4238H60.0135Z" fill="black"/>
<path d="M57.656 49.2592H8.47277C6.0441 49.2592 4.06824 51.2351 4.06824 53.6639V60.683C4.06824 63.1118 6.0441 65.0877 8.47277 65.0877H13.1027L16.1148 69.5491C16.3051 69.831 16.623 70 16.963 70C17.303 70 17.6209 69.831 17.8112 69.5491L20.8233 65.0877H57.656C60.0846 65.0877 62.0605 63.1118 62.0605 60.683V53.6639C62.0605 51.2351 60.0846 49.2592 57.656 49.2592ZM57.656 63.0409H20.2793C19.9392 63.0409 19.6214 63.2099 19.431 63.4918L16.9629 67.1476L14.4947 63.4918C14.3044 63.2099 13.9865 63.0409 13.6465 63.0409H8.47277C7.17271 63.0409 6.11505 61.9831 6.11505 60.683V53.6639C6.11505 52.3638 7.17271 51.306 8.47277 51.306H57.6557C58.9558 51.306 60.0134 52.3638 60.0134 53.6639V60.683H60.0135C60.0137 61.9831 58.956 63.0409 57.656 63.0409Z" fill="black"/>
<path d="M69.5271 25.3801H20.3443C17.9117 25.3801 15.9397 27.3521 15.9397 29.7847V36.8039C15.9397 39.2365 17.9117 41.2085 20.3443 41.2085H43.0101C43.5753 41.2085 44.0335 40.7504 44.0335 40.1852C44.0335 39.62 43.5753 39.1619 43.0101 39.1619H20.3442C19.0421 39.1619 17.9865 38.1063 17.9865 36.8042V29.7849C17.9865 28.4828 19.0421 27.427 20.3443 27.427H69.5273C70.8294 27.427 71.885 28.4826 71.885 29.7847V36.804C71.885 38.1061 70.8294 39.1619 69.5271 39.1619H64.3534C64.0134 39.1619 63.6954 39.3308 63.5051 39.6128L61.037 43.2686L58.5688 39.6126C58.3787 39.3308 58.0607 39.1619 57.7208 39.1619H49.6691C49.1039 39.1619 48.6458 39.62 48.6458 40.1852C48.6458 40.7504 49.1041 41.2085 49.6691 41.2085H57.1769L60.1738 45.6477C60.3056 45.8428 60.4934 45.9988 60.7178 46.0705C61.1681 46.2146 61.636 46.0392 61.8852 45.6701L64.8971 41.2087H69.527C71.9596 41.2087 73.9317 39.2366 73.9317 36.804V29.7849C73.9318 27.3521 71.9598 25.3801 69.5271 25.3801Z" fill="black"/>
<path d="M12.5965 3.82062C10.3769 3.82062 8.57108 5.6264 8.57108 7.84603C8.57108 10.0655 10.3767 11.8713 12.5965 11.8713C14.8163 11.8713 16.6219 10.0655 16.6219 7.84603C16.6219 5.62654 14.8161 3.82062 12.5965 3.82062ZM12.5965 9.82462C11.5056 9.82462 10.6179 8.93704 10.6179 7.84603C10.6179 6.75515 11.5055 5.86743 12.5965 5.86743C13.6875 5.86743 14.5751 6.75501 14.5751 7.84603C14.5751 8.93691 13.6875 9.82462 12.5965 9.82462Z" fill="black"/>
<path d="M65.4036 29.2008C63.1839 29.2008 61.3781 31.0066 61.3781 33.2262C61.3781 35.4458 63.1838 37.2516 65.4036 37.2516C67.6233 37.2516 69.429 35.4458 69.429 33.2262C69.4288 31.0066 67.6232 29.2008 65.4036 29.2008ZM65.4036 35.2047C64.3127 35.2047 63.425 34.3171 63.425 33.2261C63.425 32.1352 64.3125 31.2475 65.4036 31.2475C66.4946 31.2475 67.3821 32.1351 67.3821 33.2261C67.3821 34.3171 66.4944 35.2047 65.4036 35.2047Z" fill="black"/>
<path d="M12.5965 53.08C10.3769 53.08 8.57108 54.8857 8.57108 57.1054C8.57108 59.3249 10.3767 61.1308 12.5965 61.1308C14.8163 61.1308 16.6219 59.325 16.6219 57.1054C16.6219 54.8857 14.8161 53.08 12.5965 53.08ZM12.5965 59.0838C11.5056 59.0838 10.6179 58.1962 10.6179 57.1052C10.6179 56.0142 11.5055 55.1266 12.5965 55.1266C13.6875 55.1266 14.5751 56.0142 14.5751 57.1052C14.5751 58.1962 13.6875 59.0838 12.5965 59.0838Z" fill="black"/>
<path d="M44.117 4.09363H19.4192C18.8538 4.09363 18.3958 4.55177 18.3958 5.11697C18.3958 5.68216 18.8538 6.14031 19.4192 6.14031H44.117C44.6823 6.14031 45.1403 5.68216 45.1403 5.11697C45.1403 4.55177 44.6823 4.09363 44.117 4.09363Z" fill="black"/>
<path d="M54.3509 4.09363H48.3471C47.7817 4.09363 47.3237 4.55177 47.3237 5.11697C47.3237 5.68216 47.7817 6.14031 48.3471 6.14031H54.3509C54.9163 6.14031 55.3743 5.68216 55.3743 5.11697C55.3743 4.55177 54.9163 4.09363 54.3509 4.09363Z" fill="black"/>
<path d="M44.117 9.0058H19.4192C18.8538 9.0058 18.3958 9.46394 18.3958 10.0291C18.3958 10.5943 18.8538 11.0525 19.4192 11.0525H44.117C44.6823 11.0525 45.1403 10.5943 45.1403 10.0291C45.1403 9.46408 44.6823 9.0058 44.117 9.0058Z" fill="black"/>
<path d="M54.3509 9.0058H48.3471C47.7817 9.0058 47.3237 9.46394 47.3237 10.0291C47.3237 10.5943 47.7817 11.0525 48.3471 11.0525H54.3509C54.9163 11.0525 55.3743 10.5943 55.3743 10.0291C55.3743 9.46408 54.9163 9.0058 54.3509 9.0058Z" fill="black"/>
<path d="M46.846 29.7466H22.1482C21.5829 29.7466 21.1249 30.2047 21.1249 30.7699C21.1249 31.3351 21.5829 31.7933 22.1482 31.7933H46.846C47.4114 31.7933 47.8694 31.335 47.8694 30.7699C47.8694 30.2049 47.4114 29.7466 46.846 29.7466Z" fill="black"/>
<path d="M54.3509 53.7622H48.3471C47.7817 53.7622 47.3237 54.2203 47.3237 54.7855C47.3237 55.3507 47.7817 55.8089 48.3471 55.8089H54.3509C54.9163 55.8089 55.3743 55.3506 55.3743 54.7855C55.3743 54.2205 54.9163 53.7622 54.3509 53.7622Z" fill="black"/>
<path d="M30.4718 34.6589H22.1482C21.5829 34.6589 21.1249 35.117 21.1249 35.6822C21.1249 36.2474 21.5829 36.7056 22.1482 36.7056H30.4718C31.0371 36.7056 31.4951 36.2474 31.4951 35.6822C31.4951 35.117 31.0371 34.6589 30.4718 34.6589Z" fill="black"/>
<path d="M54.3509 58.6745H42.2067C41.6414 58.6745 41.1834 59.1326 41.1834 59.6978C41.1834 60.263 41.6414 60.7212 42.2067 60.7212H54.3509C54.9163 60.7212 55.3743 60.263 55.3743 59.6978C55.3743 59.1326 54.9163 58.6745 54.3509 58.6745Z" fill="black"/>
<path d="M44.5263 53.7622H21.2612C20.6958 53.7622 20.2378 54.2203 20.2378 54.7855C20.2378 55.3507 20.6958 55.8089 21.2612 55.8089H44.5263C45.0917 55.8089 45.5497 55.3506 45.5497 54.7855C45.5497 54.2205 45.0917 53.7622 44.5263 53.7622Z" fill="black"/>
<path d="M38.1131 58.6745H21.2612C20.6958 58.6745 20.2378 59.1326 20.2378 59.6978C20.2378 60.263 20.6958 60.7212 21.2612 60.7212H38.113C38.6783 60.7212 39.1363 60.263 39.1363 59.6978C39.1365 59.1326 38.6784 58.6745 38.1131 58.6745Z" fill="black"/>
<path d="M56.6706 29.7466H52.1677C51.6023 29.7466 51.1443 30.2047 51.1443 30.7699C51.1443 31.3351 51.6023 31.7933 52.1677 31.7933H56.6706C57.236 31.7933 57.694 31.335 57.694 30.7699C57.694 30.2049 57.236 29.7466 56.6706 29.7466Z" fill="black"/>
<path d="M56.6706 34.6589H36.3392C35.7739 34.6589 35.3159 35.117 35.3159 35.6822C35.3159 36.2474 35.7739 36.7056 36.3392 36.7056H56.6706C57.236 36.7056 57.694 36.2474 57.694 35.6822C57.694 35.117 57.236 34.6589 56.6706 34.6589Z" fill="black"/>
</g>
<defs>
<filter id="filter0_d_254_1102" x="0" y="0" width="78" height="78" filterUnits="userSpaceOnUse" color-interpolation-filters="sRGB">
<feFlood flood-opacity="0" result="BackgroundImageFix"/>
<feColorMatrix in="SourceAlpha" type="matrix" values="0 0 0 0 0 0 0 0 0 0 0 0 0 0 0 0 0 0 127 0" result="hardAlpha"/>
<feOffset dy="4"/>
<feGaussianBlur stdDeviation="2"/>
<feComposite in2="hardAlpha" operator="out"/>
<feColorMatrix type="matrix" values="0 0 0 0 0 0 0 0 0 0 0 0 0 0 0 0 0 0 0.25 0"/>
<feBlend mode="normal" in2="BackgroundImageFix" result="effect1_dropShadow_254_1102"/>
<feBlend mode="normal" in="SourceGraphic" in2="effect1_dropShadow_254_1102" result="shape"/>
</filter>
</defs>
</svg>
