<svg width="99" height="99" viewBox="0 0 99 99" fill="none" xmlns="http://www.w3.org/2000/svg">
<path d="M94 50C94 74.8528 73.8528 95 49 95C24.1472 95 4 74.8528 4 50C4 25.1472 24.1472 5 49 5C73.8528 5 94 25.1472 94 50ZM10.9326 50C10.9326 71.0241 27.9759 88.0674 49 88.0674C70.0241 88.0674 87.0674 71.0241 87.0674 50C87.0674 28.9759 70.0241 11.9326 49 11.9326C27.9759 11.9326 10.9326 28.9759 10.9326 50Z" fill="#FFC727"/>
<path d="M49.4999 96.3242C40.2389 96.3242 31.1859 93.578 23.4857 88.4329C15.7855 83.2878 9.78387 75.9748 6.23985 67.4188C2.69583 58.8627 1.76855 49.4479 3.57527 40.3649C5.382 31.2819 9.84159 22.9386 16.3901 16.3901C22.9386 9.84159 31.2819 5.382 40.3649 3.57527C49.4479 1.76855 58.8627 2.69583 67.4188 6.23985C75.9748 9.78387 83.2878 15.7855 88.4329 23.4857C93.578 31.1859 96.3242 40.2389 96.3242 49.4999C96.31 61.9141 91.3722 73.8158 82.594 82.594C73.8158 91.3722 61.9141 96.31 49.4999 96.3242ZM49.4999 5.35123C40.7681 5.35123 32.2324 7.94051 24.9722 12.7916C17.712 17.6427 12.0534 24.5378 8.71185 32.6049C5.37034 40.672 4.49605 49.5489 6.19954 58.1129C7.90302 66.6769 12.1078 74.5434 18.2821 80.7177C24.4564 86.892 32.3229 91.0967 40.8869 92.8002C49.4509 94.5037 58.3277 93.6294 66.3948 90.2879C74.4619 86.9464 81.357 81.2878 86.2081 74.0276C91.0593 66.7673 93.6485 58.2317 93.6485 49.4999C93.6351 37.7951 88.9794 26.5735 80.7028 18.2969C72.4263 10.0204 61.2047 5.36469 49.4999 5.35123Z" fill="black"/>
<path d="M49.5 88.2972C41.8266 88.2972 34.3255 86.0218 27.9453 81.7587C21.5651 77.4956 16.5924 71.4363 13.6559 64.347C10.7194 57.2578 9.95113 49.4569 11.4481 41.931C12.9451 34.405 16.6402 27.492 22.0661 22.0661C27.492 16.6402 34.405 12.9451 41.931 11.4481C49.4569 9.95113 57.2578 10.7194 64.347 13.6559C71.4363 16.5924 77.4956 21.5651 81.7587 27.9453C86.0218 34.3255 88.2972 41.8266 88.2972 49.5C88.2856 59.7861 84.1943 69.6475 76.9209 76.9209C69.6475 84.1943 59.7861 88.2856 49.5 88.2972ZM49.5 13.3783C42.3558 13.3783 35.372 15.4968 29.4319 19.4659C23.4917 23.435 18.8619 29.0764 16.1279 35.6768C13.394 42.2772 12.6786 49.54 14.0724 56.5469C15.4662 63.5538 18.9064 69.9901 23.9581 75.0418C29.0098 80.0935 35.4461 83.5337 42.453 84.9275C49.4599 86.3213 56.7227 85.6059 63.3231 82.872C69.9235 80.138 75.5649 75.5082 79.534 69.5681C83.5031 63.6279 85.6216 56.6441 85.6216 49.5C85.611 39.9232 81.8019 30.7417 75.0301 23.9698C68.2583 17.198 59.0767 13.389 49.5 13.3783Z" fill="black"/>
<path d="M49.4999 25.4187C49.1451 25.4187 48.8048 25.2777 48.554 25.0268C48.3031 24.7759 48.1621 24.4357 48.1621 24.0808V20.0673C48.1621 19.7125 48.3031 19.3722 48.554 19.1213C48.8048 18.8704 49.1451 18.7295 49.4999 18.7295C49.8548 18.7295 50.195 18.8704 50.4459 19.1213C50.6968 19.3722 50.8378 19.7125 50.8378 20.0673V24.0808C50.8378 24.4357 50.6968 24.7759 50.4459 25.0268C50.195 25.2777 49.8548 25.4187 49.4999 25.4187Z" fill="black"/>
<path d="M49.4999 80.2702C49.1451 80.2702 48.8048 80.1293 48.554 79.8784C48.3031 79.6275 48.1621 79.2872 48.1621 78.9324V74.9189C48.1621 74.5641 48.3031 74.2238 48.554 73.9729C48.8048 73.722 49.1451 73.5811 49.4999 73.5811C49.8548 73.5811 50.195 73.722 50.4459 73.9729C50.6968 74.2238 50.8378 74.5641 50.8378 74.9189V78.9324C50.8378 79.2872 50.6968 79.6275 50.4459 79.8784C50.195 80.1293 49.8548 80.2702 49.4999 80.2702Z" fill="black"/>
<path d="M67.4738 32.864C67.2092 32.8639 66.9506 32.7854 66.7307 32.6384C66.5107 32.4914 66.3393 32.2825 66.2381 32.0381C66.1368 31.7936 66.1103 31.5247 66.1619 31.2652C66.2135 31.0057 66.3409 30.7674 66.5279 30.5803L69.3668 27.7427C69.6191 27.499 69.9571 27.3642 70.3079 27.3672C70.6586 27.3703 70.9942 27.511 71.2422 27.759C71.4903 28.0071 71.631 28.3426 71.634 28.6934C71.6371 29.0442 71.5022 29.3821 71.2585 29.6344L68.4196 32.472C68.1688 32.7229 67.8286 32.8639 67.4738 32.864Z" fill="black"/>
<path d="M28.6872 71.6491C28.4226 71.6491 28.164 71.5706 27.944 71.4236C27.7241 71.2766 27.5527 71.0676 27.4514 70.8232C27.3502 70.5788 27.3237 70.3099 27.3753 70.0504C27.4269 69.7909 27.5543 69.5525 27.7413 69.3654L30.5789 66.5279C30.8312 66.2842 31.1691 66.1493 31.5199 66.1524C31.8707 66.1554 32.2062 66.2961 32.4543 66.5442C32.7023 66.7922 32.843 67.1278 32.8461 67.4786C32.8491 67.8293 32.7143 68.1673 32.4706 68.4196L29.633 71.2571C29.3822 71.5081 29.042 71.6491 28.6872 71.6491Z" fill="black"/>
<path d="M78.9324 50.8378H74.9189C74.5641 50.8378 74.2238 50.6968 73.9729 50.4459C73.722 50.195 73.5811 49.8548 73.5811 49.4999C73.5811 49.1451 73.722 48.8048 73.9729 48.554C74.2238 48.3031 74.5641 48.1621 74.9189 48.1621H78.9324C79.2872 48.1621 79.6275 48.3031 79.8784 48.554C80.1293 48.8048 80.2702 49.1451 80.2702 49.4999C80.2702 49.8548 80.1293 50.195 79.8784 50.4459C79.6275 50.6968 79.2872 50.8378 78.9324 50.8378Z" fill="black"/>
<path d="M24.0808 50.8378H20.0673C19.7125 50.8378 19.3722 50.6968 19.1213 50.4459C18.8704 50.195 18.7295 49.8548 18.7295 49.4999C18.7295 49.1451 18.8704 48.8048 19.1213 48.554C19.3722 48.3031 19.7125 48.1621 20.0673 48.1621H24.0808C24.4357 48.1621 24.7759 48.3031 25.0268 48.554C25.2777 48.8048 25.4187 49.1451 25.4187 49.4999C25.4187 49.8548 25.2777 50.195 25.0268 50.4459C24.7759 50.6968 24.4357 50.8378 24.0808 50.8378Z" fill="black"/>
<path d="M70.3126 71.6491C69.9578 71.6491 69.6176 71.5081 69.3668 71.2571L66.5279 68.4196C66.2842 68.1673 66.1493 67.8293 66.1524 67.4786C66.1554 67.1278 66.2961 66.7922 66.5442 66.5442C66.7922 66.2961 67.1278 66.1554 67.4786 66.1524C67.8293 66.1493 68.1673 66.2842 68.4196 66.5279L71.2585 69.3654C71.4455 69.5525 71.5729 69.7909 71.6245 70.0504C71.6761 70.3099 71.6496 70.5788 71.5484 70.8232C71.4471 71.0676 71.2757 71.2766 71.0557 71.4236C70.8358 71.5706 70.5772 71.6491 70.3126 71.6491Z" fill="black"/>
<path d="M31.5246 32.8639C31.1698 32.8638 30.8296 32.7228 30.5787 32.4719L27.7412 29.6344C27.6134 29.5109 27.5115 29.3633 27.4414 29.2001C27.3713 29.0369 27.3344 28.8613 27.3328 28.6837C27.3313 28.5061 27.3651 28.3299 27.4324 28.1655C27.4997 28.0011 27.599 27.8517 27.7246 27.7261C27.8502 27.6005 27.9996 27.5011 28.164 27.4339C28.3284 27.3666 28.5046 27.3327 28.6822 27.3343C28.8599 27.3358 29.0354 27.3727 29.1986 27.4428C29.3619 27.513 29.5095 27.6149 29.6329 27.7427L32.4704 30.5802C32.6575 30.7673 32.7849 31.0057 32.8365 31.2651C32.8881 31.5246 32.8616 31.7936 32.7603 32.038C32.6591 32.2824 32.4877 32.4913 32.2677 32.6383C32.0478 32.7853 31.7892 32.8638 31.5246 32.8639Z" fill="black"/>
<path d="M42.1418 58.1957C41.8772 58.1957 41.6186 58.1172 41.3986 57.9702C41.1787 57.8232 41.0073 57.6143 40.906 57.3698C40.8048 57.1254 40.7783 56.8565 40.8299 56.597C40.8815 56.3375 41.0089 56.0992 41.1959 55.9121L48.162 48.9459V33.4457C48.162 33.0909 48.303 32.7506 48.5539 32.4998C48.8048 32.2489 49.145 32.1079 49.4999 32.1079C49.8547 32.1079 50.195 32.2489 50.4459 32.4998C50.6967 32.7506 50.8377 33.0909 50.8377 33.4457V49.4998C50.8376 49.8546 50.6966 50.1948 50.4457 50.4457L43.0876 57.8038C42.8368 58.0547 42.4965 58.1957 42.1418 58.1957Z" fill="black"/>
</svg>
