<svg width="70" height="70" viewBox="0 0 70 70" fill="none" xmlns="http://www.w3.org/2000/svg">
<path d="M37 28.5H3.5L1 32.5L1.5 56L6.5 58.5L7.5 64L12.5 58.5H36L39.5 55V32L37 28.5Z" fill="#FFCF00"/>
<path d="M46.9178 13.5345C46.9178 12.9683 46.4589 12.5094 45.8926 12.5094H21.2268C20.6607 12.5094 20.2017 12.9683 20.2017 13.5345C20.2017 14.1006 20.6605 14.5596 21.2268 14.5596H45.8928C46.4589 14.5596 46.9178 14.1006 46.9178 13.5345Z" fill="black"/>
<path d="M28.2718 17.9956C28.2718 17.4295 27.813 16.9705 27.2467 16.9705H21.2267C20.6605 16.9705 20.2016 17.4295 20.2016 17.9956C20.2016 18.5618 20.6604 19.0207 21.2267 19.0207H27.2467C27.813 19.0206 28.2718 18.5616 28.2718 17.9956Z" fill="black"/>
<path d="M21.2268 20.9925C20.6607 20.9925 20.2017 21.4515 20.2017 22.0176C20.2017 22.5838 20.6605 23.0427 21.2268 23.0427H26.0723C26.6384 23.0427 27.0974 22.5838 27.0974 22.0176C27.0974 21.4515 26.6385 20.9925 26.0723 20.9925H21.2268Z" fill="black"/>
<path d="M62.01 23.9941H37.3439C36.7778 23.9941 36.3188 24.4531 36.3188 25.0193C36.3188 25.5854 36.7776 26.0444 37.3439 26.0444H62.01C62.5762 26.0444 63.0351 25.5854 63.0351 25.0193C63.035 24.4531 62.5762 23.9941 62.01 23.9941Z" fill="black"/>
<path d="M62.01 28.4551H44.0538C43.4876 28.4551 43.0287 28.9141 43.0287 29.4803C43.0287 30.0464 43.4875 30.5054 44.0538 30.5054H62.01C62.5762 30.5054 63.0352 30.0464 63.0352 29.4803C63.0352 28.9141 62.5762 28.4551 62.01 28.4551Z" fill="black"/>
<path d="M62.01 32.8687H44.0538C43.4876 32.8687 43.0287 33.3277 43.0287 33.8938C43.0287 34.46 43.4875 34.9189 44.0538 34.9189H62.01C62.5762 34.9189 63.0352 34.46 63.0352 33.8938C63.0352 33.3277 62.5762 32.8687 62.01 32.8687Z" fill="black"/>
<path d="M62.01 37.2823H44.0538C43.4876 37.2823 43.0287 37.7412 43.0287 38.3074C43.0287 38.8735 43.4875 39.3325 44.0538 39.3325H62.01C62.5762 39.3325 63.0352 38.8735 63.0352 38.3074C63.035 37.7412 62.5762 37.2823 62.01 37.2823Z" fill="black"/>
<path d="M44.0538 43.4018H55.0449C55.6111 43.4018 56.07 42.9428 56.07 42.3767C56.07 41.8105 55.6112 41.3516 55.0449 41.3516H44.0538C43.4876 41.3516 43.0287 41.8105 43.0287 42.3767C43.0287 42.9428 43.4876 43.4018 44.0538 43.4018Z" fill="black"/>
<path d="M64.167 17.6231H53.8828V11.034C53.8828 7.81772 51.2661 5.20093 48.0498 5.20093H25.1594C24.5932 5.20093 24.1343 5.65989 24.1343 6.22605C24.1343 6.7922 24.5931 7.25116 25.1594 7.25116H48.0498C50.1357 7.25116 51.8327 8.94812 51.8327 11.034V17.6231H35.1869C31.9706 17.6231 29.3539 20.2397 29.3539 23.4562V27.0006H15.2868V11.034C15.2868 8.94812 16.9839 7.25116 19.0698 7.25116H20.4441C21.0103 7.25116 21.4692 6.7922 21.4692 6.22605C21.4692 5.65989 21.0104 5.20093 20.4441 5.20093H19.0698C15.8534 5.20093 13.2367 7.81759 13.2367 11.034V27.0005H5.83297C2.61666 27.0005 0 29.6173 0 32.8336V53.5131C0 56.6554 2.49771 59.2255 5.61189 59.342C5.64238 59.3447 5.67328 59.3461 5.70445 59.3461C5.87891 59.3461 6.02697 59.4792 6.04119 59.6494C6.1075 60.4364 6.1291 61.598 5.85457 62.6623C5.68723 63.3115 5.9068 63.98 6.4277 64.4068C6.74365 64.6657 7.12482 64.7988 7.51064 64.7988C7.76289 64.7988 8.01732 64.7419 8.25658 64.6263C9.75762 63.9007 11.7966 62.4306 12.9869 59.5468C13.0364 59.4267 13.1604 59.3461 13.2955 59.3461H34.8128C38.0291 59.3461 40.6458 56.7294 40.6458 53.513V49.9685H48.8722C49.4383 49.9685 49.8973 49.5096 49.8973 48.9434C49.8973 48.3773 49.4385 47.9183 48.8722 47.9183H40.6458V32.8336C40.6458 29.6173 38.0291 27.0005 34.8128 27.0005H31.4037V23.456C31.4037 21.3701 33.1007 19.6732 35.1866 19.6732H64.1668C66.2527 19.6732 67.9496 21.3702 67.9496 23.456V44.1357C67.9496 46.2216 66.2527 47.9186 64.1668 47.9186C64.0814 47.9186 63.9985 47.929 63.9192 47.9486C62.8573 48.12 62.0078 49.0034 61.9156 50.0998C61.8505 50.8731 61.8235 51.9567 62.0056 53.0607C60.9319 52.4085 59.6918 51.2868 58.9076 49.3871C58.5393 48.495 57.6743 47.9186 56.704 47.9186H53.6103C53.0441 47.9186 52.5852 48.3775 52.5852 48.9437C52.5852 49.5098 53.044 49.9688 53.6103 49.9688H56.704C56.839 49.9688 56.963 50.0495 57.0125 50.1694C58.2028 53.0533 60.2418 54.5234 61.7429 55.249C61.9823 55.3647 62.2366 55.4216 62.4888 55.4216C62.8746 55.4216 63.2559 55.2885 63.5718 55.0296C64.0927 54.6027 64.3122 53.9342 64.1449 53.285C63.8704 52.2206 63.892 51.0591 63.9583 50.272C63.9725 50.102 64.1204 49.9688 64.295 49.9688C64.3262 49.9688 64.3572 49.9674 64.3876 49.9647C67.5019 49.8481 69.9995 47.2782 69.9995 44.1358V23.456C70 20.2397 67.3833 17.6231 64.167 17.6231ZM34.8131 29.0506C36.899 29.0506 38.596 30.7476 38.596 32.8334V53.5131C38.596 55.599 36.899 57.296 34.8131 57.296H13.2958C12.3255 57.296 11.4606 57.8724 11.0921 58.7646C10.308 60.6642 9.06787 61.7859 7.99408 62.4381C8.17619 61.3341 8.14939 60.2506 8.08418 59.4773C7.99176 58.381 7.14246 57.4974 6.08057 57.326C6.00127 57.3064 5.91828 57.296 5.83297 57.296C3.74705 57.296 2.0501 55.5989 2.0501 53.5131V32.8336C2.0501 30.7476 3.74705 29.0507 5.83297 29.0507H34.8131V29.0506Z" fill="black"/>
<path d="M12.0669 49.0882C13.3667 50.251 14.6219 50.9552 15.951 51.7008C16.3923 51.9482 16.8485 52.2042 17.3193 52.4843C17.3627 52.5101 17.4718 52.5706 17.8832 52.7979C18.3341 53.0472 18.9695 53.3981 19.387 53.6345C19.6757 53.7979 19.9994 53.8795 20.3231 53.8795C20.6469 53.8795 20.9709 53.7977 21.2596 53.6344C21.6769 53.3983 22.3122 53.0472 22.763 52.7979C23.1744 52.5706 23.2833 52.5101 23.3274 52.484C23.7977 52.204 24.254 51.9479 24.6955 51.7005C26.0243 50.9551 27.2795 50.2509 28.5791 49.0882C31.1574 46.7818 32.5071 43.9828 32.4823 40.9943C32.4677 39.2215 31.9666 37.5986 31.0331 36.3009C29.9272 34.7635 28.2287 33.7756 26.373 33.5904C24.4712 33.4011 22.627 34.0363 21.1801 35.3797C20.8366 35.6986 20.5535 36.028 20.323 36.3403C20.0923 36.0281 19.8093 35.6986 19.4659 35.3798C18.0452 34.0603 16.2321 33.4223 14.363 33.5821C13.7989 33.6304 13.3808 34.1269 13.4291 34.6909C13.4775 35.255 13.977 35.6735 14.5379 35.6247C15.8245 35.5141 17.0792 35.961 18.0708 36.8819C18.603 37.3762 18.9291 37.9061 19.1089 38.2636C19.3412 38.7256 19.8063 39.0126 20.323 39.0126C20.8395 39.0126 21.3046 38.7256 21.5369 38.2635C21.7165 37.9061 22.0425 37.3763 22.5749 36.8819C23.5844 35.9445 24.8609 35.4997 26.1695 35.6304C27.4587 35.7589 28.5949 36.4223 29.3687 37.498C30.0532 38.4497 30.421 39.6644 30.4321 41.0111C30.457 44.0209 28.6948 46.2336 27.2121 47.5601C26.0801 48.5728 24.9736 49.1936 23.6923 49.9123C23.2397 50.1662 22.7716 50.4289 22.2838 50.7192C22.2369 50.7463 22.037 50.8566 21.7712 51.0035C21.3406 51.2415 20.7437 51.5716 20.323 51.8086C19.9023 51.5713 19.3054 51.2414 18.8748 51.0035C18.6091 50.8566 18.4092 50.7463 18.3673 50.7223C17.8746 50.429 17.4066 50.1664 16.9539 49.9126C15.6726 49.1937 14.5659 48.5729 13.4337 47.5602C11.951 46.2336 10.1888 44.0208 10.2138 41.0113C10.2249 39.6644 10.5927 38.4497 11.2771 37.4981C11.6077 37.0386 11.5032 36.398 11.0436 36.0674C10.5842 35.7368 9.94342 35.8412 9.61297 36.3009C8.67945 37.5984 8.17838 39.2213 8.16375 40.9943C8.13914 43.9828 9.48869 46.7818 12.0669 49.0882Z" fill="black"/>
</svg>
