<svg width="70" height="70" viewBox="0 0 70 70" fill="none" xmlns="http://www.w3.org/2000/svg">
<g clip-path="url(#clip0_254_1291)">
<path d="M40 14.5V2.5V1.5L53 14.5H40Z" fill="#FFCF00"/>
<path d="M61.9412 22L59 28.1875L66.0588 31L69 24.8125L61.9412 22Z" fill="#FFCF00"/>
<path d="M69.6812 24.8465C69.4051 24.1875 68.8886 23.6753 68.2275 23.4051L63.5577 21.4942C62.897 21.224 62.1696 21.2267 61.5106 21.5033C60.8511 21.7799 60.3394 22.2964 60.0687 22.957L54.7527 35.9501V14.7181C54.7527 14.4425 54.6432 14.1776 54.4482 13.9827L40.7694 0.304413C40.5745 0.109482 40.3101 0 40.0346 0H1.03981C0.465698 0 0 0.465698 0 1.03981V9.06296C0 9.63707 0.465698 10.1028 1.03981 10.1028C1.61392 10.1028 2.07909 9.63707 2.07909 9.06296V2.07909H38.9942V14.7181C38.9942 15.2922 39.4599 15.7574 40.034 15.7574H52.6736V41.0322L48.0903 52.233C48.0326 52.374 48.0064 52.5262 48.0145 52.6784L48.5036 62.4639C48.5239 62.8666 48.7749 63.2212 49.1483 63.3739C49.2754 63.4263 49.4089 63.4514 49.5419 63.4514C49.7982 63.4514 50.0503 63.3569 50.2457 63.1769L52.673 60.9424V67.9209H2.07909V13.2217C2.07909 12.6476 1.61392 12.1819 1.03981 12.1819C0.465698 12.1819 0 12.6476 0 13.2217V68.9602C0 69.5343 0.465698 70 1.03981 70H53.7128C54.287 70 54.7527 69.5343 54.7527 68.9602V59.0283L57.4545 56.5412C57.5666 56.4376 57.6542 56.311 57.7124 56.17L62.4255 44.6504C62.6428 44.119 62.3881 43.5118 61.8567 43.2944C61.3258 43.0771 60.7186 43.3313 60.5013 43.8627L56.1813 54.4205L50.4081 52.0583L59.2793 30.3772L65.0525 32.7393L61.9918 40.2199C61.7744 40.7513 62.0287 41.3585 62.5606 41.5759C63.092 41.7932 63.6987 41.539 63.916 41.0076L69.6908 26.8941C69.961 26.2329 69.9578 25.5055 69.6812 24.8465ZM41.0738 3.54881L51.2033 13.6788H41.0738V3.54881ZM50.1726 54.2079L54.8429 56.1188L50.4695 60.145L50.1726 54.2079ZM67.766 26.1063L65.8397 30.8146L60.0665 28.4525L61.9929 23.7442C62.0532 23.5973 62.1675 23.4825 62.3144 23.4211C62.4618 23.3591 62.6236 23.3581 62.7705 23.4184L67.4403 25.3293C67.5871 25.3891 67.702 25.5034 67.7634 25.6503C67.8253 25.7977 67.8264 25.9595 67.766 26.1063Z" fill="black"/>
<path d="M34.5968 11.3498H21.7062C21.1321 11.3498 20.6664 11.815 20.6664 12.3891C20.6664 12.9632 21.1321 13.4289 21.7062 13.4289H34.5968C35.1709 13.4289 35.6366 12.9632 35.6366 12.3891C35.6366 11.815 35.1709 11.3498 34.5968 11.3498Z" fill="black"/>
<path d="M8.04024 34.1509H16.2594C16.8335 34.1509 17.2987 33.6852 17.2987 33.111V25.7485L18.8501 23.7736C19.2047 23.3223 19.1262 22.6686 18.6749 22.314C18.2236 21.9594 17.57 22.0379 17.2153 22.4892L16.144 23.8526H8.04024C7.46613 23.8526 7.00043 24.3178 7.00043 24.8919V33.111C7.00043 33.6852 7.46613 34.1509 8.04024 34.1509ZM9.07951 25.9317H14.5103L12.8558 28.0375L11.6991 26.8802C11.2932 26.4743 10.6347 26.4743 10.2288 26.8802C9.82292 27.2866 9.82292 27.9446 10.2288 28.3505L12.2144 30.3361C12.4099 30.5315 12.6748 30.6405 12.9493 30.6405C12.9701 30.6405 12.991 30.64 13.0118 30.6389C13.3082 30.6213 13.5832 30.4771 13.7669 30.2432L15.2196 28.3948V32.0718H9.07951V25.9317Z" fill="black"/>
<path d="M45.6849 25.467H23.4387C22.8646 25.467 22.3989 25.9327 22.3989 26.5069C22.3989 27.081 22.8646 27.5467 23.4387 27.5467H45.6849C46.2595 27.5467 46.7247 27.081 46.7247 26.5069C46.7247 25.9327 46.2595 25.467 45.6849 25.467Z" fill="black"/>
<path d="M23.4387 32.5364H41.319C41.8931 32.5364 42.3582 32.0707 42.3582 31.4966C42.3582 30.9225 41.8931 30.4573 41.319 30.4573H23.4387C22.8646 30.4573 22.3989 30.9225 22.3989 31.4966C22.3989 32.0707 22.8646 32.5364 23.4387 32.5364Z" fill="black"/>
<path d="M7.00043 46.7637C7.00043 47.3378 7.46613 47.8035 8.04024 47.8035H16.2594C16.8335 47.8035 17.2987 47.3378 17.2987 46.7637V39.4012L18.8501 37.4262C19.2047 36.9749 19.1262 36.3213 18.6749 35.9666C18.2236 35.612 17.57 35.6905 17.2153 36.1418L16.144 37.5053H8.04024C7.46613 37.5053 7.00043 37.9704 7.00043 38.5445V46.7637ZM9.07951 39.5844H14.5103L12.8558 41.6901L11.6991 40.5328C11.2932 40.127 10.6347 40.127 10.2288 40.5328C9.82292 40.9393 9.82292 41.5972 10.2288 42.0031L12.2144 43.9887C12.4099 44.1842 12.6748 44.2931 12.9493 44.2931C12.9701 44.2931 12.991 44.2926 13.0118 44.2915C13.3082 44.2739 13.5832 44.1297 13.7669 43.8958L15.2196 42.0474V45.7244H9.07951V39.5844Z" fill="black"/>
<path d="M45.6849 39.1197H23.4387C22.8646 39.1197 22.3989 39.5854 22.3989 40.1595C22.3989 40.7336 22.8646 41.1988 23.4387 41.1988H45.6849C46.2595 41.1988 46.7247 40.7336 46.7247 40.1595C46.7247 39.5854 46.2595 39.1197 45.6849 39.1197Z" fill="black"/>
<path d="M23.4387 46.189H30.092C30.6661 46.189 31.1313 45.7233 31.1313 45.1492C31.1313 44.5751 30.6661 44.11 30.092 44.11H23.4387C22.8646 44.11 22.3989 44.5751 22.3989 45.1492C22.3989 45.7233 22.8646 46.189 23.4387 46.189Z" fill="black"/>
<path d="M7.00043 60.4163C7.00043 60.9904 7.46613 61.4561 8.04024 61.4561H16.2594C16.8335 61.4561 17.2987 60.9904 17.2987 60.4163V52.1977C17.2987 51.6236 16.8335 51.1579 16.2594 51.1579H8.04024C7.46613 51.1579 7.00043 51.6236 7.00043 52.1977V60.4163ZM9.07951 53.237H15.2196V59.3765H9.07951V53.237Z" fill="black"/>
<path d="M46.7247 53.8122C46.7247 53.2381 46.2595 52.7724 45.6849 52.7724H23.4387C22.8646 52.7724 22.3989 53.2381 22.3989 53.8122C22.3989 54.3863 22.8646 54.8515 23.4387 54.8515H45.6849C46.2595 54.8515 46.7247 54.3863 46.7247 53.8122Z" fill="black"/>
<path d="M23.4387 57.7621C22.8646 57.7621 22.3989 58.2278 22.3989 58.8019C22.3989 59.376 22.8646 59.8417 23.4387 59.8417H42.3582C42.9329 59.8417 43.3981 59.376 43.3981 58.8019C43.3981 58.2278 42.9329 57.7621 42.3582 57.7621H23.4387Z" fill="black"/>
</g>
<defs>
<clipPath id="clip0_254_1291">
<rect width="70" height="70" fill="white"/>
</clipPath>
</defs>
</svg>
