<svg width="70" height="70" viewBox="0 0 70 70" fill="none" xmlns="http://www.w3.org/2000/svg">
<circle cx="24" cy="37" r="3" fill="#FFCF00"/>
<circle cx="46" cy="37" r="3" fill="#FFCF00"/>
<circle cx="53" cy="31" r="2" fill="#FFCF00"/>
<circle cx="58" cy="26" r="2" fill="#FFCF00"/>
<circle cx="53" cy="21" r="2" fill="#FFCF00"/>
<circle cx="48" cy="26" r="2" fill="#FFCF00"/>
<path d="M21 14H13.5L14 10.5H21V14Z" fill="#FFCF00"/>
<path d="M56.5 13.5H49L49.5 10H56.5V13.5Z" fill="#FFCF00"/>
<path d="M15.5 20.5L17.5 20L19 20.5L20 23.5L22.5 24.5V27.5L20 28.5L19 31H15.5V28.5L12.5 27.5V23.5H15.5V20.5Z" fill="#FFCF00"/>
<path d="M23.9643 32.7728C21.6228 32.7728 19.7177 34.6779 19.7177 37.0194C19.7177 39.361 21.6228 41.2662 23.9643 41.2662C26.3059 41.2662 28.211 39.361 28.211 37.0194C28.211 34.6779 26.3059 32.7728 23.9643 32.7728ZM23.9643 39.2116C22.7557 39.2116 21.7723 38.2283 21.7723 37.0196C21.7723 35.811 22.7556 34.8277 23.9643 34.8277C25.1731 34.8277 26.1563 35.811 26.1563 37.0196C26.1563 38.2282 25.1729 39.2116 23.9643 39.2116Z" fill="black"/>
<path d="M41.7891 37.0194C41.7891 39.361 43.6941 41.2662 46.0357 41.2662C48.3773 41.2662 50.2823 39.361 50.2823 37.0194C50.2823 34.6779 48.3773 32.7728 46.0357 32.7728C43.6941 32.7728 41.7891 34.6779 41.7891 37.0194ZM46.0357 34.8276C47.2444 34.8276 48.2277 35.8109 48.2277 37.0194C48.2277 38.2282 47.2444 39.2115 46.0357 39.2115C44.8271 39.2115 43.8437 38.2282 43.8437 37.0194C43.8437 35.8109 44.8271 34.8276 46.0357 34.8276Z" fill="black"/>
<path d="M69.8828 51.4703L65.2513 23.8894C65.2483 23.8718 65.2449 23.8543 65.2411 23.8369C64.5892 19.2635 61.5116 15.5218 57.4284 13.8433V11.9365C57.4284 10.2371 56.0459 8.85443 54.3464 8.85443H50.4722C48.7727 8.85443 47.3901 10.2371 47.3901 11.9365V13.999C46.0233 14.6128 44.7632 15.4698 43.6637 16.5542H26.3361C25.2366 15.4698 23.9765 14.6128 22.6097 13.999V11.9365C22.6097 10.2371 21.2272 8.85443 19.5276 8.85443H15.6534C13.954 8.85443 12.5714 10.2371 12.5714 11.9365V13.8434C8.48856 15.5218 5.41129 19.2631 4.75901 23.8359C4.75504 23.8536 4.75163 23.8713 4.74862 23.8894L3.25702 32.7715C3.16309 33.3311 3.54043 33.8608 4.10002 33.9548C4.65961 34.0483 5.1894 33.6713 5.28332 33.1118L6.76057 24.3142C6.77 24.2767 6.77752 24.2384 6.78272 24.1996C7.49776 18.9224 12.0577 14.9429 17.39 14.9429C20.2229 14.9429 22.8651 16.0287 24.8773 18.005V19.4082C24.8773 21.4852 26.5672 23.175 28.6442 23.175H32.9452C33.5126 23.175 33.9725 22.7151 33.9725 22.1477C33.9725 21.5802 33.5126 21.1204 32.9452 21.1204H28.6442C27.7 21.1204 26.9319 20.3523 26.9319 19.4082V18.6085H43.0677V19.4082C43.0677 20.3523 42.2997 21.1204 41.3555 21.1204H37.0544C36.4871 21.1204 36.0271 21.5803 36.0271 22.1477C36.0271 22.7151 36.4871 23.175 37.0544 23.175H41.3555C43.4325 23.175 45.1223 21.4852 45.1223 19.4082V18.005C47.1346 16.0286 49.7768 14.9429 52.6096 14.9429C57.9418 14.9429 62.502 18.9224 63.2169 24.1996C63.2221 24.238 63.2294 24.2758 63.2388 24.3128L67.8564 51.8105C68.3409 54.6958 66.792 57.4943 64.0899 58.616C62.4722 59.2875 60.7032 59.2579 59.1088 58.533C57.5144 57.8081 56.3293 56.4946 55.7718 54.8343L54.8261 52.0183C54.6455 51.4805 54.0629 51.1903 53.5251 51.3715C52.9872 51.5521 52.6977 52.1345 52.8783 52.6724L53.8239 55.4884C54.5542 57.6626 56.1705 59.4542 58.2584 60.4034C59.3455 60.8975 60.5202 61.1453 61.6958 61.1453C62.7785 61.1453 63.862 60.9351 64.8775 60.5135C68.4684 59.0232 70.5266 55.3045 69.8828 51.4703ZM14.6261 13.1954V11.9365C14.6261 11.3699 15.087 10.9092 15.6534 10.9092H19.5276C20.0942 10.9092 20.5549 11.3701 20.5549 11.9365V13.2818C19.5347 13.0231 18.4744 12.8885 17.3902 12.8885C16.4442 12.8885 15.5193 12.9956 14.6261 13.1954ZM49.445 13.2818V11.9365C49.445 11.3699 49.9059 10.9092 50.4723 10.9092H54.3465C54.9131 10.9092 55.3738 11.3701 55.3738 11.9365V13.1954C54.4806 12.9956 53.5557 12.8885 52.6098 12.8885C51.5256 12.8885 50.4652 13.0231 49.445 13.2818Z" fill="black"/>
<path d="M53.517 48.1206L51.6912 42.6839C51.587 42.3735 51.341 42.1314 51.0292 42.032C50.7174 41.9327 50.3767 41.9878 50.1121 42.1807C48.9966 42.9938 47.6764 43.4235 46.2943 43.4235C44.5145 43.4235 42.8535 42.7157 41.6172 41.4306C41.4234 41.2292 41.1562 41.1154 40.8768 41.1154H29.1233C28.844 41.1154 28.5765 41.2293 28.3829 41.4306C27.1466 42.7159 25.4855 43.4235 23.7057 43.4235C22.3236 43.4235 21.0033 42.9937 19.8879 42.1807C19.6235 41.988 19.2829 41.9327 18.9709 42.032C18.659 42.1314 18.4131 42.3735 18.309 42.6839L14.2282 54.8345C13.6706 56.4948 12.4856 57.8082 10.8911 58.5331C9.29659 59.258 7.52772 59.2873 5.91007 58.6161C3.20782 57.4945 1.65907 54.696 2.1436 51.8107L4.60249 37.1681C4.69641 36.6085 4.31907 36.0787 3.75948 35.9848C3.19921 35.8917 2.67011 36.2682 2.57618 36.8278L0.117293 51.4704C-0.526516 55.3045 1.53165 59.0234 5.12257 60.5138C6.13839 60.9354 7.22147 61.1457 8.30429 61.1455C9.47966 61.1455 10.6548 60.8978 11.7417 60.4037C13.8296 59.4545 15.4459 57.6629 16.1761 55.4887L19.8469 44.5588C21.0359 45.1633 22.3483 45.4784 23.7059 45.4784C25.8997 45.4784 27.9562 44.662 29.545 43.1702H40.4556C42.0443 44.6619 44.1008 45.4784 46.2946 45.4784C47.6522 45.4784 48.9646 45.1634 50.1536 44.5588L51.5695 48.7748C51.7501 49.3127 52.3324 49.6028 52.8705 49.4216C53.4081 49.2409 53.6976 48.6585 53.517 48.1206Z" fill="black"/>
<path d="M17.4728 19.2729C15.7044 19.2729 14.2657 20.7116 14.2657 22.48V22.7125H14.0332C12.2649 22.7125 10.8262 24.1512 10.8262 25.9195C10.8262 27.6878 12.2647 29.1265 14.0332 29.1265H14.2657V29.3591C14.2657 31.1274 15.7044 32.5661 17.4728 32.5661C19.2411 32.5661 20.6798 31.1274 20.6798 29.3591V29.1265H20.9123C22.6806 29.1265 24.1193 27.6878 24.1193 25.9195C24.1193 24.1512 22.6808 22.7125 20.9123 22.7125H20.6798V22.48C20.6796 20.7116 19.2411 19.2729 17.4728 19.2729ZM20.9123 24.7673C21.5477 24.7673 22.0646 25.2842 22.0646 25.9195C22.0646 26.5549 21.5477 27.0718 20.9123 27.0718H19.6523C19.0849 27.0718 18.625 27.5317 18.625 28.0991V29.3591C18.625 29.9946 18.1081 30.5114 17.4728 30.5114C16.8374 30.5114 16.3204 29.9944 16.3204 29.3591V28.0991C16.3204 27.5317 15.8604 27.0718 15.293 27.0718H14.0332C13.3979 27.0718 12.8809 26.5549 12.8809 25.9195C12.8809 25.2841 13.3979 24.7673 14.0332 24.7673H15.293C15.8604 24.7673 16.3204 24.3073 16.3204 23.74V22.48C16.3204 21.8445 16.8373 21.3277 17.4728 21.3277C18.1081 21.3277 18.625 21.8446 18.625 22.48V23.74C18.625 24.3073 19.0849 24.7673 19.6523 24.7673H20.9123Z" fill="black"/>
<path d="M53.2309 17.8699C51.5766 17.8699 50.2307 19.2158 50.2307 20.8701C50.2307 22.5244 51.5766 23.8702 53.2309 23.8702C54.8852 23.8702 56.231 22.5244 56.231 20.8701C56.231 19.2158 54.8852 17.8699 53.2309 17.8699ZM53.2309 21.8156C52.7096 21.8156 52.2855 21.3914 52.2855 20.8702C52.2855 20.3491 52.7096 19.9248 53.2309 19.9248C53.7522 19.9248 54.1763 20.3491 54.1763 20.8702C54.1763 21.3914 53.7522 21.8156 53.2309 21.8156Z" fill="black"/>
<path d="M53.2309 27.9688C51.5766 27.9688 50.2307 29.3147 50.2307 30.969C50.2307 32.6231 51.5766 33.969 53.2309 33.969C54.8852 33.969 56.231 32.6231 56.231 30.9688C56.231 29.3147 54.8852 27.9688 53.2309 27.9688ZM53.2309 31.9144C52.7096 31.9144 52.2855 31.4901 52.2855 30.969C52.2855 30.4477 52.7096 30.0236 53.2309 30.0236C53.7522 30.0236 54.1763 30.4478 54.1763 30.969C54.1763 31.4901 53.7522 31.9144 53.2309 31.9144Z" fill="black"/>
<path d="M61.2805 25.9195C61.2805 24.2652 59.9346 22.9194 58.2803 22.9194C56.626 22.9194 55.2802 24.2652 55.2802 25.9195C55.2802 27.5738 56.626 28.9197 58.2803 28.9197C59.9346 28.9197 61.2805 27.5738 61.2805 25.9195ZM57.3349 25.9195C57.3349 25.3982 57.759 24.9741 58.2803 24.9741C58.8016 24.9741 59.2257 25.3984 59.2257 25.9195C59.2257 26.4407 58.8016 26.8649 58.2803 26.8649C57.759 26.8649 57.3349 26.4408 57.3349 25.9195Z" fill="black"/>
<path d="M45.1813 25.9195C45.1813 27.5738 46.5271 28.9197 48.1814 28.9197C49.8357 28.9197 51.1814 27.5738 51.1814 25.9195C51.1814 24.2652 49.8356 22.9194 48.1814 22.9194C46.5271 22.9194 45.1813 24.2652 45.1813 25.9195ZM49.1268 25.9195C49.1268 26.4408 48.7027 26.8649 48.1814 26.8649C47.6601 26.8649 47.236 26.4407 47.236 25.9195C47.236 25.3984 47.6601 24.9741 48.1814 24.9741C48.7027 24.974 49.1268 25.3982 49.1268 25.9195Z" fill="black"/>
<path d="M31.9665 29.8977C32.5339 29.8977 32.9938 29.4378 32.9938 28.8704C32.9938 28.3031 32.5339 27.8431 31.9665 27.8431H28.8916C28.3242 27.8431 27.8643 28.3031 27.8643 28.8704C27.8643 29.4378 28.3242 29.8977 28.8916 29.8977H31.9665Z" fill="black"/>
<path d="M41.1085 27.8431H38.0335C37.4661 27.8431 37.0062 28.3031 37.0062 28.8704C37.0062 29.4378 37.4661 29.8977 38.0335 29.8977H41.1085C41.6759 29.8977 42.1358 29.4378 42.1358 28.8704C42.1358 28.3029 41.6759 27.8431 41.1085 27.8431Z" fill="black"/>
</svg>
