<svg width="55" height="55" viewBox="0 0 55 55" fill="none" xmlns="http://www.w3.org/2000/svg">
<circle cx="27.5" cy="19.5" r="8.5" fill="#FFCF00"/>
<path d="M47.8717 19.2018C49.6849 17.4508 50.8147 14.9969 50.8147 12.2842C50.8147 9.60429 49.6838 7.02595 47.7124 5.20944C47.3795 4.90275 46.862 4.92456 46.5552 5.25639C46.2486 5.58929 46.2704 6.10674 46.6022 6.41354C48.2385 7.92109 49.1773 10.0606 49.1773 12.2842C49.1773 18.1615 43.0258 21.975 37.8101 19.5094C37.6072 19.4136 37.4721 19.2141 37.4588 18.9902C37.3926 17.8788 36.9121 14.3437 33.5274 11.8774C33.3462 11.7454 33.2493 11.5253 33.2765 11.3027C33.8998 6.20052 39.2231 2.94037 44.0992 4.84818C44.5205 5.0119 44.9954 4.80457 45.1602 4.38316C45.3249 3.96174 45.1165 3.48693 44.6951 3.32322C39.004 1.09916 32.7883 4.69844 31.7323 10.5719C31.7094 10.6996 31.573 10.77 31.4528 10.7214C29.1347 9.78379 26.5433 9.797 24.2593 10.7217C24.1395 10.7701 24.0037 10.7001 23.9809 10.5729C23.1717 6.08375 19.2361 2.66602 14.5166 2.66602C14.5166 2.66602 14.5166 2.66602 14.5155 2.66602C10.4078 2.66602 6.75189 5.27605 5.41793 9.15892C5.27055 9.58678 5.49871 10.0519 5.92657 10.1992C6.35336 10.3455 6.81957 10.1184 6.96685 9.69055C8.07265 6.46811 11.1073 4.30345 14.5165 4.30345C18.584 4.30345 21.9507 7.36282 22.4361 11.3011C22.4634 11.523 22.3686 11.7428 22.1882 11.8748C19.886 13.5596 18.4379 16.1846 18.2599 18.988C18.2457 19.2112 18.1119 19.4104 17.9097 19.5061C12.8831 21.8862 6.78079 18.4471 6.5421 12.6138C6.52352 12.1619 6.14367 11.8126 5.69067 11.829C5.23875 11.8476 4.88834 12.2285 4.90585 12.6804C5.00521 15.1039 6.00069 17.3711 7.71568 19.0838C3.34254 19.8186 0 23.6305 0 28.2088V41.7492C0 43.5355 1.44815 44.9837 3.23447 44.9837H13.3406V49.1059C13.3406 50.8927 14.7893 52.3413 16.5762 52.3412L38.4991 52.3401C40.2414 52.3008 41.6594 50.8501 41.6594 49.1057V44.9837H51.7645C53.5514 44.9837 55 43.5351 55 41.7481V28.2088C55 23.8379 51.9522 20.1657 47.8717 19.2018ZM24.128 12.5866C29.1233 9.93461 35.3264 13.2534 35.8073 18.9562C35.804 18.9562 35.8018 18.9562 35.7996 18.9573H35.8073C35.8587 19.5464 35.8381 20.1491 35.7789 20.5937C35.7713 20.5947 35.7626 20.5947 35.7538 20.5947H35.7789C35.5709 22.7072 34.3037 24.949 32.2301 26.3115H32.2257V26.3147C30.5282 27.4293 28.5533 27.8057 26.7065 27.5373V27.5329C26.7054 27.534 26.7054 27.535 26.7054 27.5373C25.7589 27.4258 24.5317 27.0031 23.4819 26.3114C18.3788 22.9563 18.7811 15.4154 24.128 12.5866ZM38.4412 50.7038H16.5762C15.6936 50.7038 14.978 49.9884 14.978 49.1057V35.5663C14.978 33.8568 15.5315 32.2413 16.5783 30.8953C16.8556 30.5383 16.7912 30.0242 16.4343 29.7458C16.0773 29.4685 15.5632 29.5329 15.2847 29.8898C14.013 31.5262 13.3406 33.4889 13.3406 35.5662V43.3461H3.23447C2.35243 43.3461 1.63743 42.6311 1.63743 41.7491V28.2089C1.63743 24.0026 5.04732 20.5927 9.25364 20.5927H9.66625C12.1162 22.0268 15.0645 22.2794 17.6796 21.3666C18.029 21.2446 18.403 21.4537 18.4866 21.8141C18.8206 23.2548 19.4795 24.5725 20.3812 25.6859C20.6595 26.0296 20.4865 26.5434 20.061 26.6643C19.3337 26.8708 18.6323 27.1659 17.9757 27.5451C17.5838 27.7722 17.4495 28.2722 17.6754 28.664C17.9013 29.0559 18.4024 29.1902 18.7943 28.9643C20.6437 27.8947 22.332 27.9433 22.8667 27.951C22.9703 27.9525 23.0709 27.9812 23.1613 28.032C26.1236 29.6955 29.71 29.6332 32.5279 28.0453C32.6312 27.9871 32.7485 27.9561 32.8668 27.9632C36.8415 28.2012 40.022 31.5108 40.022 35.5663C40.0221 38.2997 40.0221 46.3726 40.0221 49.1058C40.022 49.9929 39.282 50.7038 38.4412 50.7038ZM53.3626 41.7492C53.3626 42.6302 52.6454 43.3463 51.7645 43.3463H41.6594V35.5663C41.6594 31.1944 38.6127 27.5211 34.53 26.5584C36.1034 25.0405 37.0573 23.103 37.3627 21.1036C40.097 22.3006 43.3372 22.1666 46.0258 20.5982C50.0953 20.7455 53.3626 24.1033 53.3626 28.2089V41.7492Z" fill="black"/>
</svg>
