<svg width="68" height="54" viewBox="0 0 68 54" fill="none" xmlns="http://www.w3.org/2000/svg">
<path d="M42 17.5V10L58 10.5V17.5H42Z" fill="#FFCF00"/>
<path d="M41.7424 18.9394H58.1818C58.8182 18.9394 59.2424 18.5152 59.2424 17.8788V9.92425C59.2424 9.28789 58.8182 8.86365 58.1818 8.86365H41.7424C41.1061 8.86365 40.6818 9.28789 40.6818 9.92425V17.8788C40.6818 18.4091 41.1061 18.9394 41.7424 18.9394ZM42.803 10.9849H57.1212V16.8182H42.803V10.9849Z" fill="black"/>
<path d="M41.7424 26.8939H58.1818C58.8182 26.8939 59.2424 26.4697 59.2424 25.8333C59.2424 25.197 58.8182 24.7727 58.1818 24.7727H41.7424C41.1061 24.7727 40.6818 25.197 40.6818 25.8333C40.6818 26.3636 41.1061 26.8939 41.7424 26.8939Z" fill="black"/>
<path d="M41.7424 34.7424H58.1818C58.8182 34.7424 59.2424 34.3182 59.2424 33.6818C59.2424 33.0455 58.8182 32.6212 58.1818 32.6212H41.7424C41.1061 32.6212 40.6818 33.0455 40.6818 33.6818C40.6818 34.3182 41.1061 34.7424 41.7424 34.7424Z" fill="black"/>
<path d="M31.6667 10.9849C32.303 10.9849 32.7273 10.5606 32.7273 9.92425C32.7273 9.28789 32.303 8.86365 31.6667 8.86365H15.2273C14.5909 8.86365 14.1667 9.28789 14.1667 9.92425C14.1667 10.5606 14.5909 10.9849 15.2273 10.9849H31.6667Z" fill="black"/>
<path d="M5 11L1.5 7L4.5 4.5L8 8.5L5 11Z" fill="#FFCF00"/>
<path d="M66.8788 5.89395H64.2273V2.71213C64.2273 2.18183 63.803 1.75758 63.2727 1.65152C54.3636 0.696977 44.9242 -0.469691 36.6515 2.60607C28.3788 -0.36363 18.9394 0.696977 10.0303 1.65152C9.5 1.75758 9.07576 2.18183 9.07576 2.71213V7.69698L5.25758 3.24243C4.83334 2.81819 4.19697 2.71213 3.77273 3.13637L0.484852 6.00001C0.0606095 6.42425 -0.0454511 7.06061 0.378791 7.48486C0.484852 7.59092 5.89394 13.9546 5.57576 13.5303V49.4849C5.57576 50.1212 6 50.5455 6.63637 50.5455H30.3939L31.2424 52.7727C31.3485 53.197 31.7727 53.4091 32.197 53.4091H41.4242C41.8485 53.4091 42.2727 53.0909 42.3788 52.7727L43.2273 50.5455H66.8788C67.5152 50.5455 67.9394 50.1212 67.9394 49.4849V7.06061C67.9394 6.42425 67.5152 5.89395 66.8788 5.89395ZM12.6818 44.2879L11.6212 41.2121C18.9394 40.6818 28.5909 40.7879 35.5909 43.1212V44.3939H12.6818V44.2879ZM6.42425 11.303L8.12122 9.81819L22.0152 26.0455C21.9091 26.1515 20.2121 27.6364 20.3182 27.5303C15.4394 21.803 11.7273 17.4546 6.42425 11.303ZM23.8182 29.8636L22.1212 28.9091L23.1818 28.0606L23.8182 29.8636ZM37.8182 43.0152C44.9242 40.7879 54.1515 40.6818 61.5758 41.1061L59.8788 44.1818H37.8182V43.0152ZM62.1061 3.66667V39.0909C54.7879 38.5606 44.8182 38.6667 37.7121 40.7879V4.51516C45.0303 1.9697 53.4091 2.81819 62.1061 3.66667ZM11.303 3.66667C20.1061 2.71213 28.3788 1.9697 35.697 4.51516V40.7879C30.3939 39.197 25.0909 38.8788 19.7879 38.8788C18.0909 38.8788 13 38.9849 11.303 39.0909V20.2121L19.4697 29.7576C19.6818 29.9697 19.5758 29.8636 25.4091 33.1515C25.8333 33.3636 26.2576 33.3636 26.5758 33.0455C26.8939 32.7273 27 32.303 26.8939 31.8788C24.9849 26.8939 24.6667 25.8333 24.4545 25.5152L18.8333 18.9394H31.7727C32.4091 18.9394 32.8333 18.5152 32.8333 17.8788C32.8333 17.2424 32.4091 16.8182 31.7727 16.8182H16.9242L11.197 10.2424V3.66667H11.303ZM4.30303 5.36364L6.74243 8.22728L5.04546 9.71213L2.60606 6.84849L4.30303 5.36364ZM65.8182 48.3182H42.4849C42.0606 48.3182 41.6364 48.6364 41.5303 48.9546L40.6818 51.1818H32.9394L32.0909 48.9546C31.9849 48.5303 31.5606 48.3182 31.1364 48.3182H7.59091V15.8636L9.18182 17.6667V40.2576V40.5758L10.8788 45.6667C10.9849 46.0909 11.4091 46.4091 11.9394 46.4091H60.5152C60.9394 46.4091 61.2576 46.197 61.4697 45.8788L64.2273 40.7879C64.2273 40.7879 64.3333 40.3636 64.3333 40.2576V8.01516H65.8182V48.3182Z" fill="black"/>
</svg>
