<svg width="66" height="66" viewBox="0 0 66 66" fill="none" xmlns="http://www.w3.org/2000/svg">
<path d="M13.5 38.5V12.5H23V38.5H13.5Z" fill="#FFCF00"/>
<path d="M43 28V2H52.5V28H43Z" fill="#FFCF00"/>
<path d="M33 38V19H42V38H33Z" fill="#FFCF00"/>
<path d="M33 14V8H42V14H33Z" fill="#FFCF00"/>
<path d="M23 38V32H32V38H23Z" fill="#FFCF00"/>
<path d="M23 28V5H33V28H23Z" fill="#FFCF00"/>
<path d="M43 38V32H53V38H43Z" fill="#FFCF00"/>
<path d="M13 7V1H23V7H13Z" fill="#FFCF00"/>
<path d="M13.3104 0.181903C13.0203 0.183061 12.7425 0.299449 12.5382 0.505365C12.3339 0.711281 12.2198 0.989883 12.2209 1.27996V11.1237H3.46875C1.66984 11.1237 0.187528 12.606 0.187496 14.4049V16.5924C0.166496 18.0717 2.39605 18.0717 2.375 16.5924V14.4049C2.37501 13.7801 2.84396 13.3111 3.46875 13.3111H12.2209V15.4987H5.65625C5.05221 15.4988 4.56256 15.9884 4.5625 16.5924V47.2174C4.56256 47.8214 5.05221 48.3111 5.65625 48.3112H60.3437C60.9478 48.3111 61.4374 47.8214 61.4375 47.2174V16.5924C61.4374 15.9884 60.9478 15.4987 60.3437 15.4987H53.7855V13.3111H62.5312C63.156 13.3111 63.625 13.7801 63.625 14.4049V53.78C63.625 54.4048 63.1561 54.8736 62.5312 54.8736H3.46875C2.84392 54.8736 2.375 54.4048 2.375 53.78V26.4362C2.396 24.957 0.166441 24.957 0.187496 26.4362V53.78C0.187496 55.5789 1.66989 57.0612 3.46875 57.0612H26.3029C26.0389 58.3724 25.2275 60.7531 22.6756 63.6215H19.8729C19.2669 63.6215 18.7791 64.1093 18.7791 64.7153C18.7791 65.3212 19.2669 65.809 19.8729 65.809H46.1229C46.7288 65.809 47.2166 65.3212 47.2166 64.7153C47.2166 64.1093 46.7288 63.6215 46.1229 63.6215H43.3244C40.6997 60.6375 39.9026 58.3318 39.6608 57.0612H62.5312C64.3301 57.0612 65.8125 55.5789 65.8125 53.78V14.4049C65.8125 12.606 64.3301 11.1237 62.5312 11.1237H53.7855V1.27996C53.7861 1.13561 53.758 0.992573 53.7031 0.859105C53.6481 0.725636 53.5672 0.604409 53.4651 0.502337C53.3631 0.400265 53.2418 0.319395 53.1083 0.264408C52.9749 0.209422 52.8318 0.181352 52.6875 0.181903H42.8459C42.7013 0.18107 42.5581 0.208918 42.4244 0.263778C42.2907 0.318638 42.1691 0.39948 42.0668 0.501581C41.9645 0.603681 41.8835 0.724992 41.8284 0.8586C41.7733 0.992209 41.7452 1.13543 41.7457 1.27996V6.74652H34.0916V4.55899C34.0924 3.99641 33.6675 3.52532 33.0513 3.46951H24.25V1.27996C24.2505 1.13561 24.2225 0.992573 24.1675 0.859105C24.1126 0.725636 24.0317 0.604409 23.9296 0.502337C23.8275 0.400265 23.7063 0.319395 23.5728 0.264408C23.4393 0.209422 23.2963 0.181352 23.152 0.181903H13.3104ZM14.4084 2.37158H22.0625V6.74652H14.4084V2.37158ZM43.9354 2.37158H51.598V26.4405H43.9354V2.37158ZM24.25 5.65704H31.9041V26.4405H24.25V5.65704ZM14.4084 8.9362H22.0625V11.1237H14.4084V8.9362ZM34.0916 8.9362H41.7457V13.3154H34.0916V8.9362ZM14.4084 13.3111H22.0625V37.3715H14.4084V13.3111ZM34.0916 15.503H41.7457V17.6819H34.0916V15.503ZM6.74999 17.6862H12.2209V37.3715H10.0334C9.88885 37.3707 9.74559 37.3985 9.61187 37.4534C9.47816 37.5082 9.35664 37.5891 9.25434 37.6912C9.15204 37.7933 9.07099 37.9146 9.01588 38.0482C8.96076 38.1818 8.93266 38.325 8.93322 38.4695V42.8468C8.93379 42.9906 8.96272 43.1328 9.01834 43.2655C9.07396 43.3981 9.15519 43.5184 9.25738 43.6196C9.35956 43.7208 9.4807 43.8008 9.61385 43.8551C9.74701 43.9094 9.88957 43.9371 10.0334 43.9362H55.9645C56.2545 43.9373 56.5332 43.8231 56.7391 43.6188C56.945 43.4145 57.0613 43.1368 57.0625 42.8468V38.4695C57.063 38.3252 57.035 38.1822 56.98 38.0487C56.925 37.9152 56.8442 37.794 56.7421 37.6919C56.64 37.5898 56.5188 37.509 56.3853 37.454C56.2518 37.399 56.1088 37.3709 55.9645 37.3715H53.7855V17.6862H59.25V46.1236H6.74999V17.6862ZM1.26416 19.8587C0.660936 19.867 0.179238 20.3643 0.187496 20.9675V22.0611C0.166496 23.5404 2.39605 23.5404 2.375 22.0611V20.9675C2.38376 20.3509 1.88076 19.8491 1.26416 19.8587ZM34.0916 19.8711H41.7457V37.3734H34.0916V19.8711ZM24.25 28.6294H31.9041V30.8084H24.25V28.6294ZM43.9354 28.6294H51.598V30.8084H43.9354V28.6294ZM24.25 32.9959H31.9041V37.373H24.25V32.9959ZM43.9354 32.9959H51.598V37.373H43.9354V32.9959ZM11.1229 39.559H54.875V41.7487H11.1229V39.559ZM30.8104 50.4966C30.2044 50.4966 29.7166 50.9844 29.7166 51.5903C29.7166 52.1962 30.2044 52.6841 30.8104 52.6841H35.1854C35.7913 52.6841 36.2791 52.1962 36.2791 51.5903C36.2791 50.9844 35.7913 50.4966 35.1854 50.4966H30.8104ZM28.5545 57.0612H37.454C37.6387 58.3776 38.2764 60.7684 40.4853 63.6215H25.5082C27.7404 60.7729 28.375 58.3791 28.5545 57.0612Z" fill="black"/>
</svg>
