<svg width="53" height="55" viewBox="0 0 53 55" fill="none" xmlns="http://www.w3.org/2000/svg">
<rect x="39" y="17" width="9" height="36" fill="#FFCF00"/>
<rect x="22" y="33" width="9" height="21" fill="#FFCF00"/>
<rect x="5" y="42" width="9" height="12" fill="#FFCF00"/>
<path d="M51.4647 52.8516H49.1087V18.6416C49.1087 17.0492 47.8131 15.7538 46.2209 15.7538H40.9547C39.3624 15.7538 38.067 17.0494 38.067 18.6416V52.8516H32.0844V34.1414C32.0844 32.549 30.789 31.2536 29.1967 31.2536H23.9305C22.3382 31.2536 21.0428 32.5492 21.0428 34.1414V52.8516H15.0602V43.1617C15.0602 41.5694 13.7647 40.274 12.1725 40.274H6.90614C5.31383 40.274 4.01843 41.5695 4.01843 43.1617V52.8516H1.53526C0.941972 52.8516 0.461044 53.3325 0.461044 53.9258C0.461044 54.5191 0.941972 55 1.53526 55H51.4647C52.058 55 52.539 54.5191 52.539 53.9258C52.539 53.3325 52.058 52.8516 51.4647 52.8516ZM12.9116 52.8516H6.16676V43.1617C6.16676 42.754 6.49837 42.4224 6.90603 42.4224H12.1723C12.58 42.4224 12.9116 42.754 12.9116 43.1617V52.8516ZM29.9359 52.8516H23.1911V34.1414C23.1911 33.7337 23.5227 33.4021 23.9304 33.4021H29.1966C29.6042 33.4021 29.9359 33.7337 29.9359 34.1414V52.8516ZM46.9602 52.8516H40.2154V18.6416C40.2154 18.2339 40.547 17.9023 40.9547 17.9023H46.2209C46.6286 17.9023 46.9602 18.2339 46.9602 18.6416V52.8516Z" fill="black"/>
<path d="M49.1061 1.12965C49.1211 0.836494 49.018 0.538398 48.7941 0.314531C48.5703 0.090664 48.2722 -0.0125684 47.979 0.00257813C47.9617 0.00182617 47.9446 0 47.927 0H41.428C40.8347 0 40.3538 0.480928 40.3538 1.07422C40.3538 1.66751 40.8347 2.14844 41.428 2.14844H45.441L34.8215 12.7679L30.8169 8.76326C30.6154 8.56185 30.3422 8.44862 30.0573 8.44862C29.7724 8.44862 29.4991 8.56185 29.2977 8.76326L9.98658 28.0745C9.5671 28.494 9.5671 29.1742 9.98658 29.5938C10.1964 29.8033 10.4713 29.9082 10.7462 29.9082C11.0211 29.9082 11.2961 29.8033 11.5057 29.5935L30.0573 11.0419L34.062 15.0466C34.4814 15.4661 35.1616 15.4661 35.5812 15.0466L46.9602 3.66771V7.29964C46.9602 7.89293 47.4412 8.37386 48.0344 8.37386C48.6277 8.37386 49.1087 7.89293 49.1087 7.29964V1.18164C49.1087 1.16413 49.1068 1.14705 49.1061 1.12965Z" fill="black"/>
<path d="M7.1254 33.6564C7.71867 33.6564 8.19962 33.1754 8.19962 32.5822C8.19962 31.9889 7.71867 31.5079 7.1254 31.5079C6.53212 31.5079 6.05118 31.9889 6.05118 32.5822C6.05118 33.1754 6.53212 33.6564 7.1254 33.6564Z" fill="black"/>
</svg>
