<svg width="65" height="63" viewBox="0 0 65 63" fill="none" xmlns="http://www.w3.org/2000/svg">
<circle cx="49" cy="47" r="14" fill="#FFCF00"/>
<path d="M5.89484 55.9306H32.473V53.8857H5.89484C4.20123 53.8857 2.82815 52.5126 2.82815 50.819V5.84079C2.82815 4.14667 4.20123 2.77411 5.89484 2.77411H50.8731C52.5674 2.77411 53.9398 4.14667 53.9398 5.84079V29.352H55.9846V5.84079C55.9813 3.01931 53.6948 0.733067 50.8731 0.729736H5.89484C3.07387 0.733067 0.78737 3.01931 0.783783 5.84079V50.819C0.78737 53.6405 3.07387 55.9268 5.89484 55.9306Z" fill="#373435"/>
<path d="M4.87305 4.81897H6.91716V6.86309H4.87305V4.81897Z" fill="#373435"/>
<path d="M8.96152 4.81897H11.0064V6.86309H8.96152V4.81897Z" fill="#373435"/>
<path d="M13.0505 4.81897H15.0952V6.86309H13.0505V4.81897Z" fill="#373435"/>
<path d="M4.87305 8.90747H51.8954V10.9524H4.87305V8.90747Z" fill="#373435"/>
<path d="M15.3947 13.296L12.7981 15.8925C10.6034 14.4395 7.66428 14.8853 5.9986 16.9238C4.33318 18.962 4.48255 21.9311 6.34373 23.792C8.20465 25.6537 11.174 25.8031 13.2124 24.1374C15.2507 22.472 15.6967 19.5324 14.2435 17.3381L16.8397 14.7416L15.3947 13.296ZM9.98358 23.2186C8.29022 23.2186 6.91715 21.8458 6.91715 20.1522C6.91715 18.4583 8.29022 17.0858 9.98358 17.0858C10.4396 17.0873 10.8883 17.1918 11.2975 17.3919L9.26129 19.4284L10.7064 20.874L12.7441 18.8388C12.9442 19.2477 13.049 19.6964 13.0505 20.1522C13.0505 21.8458 11.678 23.2186 9.98358 23.2186Z" fill="#373435"/>
<path d="M18.1618 17.0858H35.5394V19.1299H18.1618V17.0858Z" fill="#373435"/>
<path d="M18.1618 21.1745H25.3173V23.2186H18.1618V21.1745Z" fill="#373435"/>
<path d="M27.3619 21.1745H41.6728V23.2186H27.3619V21.1745Z" fill="#373435"/>
<path d="M37.584 17.0858H47.8064V19.1299H37.584V17.0858Z" fill="#373435"/>
<path d="M15.3947 25.5627L12.7981 28.1593C10.6034 26.7062 7.66428 27.1521 5.9986 29.1905C4.33318 31.229 4.48255 34.1978 6.34373 36.0593C8.20465 37.9204 11.174 38.0698 13.2124 36.4041C15.2507 34.7385 15.6967 31.7999 14.2435 29.6049L16.8397 27.0083L15.3947 25.5627ZM9.98358 35.4856C8.29022 35.4856 6.91715 34.1125 6.91715 32.4189C6.91715 30.725 8.29022 29.352 9.98358 29.352C10.4396 29.3538 10.8883 29.4586 11.2975 29.6587L9.26129 31.6956L10.7064 33.1407L12.7441 31.1053C12.9442 31.5145 13.049 31.9631 13.0505 32.4189C13.0505 34.1125 11.678 35.4856 9.98358 35.4856Z" fill="#373435"/>
<path d="M18.1618 29.352H35.5394V31.3966H18.1618V29.352Z" fill="#373435"/>
<path d="M18.1618 33.4412H25.3173V35.4856H18.1618V33.4412Z" fill="#373435"/>
<path d="M27.3619 33.4412H35.5394V35.4856H27.3619V33.4412Z" fill="#373435"/>
<path d="M37.584 29.352H41.6728V31.3966H37.584V29.352Z" fill="#373435"/>
<path d="M15.3947 37.8295L12.7981 40.426C10.6034 38.973 7.66428 39.4188 5.9986 41.4573C4.33318 43.4958 4.48255 46.4646 6.34373 48.326C8.20465 50.1875 11.174 50.3363 13.2124 48.6709C15.2507 47.0052 15.6967 44.0664 14.2435 41.8714L16.8397 39.2751L15.3947 37.8295ZM9.98358 47.7524C8.29022 47.7524 6.91715 46.3793 6.91715 44.6857C6.91715 42.9918 8.29022 41.619 9.98358 41.619C10.4396 41.6205 10.8883 41.7251 11.2975 41.9254L9.26129 43.9624L10.7064 45.4074L12.7441 43.372C12.9442 43.7812 13.049 44.2301 13.0505 44.6857C13.0505 46.3793 11.678 47.7524 9.98358 47.7524Z" fill="#373435"/>
<path d="M18.1618 41.619H31.4506V43.6638H18.1618V41.619Z" fill="#373435"/>
<path d="M18.1618 45.708H25.3173V47.7523H18.1618V45.708Z" fill="#373435"/>
<path d="M27.3619 45.708H31.4507V47.7523H27.3619V45.708Z" fill="#373435"/>
<path d="M48.829 62.064C57.2978 62.064 64.1621 55.1983 64.1621 46.7303C64.1621 38.2615 57.2978 31.3966 48.829 31.3966C40.3601 31.3966 33.4953 38.2615 33.4953 46.7303C33.5053 55.1945 40.3642 62.0537 48.829 62.064ZM48.829 33.4412C56.1678 33.4412 62.118 39.3909 62.118 46.7303C62.118 54.0697 56.1678 60.0191 48.829 60.0191C41.4893 60.0191 35.5394 54.0697 35.5394 46.7303C35.5481 39.3945 41.4926 33.4494 48.829 33.4412Z" fill="#373435"/>
<path d="M42.5933 47.2952L40.7634 48.2089L42.8081 52.2979C42.9546 52.5921 43.2344 52.7978 43.559 52.8503C43.6118 52.8585 43.6646 52.8629 43.7176 52.8637C43.9885 52.8637 44.2485 52.7558 44.4407 52.5641L56.7069 40.2974L55.2618 38.8518L43.9974 50.1157L42.5933 47.2952Z" fill="#373435"/>
</svg>
