<svg width="70" height="70" viewBox="0 0 70 70" fill="none" xmlns="http://www.w3.org/2000/svg">
<path d="M58 52H48V62H58V52Z" fill="#FFCF00"/>
<path d="M16.7882 15C26 15.5 28.5 9.99998 32.8824 15C32.8824 15 34.5147 9.38258 32 5.99998C29.4853 2.61738 19.7882 2.69782 18 5.99998C16.2117 9.30214 16.7882 15 16.7882 15Z" fill="#FFCF00"/>
<path d="M24.0647 2.18817C19.2361 2.18817 15.3126 6.11173 15.3126 10.9403V15.0481C14.6473 15.6505 14.2188 16.5401 14.2188 17.4985C14.2188 19.4964 15.8256 20.8168 17.5748 20.7755C17.8113 22.4192 18.5786 23.899 19.6876 25.033V29.5298C15.8266 29.5298 12.501 31.7578 10.8906 34.9987H8.75005C6.95116 34.9987 5.4688 36.4809 5.4688 38.2798V42.6548C5.44813 44.1339 7.67724 44.1339 7.65632 42.6548V38.2798C7.65632 37.655 8.12518 37.1861 8.75005 37.1861H41.5626C42.1874 37.1861 42.6563 37.655 42.6563 38.2798V56.8715H7.65632V52.4985C7.66459 51.8819 7.16207 51.3803 6.54547 51.3899C5.94225 51.3982 5.46054 51.8953 5.4688 52.4985V59.061C5.4688 59.8599 5.70113 60.6019 6.07975 61.2486H3.28129C2.67725 61.2464 2.18569 61.734 2.1833 62.338V66.7152C2.18111 67.3226 2.6739 67.8155 3.28129 67.8132H66.7188C67.3229 67.811 67.8106 67.3193 67.8083 66.7152V62.338C67.8059 61.7373 67.3195 61.2509 66.7188 61.2486H59.0327C59.5172 60.609 59.8794 59.8744 60.0452 59.061H61.2543C63.0532 59.061 64.5313 57.5809 64.5313 55.782V53.5945C64.5335 52.9904 64.0459 52.4989 63.4418 52.4965H60.1563V51.4069C60.1585 50.8021 59.6696 50.3102 59.0647 50.309H48.125C47.521 50.3112 47.0333 50.8029 47.0356 51.4069V57.9715C47.0356 59.2061 47.4646 60.3318 48.1592 61.2486H44.2329C44.6115 60.6019 44.8438 59.8599 44.8438 59.061V38.2798C44.8438 36.4809 43.3615 34.9987 41.5626 34.9987H39.422C37.8116 31.7578 34.486 29.5298 30.6251 29.5298V25.033C31.6192 24.0984 32.491 22.5123 32.7335 20.7841C34.8417 20.7835 36.0938 19.1399 36.0938 17.4985C36.0938 16.538 35.6808 15.6338 35.0001 15.0526L34.9959 10.9403C34.9918 6.11173 31.0809 2.18817 26.2523 2.18817H24.0647ZM24.0647 4.37571H26.2522C29.9067 4.37571 32.8083 7.28579 32.8083 10.9403V14.2173H32.1717L29.2087 11.2543C28.7821 10.8302 28.093 10.8302 27.6664 11.2543C27.6664 11.2543 24.6073 14.2173 20.7792 14.2173H17.5001V10.9403C17.5001 7.28579 20.4101 4.37571 24.0647 4.37571ZM28.3773 13.5183L30.6251 15.764V19.686C30.6251 22.7347 28.2049 25.1549 25.1563 25.1549C22.1077 25.1549 19.6875 22.7347 19.6875 19.686V16.407H20.7792C24.5249 16.407 27.2331 14.3913 28.3773 13.5183ZM17.5001 18.5924C16.8752 18.5924 16.4063 18.0852 16.4063 17.4985C16.4063 16.9119 16.8703 16.4128 17.4947 16.407L17.5001 18.5924ZM33.9063 17.4985C33.9063 18.0978 33.4374 18.5924 32.8125 18.5924L32.8167 16.407C33.441 16.4111 33.905 16.9032 33.905 17.4985H33.9063ZM21.8751 26.5925C22.8712 27.0677 23.9808 27.3423 25.1563 27.3423C26.3318 27.3423 27.4413 27.0679 28.4376 26.5925V29.5298C28.4376 29.5298 28.4292 31.7174 25.1563 31.7174C21.8815 31.7174 21.8751 29.5298 21.8751 29.5298V26.5925ZM20.3861 31.7174C20.3861 31.7174 21.4462 33.9048 25.1563 33.9048C28.8664 33.9048 29.9265 31.7174 29.9265 31.7174H30.6251C33.244 31.7174 35.5168 33.0203 36.8949 34.9987H13.4177C14.7958 33.0203 17.0686 31.7174 19.6875 31.7174H20.3861ZM51.3871 41.5483C50.7855 41.5607 50.3055 42.0532 50.3126 42.6548V47.0298C50.2795 48.52 52.5322 48.52 52.5 47.0298V42.6548C52.5083 42.0381 52.0036 41.5374 51.3871 41.5483ZM55.7621 41.5483C55.1614 41.5607 54.6826 42.054 54.6897 42.6548V47.0298C54.6566 48.5213 56.9107 48.5213 56.8772 47.0298V42.6548C56.8854 42.0373 56.3795 41.5362 55.7621 41.5483ZM25.1542 43.7528C23.3549 43.7528 21.8772 45.2392 21.8772 47.0384C21.8772 48.8376 23.3549 50.3176 25.1542 50.3176C26.9534 50.3176 28.4418 48.8376 28.4418 47.0384C28.4418 45.2392 26.9534 43.7528 25.1542 43.7528ZM6.54547 45.9211C5.94225 45.9293 5.46054 46.4266 5.4688 47.0298V48.1236C5.44813 49.6027 7.67724 49.6027 7.65632 48.1236V47.0298C7.66459 46.4132 7.16207 45.9115 6.54547 45.9211ZM25.1542 45.9417C25.7712 45.9417 26.2522 46.4228 26.2522 47.0398C26.2522 47.6568 25.7712 48.1293 25.1542 48.1293C24.5371 48.1293 24.0647 47.6568 24.0647 47.0398C24.0647 46.4228 24.5371 45.9417 25.1542 45.9417ZM49.2145 52.4979H57.9667V57.9731C57.9667 59.8098 56.5265 61.2499 54.6897 61.2499H52.5C50.6633 61.2499 49.2145 59.8098 49.2145 57.9731V52.4979ZM60.1563 54.6854H62.3438V55.7834C62.3438 56.4082 61.8792 56.8729 61.2543 56.8729H60.1563V54.6854ZM7.65632 59.0625H42.6563C42.6563 60.2933 41.6996 61.2499 40.4688 61.2499H9.84379C8.61298 61.2499 7.65632 60.2933 7.65632 59.0625ZM4.37292 63.4375H65.6208V65.6272H4.37292V63.4375Z" fill="black"/>
</svg>
