<svg width="100" height="78" viewBox="0 0 100 78" fill="none" xmlns="http://www.w3.org/2000/svg">
<circle cx="74" cy="51.4172" r="26" fill="#FFCF00"/>
<path d="M51.36 72.7423C45.2453 74.127 38.9905 74.797 32.7212 74.7388C14.9672 74.7388 4.06689 70.3044 4.06689 67.1241V64.8326C9.45621 68.6751 21.1279 70.6674 32.7212 70.6674C37.6945 70.6841 42.6609 70.2958 47.5712 69.5063C47.9686 69.4308 48.3205 69.2026 48.5517 68.8707C48.7829 68.5389 48.8749 68.1297 48.808 67.7308C48.7411 67.3319 48.5207 66.9751 48.1939 66.7367C47.8671 66.4984 47.46 66.3976 47.0597 66.4558C42.3165 67.2177 37.519 67.5916 32.715 67.5737C14.961 67.5737 4.06071 63.1393 4.06071 59.9589C4.06071 58.8246 5.59933 57.4839 8.21458 56.2959C12.9769 60.7056 25.4963 62.9991 37.929 62.9991C39.9668 62.9991 42.0086 62.9372 43.9928 62.8176C44.4009 62.7905 44.7817 62.6032 45.0522 62.2964C45.3227 61.9896 45.4608 61.5882 45.4365 61.1799C45.4003 60.7754 45.2103 60.4001 44.9056 60.1315C44.601 59.8629 44.2048 59.7214 43.7989 59.7362C41.8746 59.8517 39.8966 59.9115 37.9208 59.9115C22.4211 59.9115 12.1498 56.5311 9.79033 53.5569C9.76146 53.5198 9.74289 53.4744 9.71196 53.4394C9.44812 53.1143 9.29301 52.7147 9.26852 52.2968V50.0074C14.6578 53.8478 26.3295 55.8422 37.9208 55.8422C39.4594 55.8422 40.9719 55.8085 42.4583 55.7411C42.8685 55.7223 43.2545 55.5412 43.5312 55.2377C43.808 54.9343 43.9529 54.5334 43.934 54.1231C43.9151 53.7128 43.734 53.3269 43.4306 53.0501C43.1272 52.7734 42.7262 52.6285 42.316 52.6474C40.8866 52.7113 39.4285 52.7443 37.929 52.7443C20.1771 52.7443 9.27677 48.3099 9.27677 45.1296C9.27677 44.3334 10.1203 43.3868 11.5455 42.4813C18.4605 44.2628 25.581 45.1207 32.7212 45.0326C36.3889 45.0368 40.0538 44.8302 43.6978 44.4139C43.9014 44.3928 44.0988 44.3316 44.2786 44.2337C44.4583 44.1358 44.6168 44.0032 44.745 43.8435C44.8731 43.6839 44.9683 43.5005 45.025 43.3038C45.0817 43.1071 45.0988 42.9012 45.0753 42.6978C45.0519 42.4945 44.9883 42.2978 44.8883 42.1193C44.7882 41.9407 44.6538 41.7837 44.4926 41.6575C44.3315 41.5313 44.1469 41.4383 43.9496 41.3839C43.7523 41.3295 43.5461 41.3149 43.3431 41.3408C39.8167 41.7408 36.2702 41.9384 32.7212 41.9327C25.6862 42.0629 18.6682 41.1978 11.8755 39.3628C11.8005 39.3332 11.7233 39.3098 11.6445 39.2927C6.76258 37.7912 4.06689 35.904 4.06689 34.3241V32.0409C9.45621 35.8813 21.1279 37.8861 32.7212 37.8861C37.6889 37.9034 42.6498 37.5164 47.5547 36.729C47.9595 36.6612 48.3208 36.4353 48.559 36.1011C48.7973 35.7669 48.893 35.3518 48.8252 34.947C48.7574 34.5422 48.5315 34.181 48.1973 33.9427C47.8631 33.7044 47.448 33.6087 47.0432 33.6765C42.3074 34.4368 37.5176 34.81 32.7212 34.7923C14.9672 34.7923 4.06689 30.3476 4.06689 27.1611C4.06689 25.9236 6.11289 23.9333 11.6981 22.2111C16.7265 26.3979 28.9221 28.5718 41.031 28.5718C56.8071 28.5718 72.777 24.8944 72.777 17.8654V10.7085C72.777 3.67744 56.8071 0 41.031 0C25.255 0 9.28708 3.68775 9.28708 10.7188V17.8798C9.30094 18.4823 9.43413 19.0761 9.67896 19.6268C3.99265 21.5593 0.973145 24.1436 0.973145 27.1611V34.3179C0.973145 37.2219 3.72452 39.5443 8.03514 41.2809C7.47843 41.7598 7.02698 42.3488 6.70927 43.0109C6.39156 43.6729 6.21448 44.3936 6.18921 45.1275V52.2844C6.19463 52.7761 6.2796 53.2636 6.44083 53.7281C1.99821 55.8938 0.973145 58.2718 0.973145 59.9548V67.1117C0.973145 74.1428 16.9431 77.8202 32.7212 77.8202C39.239 77.8876 45.7421 77.1877 52.0963 75.735C52.2936 75.6867 52.4795 75.5999 52.6433 75.4798C52.8071 75.3596 52.9456 75.2083 53.0509 75.0346C53.1563 74.8609 53.2264 74.6681 53.2572 74.4673C53.2881 74.2665 53.2791 74.0616 53.2307 73.8643C53.1824 73.667 53.0956 73.4811 52.9754 73.3174C52.8553 73.1536 52.704 73.015 52.5303 72.9097C52.3566 72.8044 52.1638 72.7343 51.963 72.7034C51.7622 72.6726 51.5573 72.6816 51.36 72.7299V72.7423ZM41.0331 25.4884C23.2811 25.4884 12.3808 21.054 12.3808 17.8757V15.5904C17.7681 19.4329 29.4418 21.4253 41.0331 21.4253C52.6243 21.4253 64.296 19.4329 69.6812 15.5904V17.8798C69.6812 21.054 58.785 25.4884 41.0331 25.4884ZM41.0331 3.10406C58.785 3.10406 69.6853 7.53844 69.6853 10.7188C69.6853 13.8992 58.785 18.3315 41.0331 18.3315C23.2811 18.3315 12.3808 13.8971 12.3808 10.7188C12.3808 7.5405 23.275 3.10406 41.0331 3.10406Z" fill="black"/>
<path d="M73.8063 25.4883C68.6305 25.4879 63.5708 27.0223 59.267 29.8975C54.9633 32.7728 51.6088 36.8597 49.6279 41.6414C47.6469 46.4231 47.1283 51.6849 48.1378 56.7613C49.1473 61.8378 51.6395 66.5008 55.2993 70.1608C58.959 73.8208 63.6218 76.3134 68.6982 77.3233C73.7745 78.3332 79.0363 77.8151 83.8182 75.8345C88.6001 73.8539 92.6873 70.4997 95.5629 66.1962C98.4384 61.8927 99.9733 56.8331 99.9733 51.6573C99.9667 44.7192 97.2078 38.0671 92.302 33.161C87.3963 28.2548 80.7444 25.4954 73.8063 25.4883ZM73.8063 74.7305C69.2423 74.7309 64.7807 73.3778 60.9856 70.8424C57.1906 68.3071 54.2327 64.7032 52.4859 60.4867C50.7391 56.2702 50.282 51.6303 51.1723 47.154C52.0626 42.6776 54.2603 38.5658 57.4876 35.3386C60.7149 32.1113 64.8267 29.9135 69.303 29.0233C73.7794 28.133 78.4192 28.5901 82.6357 30.3369C86.8523 32.0836 90.4561 35.0416 92.9915 38.8366C95.5269 42.6316 96.8799 47.0933 96.8795 51.6573C96.8724 57.7745 94.4392 63.6391 90.1137 67.9647C85.7882 72.2902 79.9235 74.7234 73.8063 74.7305Z" fill="black"/>
<path d="M76.0275 51.1726V41.0664C79.7214 41.5366 80.2371 43.6342 80.2886 43.9209C80.3433 44.3276 80.5573 44.6959 80.8836 44.9448C81.2099 45.1937 81.6216 45.3028 82.0283 45.2481C82.435 45.1934 82.8034 44.9794 83.0523 44.6531C83.3012 44.3269 83.4103 43.9151 83.3556 43.5084C83.3267 43.3021 82.644 38.5934 76.0275 37.952V35.4502C76.0275 35.0399 75.8645 34.6465 75.5744 34.3564C75.2843 34.0663 74.8909 33.9033 74.4806 33.9033C74.0704 33.9033 73.6769 34.0663 73.3868 34.3564C73.0967 34.6465 72.9337 35.0399 72.9337 35.4502V38.0036C70.9327 38.1679 69.0523 39.0275 67.6187 40.4332C66.9533 41.157 66.447 42.0122 66.1322 42.9436C65.8175 43.875 65.7014 44.862 65.7913 45.8411C66.0615 50.1909 69.5512 52.1998 72.9255 53.4104V63.4218C71.7127 63.3583 70.5579 62.8824 69.6525 62.0729C68.747 61.2635 68.1452 60.1691 67.9466 58.9709C67.9159 58.7701 67.8459 58.5773 67.7406 58.4035C67.6354 58.2297 67.4969 58.0784 67.3332 57.9581C67.1694 57.8378 66.9836 57.751 66.7863 57.7025C66.5889 57.6541 66.384 57.645 66.1832 57.6757C65.9823 57.7064 65.7895 57.7764 65.6157 57.8817C65.442 57.987 65.2906 58.1254 65.1703 58.2892C65.0501 58.4529 64.9632 58.6387 64.9148 58.8361C64.8663 59.0334 64.8572 59.2383 64.8879 59.4391C65.2447 61.7615 66.7813 65.6122 72.9317 66.5651V69.8094C72.9317 70.2196 73.0947 70.6131 73.3847 70.9032C73.6748 71.1933 74.0683 71.3563 74.4786 71.3563C74.8888 71.3563 75.2823 71.1933 75.5724 70.9032C75.8625 70.6131 76.0254 70.2196 76.0254 69.8094V66.7156C77.8038 66.7486 79.5385 66.163 80.933 65.0589C82.3275 63.9548 83.2953 62.4007 83.6711 60.6622C84.6426 54.0766 80.1546 52.4741 76.0275 51.1726ZM68.8892 45.6493C68.827 45.0929 68.8831 44.5298 69.0537 43.9966C69.2243 43.4635 69.5056 42.9724 69.8792 42.5555C70.7138 41.7556 71.7859 41.2488 72.9337 41.1118V50.0878C69.6049 48.6461 68.9799 47.1136 68.8892 45.6493ZM80.6124 60.2023C80.3422 61.203 79.743 62.0835 78.9112 62.702C78.0794 63.3205 77.0636 63.6409 76.0275 63.6116V54.4273C79.5956 55.6235 81.1384 56.6238 80.6124 60.2023Z" fill="black"/>
</svg>
