<svg width="64" height="70" viewBox="0 0 64 70" fill="none" xmlns="http://www.w3.org/2000/svg">
<path d="M17 24V17.5H26.5V24H17Z" fill="#FFCF00"/>
<path d="M15.8672 49.834C10.6968 50.0486 10.7007 57.4142 15.8672 57.627H26.5312C31.7017 57.4123 31.6977 50.0467 26.5312 49.834H15.8672ZM28.3769 53.7305C28.3769 54.7482 27.549 55.5762 26.5312 55.5762H15.8672C13.418 55.4746 13.4199 51.9854 15.8672 51.8848H26.5312C27.549 51.8848 28.3769 52.7127 28.3769 53.7305Z" fill="black"/>
<path d="M60.2145 10.8691H54.9949C53.6371 10.9162 53.6382 12.8734 54.9949 12.9199H60.2145C61.129 12.9199 61.873 13.6638 61.873 14.5785V42.0231C61.873 42.9376 61.1292 43.6816 60.2145 43.6816H13.0824C12.1679 43.6816 11.4238 42.9378 11.4238 42.0231V40.65H22.4297C28.5072 40.3977 28.5026 31.7399 22.4297 31.4899H11.4238V14.5785C11.4238 13.6639 12.1677 12.9199 13.0824 12.9199H50.1748C51.5326 12.8729 51.5315 10.9156 50.1748 10.8691H42.3223V6.49414C42.3223 2.91334 39.4089 0 35.8281 0H6.57031C2.98951 0 0.0761719 2.91334 0.0761719 6.49414V12.3784C0.123203 13.7361 2.08047 13.735 2.12695 12.3784V6.49414C2.12695 4.044 4.12018 2.05078 6.57031 2.05078H35.8281C38.2783 2.05078 40.2715 4.044 40.2715 6.49414V10.8691H38.7676V6.49414C38.7676 4.87334 37.4489 3.55469 35.8281 3.55469H30.3457C29.5899 3.55469 28.9163 4.03443 28.6691 4.74975L28.0122 6.66094H14.386L13.7285 4.74838C13.4819 4.03443 12.8084 3.55482 12.0525 3.55482H6.57031C4.94951 3.55482 3.63086 4.87348 3.63086 6.49428V63.506C3.63086 65.1268 4.94951 66.4454 6.57031 66.4454H35.8281C37.4489 66.4454 38.7676 65.1268 38.7676 63.506V60.2999C38.7205 58.9422 36.7633 58.9433 36.7168 60.2999V63.506C36.7168 63.996 36.3181 64.3947 35.8281 64.3947H6.57031C6.08031 64.3947 5.68164 63.996 5.68164 63.506V6.49428C5.68164 6.00428 6.08031 5.60561 6.57031 5.60561H11.8548L12.5122 7.51803C12.7587 8.23211 13.4322 8.71172 14.1883 8.71172H28.2102C28.9661 8.71172 29.6397 8.23197 29.8867 7.51666L30.5437 5.60547H35.8281C36.3181 5.60547 36.7168 6.00414 36.7168 6.49414V10.8691H13.0824C11.0371 10.8691 9.37305 12.5331 9.37305 14.5785V42.0231C9.37305 44.0684 11.0371 45.7324 13.0824 45.7324H36.7168V55.5178C36.7638 56.8755 38.7211 56.8745 38.7676 55.5178V45.7324H40.2715V63.5059C40.2715 65.956 38.2783 67.9492 35.8281 67.9492H6.57031C4.12018 67.9492 2.12695 65.956 2.12695 63.5059V17.2266C2.07992 15.8688 0.122656 15.8699 0.0761719 17.2266V63.5059C0.0761719 67.0867 2.98951 70 6.57031 70H35.8281C39.4089 70 42.3223 67.0867 42.3223 63.5059V45.7324H60.2145C62.2598 45.7324 63.9238 44.0684 63.9238 42.0231V14.5785C63.9238 12.5331 62.2598 10.8691 60.2145 10.8691ZM22.4297 33.5407C25.786 33.68 25.7834 38.4612 22.4297 38.5993H11.4238V33.5407H22.4297Z" fill="black"/>
<path d="M44.466 40.9821C44.995 41.1839 45.5877 40.9181 45.7893 40.3889L46.2773 39.1076H49.6326L50.1151 40.386C50.3145 40.9212 50.9205 41.1822 51.4365 40.9832C51.9663 40.7833 52.2337 40.1918 52.0337 39.6618L49.0914 31.8652C49.088 31.8557 49.0841 31.8463 49.0803 31.8369C48.8937 31.3837 48.4566 31.0909 47.9664 31.0909H47.9648C47.474 31.0915 47.0369 31.3854 46.8512 31.8399C46.8481 31.8475 46.8451 31.8551 46.8422 31.8627L43.8728 39.659C43.6712 40.1881 43.9369 40.7805 44.466 40.9821ZM47.9626 34.6825L48.8587 37.0568H47.0584L47.9626 34.6825Z" fill="black"/>
<path d="M53.8293 36.2886L53.8202 40.0213C53.8188 40.5877 54.2768 41.0479 54.843 41.0492H54.8456C55.4108 41.0492 55.8696 40.5918 55.871 40.0265L55.8801 36.2899L58.2199 32.6956C58.5289 32.2209 58.3947 31.5858 57.9201 31.2769C57.4456 30.9676 56.8102 31.102 56.5014 31.5767L54.8542 34.1069L53.1883 31.5555C52.8783 31.0812 52.2434 30.9482 51.769 31.2574C51.2949 31.5671 51.1614 32.2024 51.4709 32.6767L53.8293 36.2886Z" fill="black"/>
<path d="M38.0733 40.0239C38.1203 41.3816 40.0776 41.3805 40.1241 40.0239V37.6089C40.5571 37.6067 41.0261 37.6048 41.3004 37.6048C45.6796 37.4251 45.6776 31.2695 41.3004 31.0908H39.0987C38.5466 31.0798 38.0607 31.5675 38.0733 32.1193V40.0239ZM41.3004 33.1416C41.9778 33.1416 42.5503 33.6939 42.5503 34.3477C42.5503 35.0015 41.9778 35.5538 41.3004 35.5538C41.0279 35.5538 40.5645 35.5557 40.1338 35.5579C40.1283 34.5406 40.1302 34.1895 40.1271 33.1414H41.3004V33.1416Z" fill="black"/>
<path d="M17.3711 16.2012C16.3534 16.2012 15.5254 17.0291 15.5254 18.0469V23.5156C15.5254 24.5334 16.3534 25.3613 17.3711 25.3613H25.8477C26.8654 25.3613 27.6934 24.5334 27.6934 23.5156V18.0469C27.6934 17.0291 26.8654 16.2012 25.8477 16.2012H17.3711ZM25.6426 23.3105H17.5762V18.252H25.6426V23.3105Z" fill="black"/>
<path d="M34.4478 19.6969V21.3375C34.4948 22.6953 36.4521 22.6942 36.4986 21.3375V19.6969C36.4517 18.3392 34.4943 18.3403 34.4478 19.6969Z" fill="black"/>
<path d="M52.3856 22.3629C52.952 22.3629 53.4109 21.904 53.4109 21.3375V19.6969C53.3639 18.3392 51.4067 18.3403 51.3602 19.6969V21.3375C51.3602 21.904 51.8193 22.3629 52.3856 22.3629Z" fill="black"/>
<path d="M57.0663 21.3375V19.6969C57.0193 18.3392 55.062 18.3403 55.0155 19.6969V21.3375C55.0624 22.6953 57.0198 22.6943 57.0663 21.3375Z" fill="black"/>
<path d="M41.8059 21.3375V19.6969C41.7589 18.3392 39.8016 18.3403 39.7551 19.6969V21.3375C39.802 22.6953 41.7594 22.6943 41.8059 21.3375Z" fill="black"/>
<path d="M44.6547 22.3629C45.2211 22.3629 45.6801 21.904 45.6801 21.3375V19.6969C45.633 18.3392 43.6758 18.3403 43.6293 19.6969V21.3375C43.6293 21.904 44.0882 22.3629 44.6547 22.3629Z" fill="black"/>
</svg>
