<svg width="28" height="28" viewBox="0 0 28 28" fill="none" xmlns="http://www.w3.org/2000/svg">
<path d="M24.4486 11.391C24.7506 11.391 24.9954 11.1461 24.9954 10.8441C24.9954 10.5421 24.7506 10.2972 24.4486 10.2972H22.6754C22.3734 10.2972 22.1285 10.5421 22.1285 10.8441V15.2192C22.1285 15.5212 22.3734 15.766 22.6754 15.766C22.9775 15.766 23.2223 15.5211 23.2223 15.2192V13.5371H24.3077C24.6097 13.5371 24.8546 13.2922 24.8546 12.9902C24.8546 12.6882 24.6097 12.4433 24.3077 12.4433H23.2223V11.391H24.4486V11.391Z" fill="white"/>
<path d="M19.0406 10.297H17.8015C17.4993 10.297 17.2541 10.5425 17.2546 10.8449V10.8483V10.8485V15.1479C17.2546 15.5454 17.5221 15.7659 17.8104 15.7659H17.8125C17.8499 15.7657 18.7334 15.7623 19.0864 15.7561C20.4004 15.7332 21.3541 14.5873 21.3541 13.0314C21.3541 11.3959 20.4243 10.297 19.0406 10.297ZM19.0672 14.6625C18.9037 14.6653 18.615 14.6676 18.3553 14.6693C18.3499 12.9569 18.3531 13.5576 18.3493 11.3907H19.0405C19.9399 11.3907 20.2604 12.2382 20.2604 13.0314C20.2604 13.8329 19.8915 14.6481 19.0672 14.6625Z" fill="white"/>
<path d="M14.6429 10.297H13.4247C13.1226 10.297 12.8778 10.5424 12.8778 10.8439V15.2189C12.8778 15.521 13.1226 15.7658 13.4247 15.7658C13.7267 15.7658 13.9716 15.5209 13.9716 15.2189V13.8625C14.2173 13.8612 14.4879 13.8601 14.6429 13.8601C15.6384 13.8601 16.4485 13.0609 16.4485 12.0786C16.4485 11.0962 15.6385 10.297 14.6429 10.297ZM14.6429 12.7663C14.4884 12.7663 14.2213 12.7674 13.977 12.7687C13.9735 12.0516 13.9758 12.3307 13.9732 11.3908H14.6429C15.0287 11.3908 15.3548 11.7058 15.3548 12.0785C15.3548 12.4513 15.0288 12.7663 14.6429 12.7663Z" fill="white"/>
<path d="M26.2845 7.6841H23.2361V0.820315C23.2361 0.367282 22.8688 0 22.4158 0H9.55039C9.32617 0 9.11792 0.0927502 8.97037 0.240243L3.75115 5.45908C3.59321 5.61708 3.51085 5.82937 3.51085 6.03916V14.1059H3.22751C2.77448 14.1059 2.40725 14.4731 2.40725 14.9262V20.6122H0.821475C0.132411 20.6122 -0.249637 21.414 0.184364 21.9492L4.84495 27.6966C5.17335 28.1015 5.79138 28.1007 6.11918 27.6966L7.20336 26.3596H22.4158C22.8688 26.3596 23.236 25.9923 23.236 25.5393V18.4053H26.2845C27.2306 18.4053 28.0002 17.6356 28.0002 16.6895V9.39998C28.0003 8.45383 27.2306 7.6841 26.2845 7.6841ZM8.73013 2.80061V5.21884H6.31173C6.56811 4.96247 8.47403 3.05671 8.73013 2.80061ZM2.54277 22.2529H3.22757C3.6806 22.2529 4.04783 21.8856 4.04783 21.4326V15.7465H6.91625V21.4326C6.91625 21.8856 7.28353 22.2529 7.73651 22.2529H8.42131L6.17955 25.0174C6.1795 25.0175 6.17939 25.0176 6.17933 25.0177L5.48201 25.8776L2.54277 22.2529ZM21.5955 24.719H8.5338L10.7798 21.9493C11.2137 21.4141 10.8319 20.6123 10.1427 20.6123H8.55682V14.9262C8.55682 14.4732 8.18954 14.1059 7.73656 14.1059H5.15148V6.85952H9.55039C10.0034 6.85952 10.3706 6.49224 10.3706 6.03921V1.64063H21.5954V7.6841H11.5826C10.6365 7.6841 9.86681 8.45383 9.86681 9.39998V16.6895C9.86681 17.6356 10.6365 18.4053 11.5826 18.4053H21.5955V24.719ZM26.3597 16.6895C26.3597 16.731 26.326 16.7647 26.2845 16.7647C25.8992 16.7647 12.0058 16.7647 11.5826 16.7647C11.5411 16.7647 11.5074 16.731 11.5074 16.6895V9.39998C11.5074 9.35848 11.5411 9.32473 11.5826 9.32473H26.2845C26.326 9.32473 26.3597 9.35848 26.3597 9.39998V16.6895Z" fill="white"/>
</svg>
