<svg width="55" height="55" viewBox="0 0 55 55" fill="none" xmlns="http://www.w3.org/2000/svg">
<g clip-path="url(#clip0_254_1369)">
<path d="M24.5 5L27.5 1L30 5L34.5 6L31.5 10.5V14.5L27.5 12.5L23 14.5L23.5 9.5L20.5 6L24.5 5Z" fill="#FFCF00"/>
<path d="M52.8997 46.6276H48.9335V26.3926C48.9335 25.5671 48.2619 24.8956 47.4365 24.8956H35.1813V19.0613C35.1813 18.2358 34.5098 17.5643 33.6844 17.5643H21.3156C20.4901 17.5643 19.8187 18.2358 19.8187 19.0613V24.7683C19.8187 25.2131 20.1792 25.5737 20.624 25.5737C21.0689 25.5737 21.4293 25.2131 21.4293 24.7683V19.1749H33.5708V46.6277H21.4292V28.2003C21.4292 27.7555 21.0688 27.395 20.6239 27.395C20.1791 27.395 19.8186 27.7555 19.8186 28.2003V31.0803H7.56335C6.73784 31.0803 6.06642 31.7519 6.06642 32.5774V46.6277H2.10027C0.942224 46.6277 0 47.5698 0 48.728V54.1624C0 54.6071 0.360461 54.9677 0.80532 54.9677H54.1947C54.6395 54.9677 55 54.6071 55 54.1624V48.728C55 47.5698 54.0578 46.6276 52.8997 46.6276ZM7.67706 32.691H19.8186V46.6276H7.67706V32.691ZM53.3894 53.3571H1.61064V48.728C1.61064 48.4579 1.83022 48.2384 2.10027 48.2384H39.9637C40.4086 48.2384 40.769 47.8778 40.769 47.433C40.769 46.9883 40.4086 46.6277 39.9637 46.6277H35.1814V26.5062H47.3229V46.6277H43.3957C42.9508 46.6277 42.5903 46.9883 42.5903 47.433C42.5903 47.8778 42.9508 48.2384 43.3957 48.2384H52.8998C53.1699 48.2384 53.3895 48.4579 53.3895 48.728V53.3571H53.3894Z" fill="black"/>
<path d="M22.7112 9.84941L22.0728 13.5715C21.9796 14.1144 22.1986 14.6529 22.6442 14.9766C23.0898 15.3003 23.6694 15.3423 24.1573 15.086L27.5 13.3286L30.8428 15.086C31.0549 15.1975 31.2843 15.2526 31.5127 15.2526C31.8094 15.2526 32.104 15.1596 32.3559 14.9766C32.8015 14.6528 33.0205 14.1144 32.9273 13.5715L32.2889 9.8493L34.9934 7.21322C35.3878 6.82871 35.5272 6.26445 35.3569 5.74056C35.1867 5.21667 34.7422 4.84193 34.1971 4.7628L30.4598 4.21969L28.7882 0.833266C28.5445 0.339229 28.0509 0.0323486 27.4999 0.0323486C26.949 0.0323486 26.4553 0.339229 26.2116 0.833158L24.5403 4.21969L20.803 4.7628C20.2579 4.84193 19.8134 5.21667 19.6432 5.74056C19.4729 6.26445 19.6123 6.82871 20.0067 7.21322L22.7112 9.84941ZM24.8625 5.80048C25.3304 5.73251 25.7349 5.43862 25.9442 5.01459L27.4999 1.86214L29.0557 5.01459C29.265 5.43862 29.6695 5.73251 30.1375 5.80048L33.6164 6.306L31.099 8.75997C30.7603 9.09015 30.6058 9.56551 30.6858 10.0316L31.28 13.4965L28.1685 11.8608C27.7497 11.6404 27.2498 11.6405 26.8312 11.8607L23.7196 13.4965L24.3139 10.0316C24.3938 9.56561 24.2394 9.09015 23.9006 8.75997L21.3832 6.30611L24.8625 5.80048Z" fill="black"/>
<path d="M39.1584 7.64254C39.1584 8.08729 39.5189 8.44786 39.9637 8.44786H41.117C41.5619 8.44786 41.9224 8.08729 41.9224 7.64254C41.9224 7.19779 41.5619 6.83722 41.117 6.83722H39.9637C39.5189 6.83722 39.1584 7.19768 39.1584 7.64254Z" fill="black"/>
<path d="M38.5759 2.82208C38.6871 2.82208 38.8003 2.79888 38.9082 2.74992L39.9584 2.27328C40.3634 2.08945 40.5427 1.61206 40.3589 1.20714C40.1751 0.802229 39.6977 0.622911 39.2927 0.806631L38.2425 1.28327C37.8376 1.4671 37.6582 1.94449 37.8421 2.34941C37.9768 2.64641 38.2695 2.82208 38.5759 2.82208Z" fill="black"/>
<path d="M38.2425 14.0016L39.2927 14.4783C39.4007 14.5272 39.5138 14.5504 39.625 14.5504C39.9314 14.5504 40.2241 14.3747 40.3589 14.0777C40.5427 13.6728 40.3634 13.1954 39.9584 13.0116L38.9082 12.535C38.503 12.3512 38.0257 12.5306 37.8421 12.9355C37.6582 13.3404 37.8376 13.8178 38.2425 14.0016Z" fill="black"/>
<path d="M13.9903 8.44786H15.1437C15.5885 8.44786 15.949 8.08729 15.949 7.64254C15.949 7.19779 15.5885 6.83722 15.1437 6.83722H13.9903C13.5455 6.83722 13.185 7.19779 13.185 7.64254C13.185 8.08729 13.5455 8.44786 13.9903 8.44786Z" fill="black"/>
<path d="M15.1489 2.2732L16.1992 2.74985C16.3072 2.79881 16.4203 2.822 16.5315 2.822C16.8378 2.822 17.1305 2.64634 17.2653 2.34933C17.4491 1.94442 17.2698 1.46703 16.8649 1.2832L15.8147 0.806556C15.4093 0.622728 14.9321 0.802153 14.7485 1.20707C14.5647 1.61198 14.744 2.08938 15.1489 2.2732Z" fill="black"/>
<path d="M16.1992 12.535L15.1489 13.0116C14.744 13.1954 14.5647 13.6728 14.7485 14.0778C14.8833 14.3749 15.176 14.5504 15.4823 14.5504C15.5936 14.5504 15.7067 14.5272 15.8147 14.4783L16.8649 14.0016C17.2698 13.8178 17.4491 13.3404 17.2653 12.9355C17.0816 12.5306 16.6043 12.3514 16.1992 12.535Z" fill="black"/>
</g>
<defs>
<clipPath id="clip0_254_1369">
<rect width="55" height="55" fill="white"/>
</clipPath>
</defs>
</svg>
