<svg width="97" height="97" viewBox="0 0 97 97" fill="none" xmlns="http://www.w3.org/2000/svg">
<path d="M65.4561 44.9952L68.9609 50.8682V27.7549V16.7666L67.1611 13.4512C62.8416 2.99338 53.2363 1.07359 48.9736 1.42093C36.3939 -0.625162 29.6494 12.8197 27.8496 19.7979V48.6895H29.0811L32.4912 44.9952L41.2061 41.0166L41.6797 39.1221L37.3223 35.5225L34.9541 30.5967L34.291 22.3555L37.3223 21.4082L41.6797 19.7979L45.5635 16.7666L47.8369 12.5039L48.9736 7.95706L55.415 9.66214L59.0146 13.4512L61.5723 18.0928L62.709 24.4395L61.5723 31.8282L59.0146 36.4698L55.415 39.1221V41.585H59.0146L65.4561 44.9952Z" fill="#FFCF00"/>
<path d="M89.2798 74.2656H82.3174C81.9405 74.2656 81.5791 74.4153 81.3127 74.6818C81.0462 74.9483 80.8965 75.3097 80.8965 75.6865C80.8965 76.0634 81.0462 76.4248 81.3127 76.6913C81.5791 76.9577 81.9405 77.1074 82.3174 77.1074H87.8589V80.8965H9.8042V77.1074H14.6826C15.0595 77.1074 15.4209 76.9577 15.6873 76.6913C15.9538 76.4248 16.1035 76.0634 16.1035 75.6865C16.1035 75.3097 15.9538 74.9483 15.6873 74.6818C15.4209 74.4153 15.0595 74.2656 14.6826 74.2656H8.3833C8.00646 74.2656 7.64504 74.4153 7.37857 74.6818C7.1121 74.9483 6.9624 75.3097 6.9624 75.6865V82.3174C6.9624 82.6942 7.1121 83.0556 7.37857 83.3221C7.64504 83.5886 8.00646 83.7383 8.3833 83.7383H13.2617V95.5791C13.2617 95.9559 13.4114 96.3174 13.6779 96.5838C13.9444 96.8503 14.3058 97 14.6826 97H82.3174C82.6942 97 83.0556 96.8503 83.3221 96.5838C83.5886 96.3174 83.7383 95.9559 83.7383 95.5791V83.7383H89.2798C89.6566 83.7383 90.018 83.5886 90.2845 83.3221C90.551 83.0556 90.7007 82.6942 90.7007 82.3174V75.6865C90.7007 75.3097 90.551 74.9483 90.2845 74.6818C90.018 74.4153 89.6566 74.2656 89.2798 74.2656ZM80.8965 94.1582H16.1035V83.7383H80.8965V94.1582Z" fill="black"/>
<path d="M87.4497 37.0324L83.5753 34.9011V8.05176C83.5753 7.67491 83.4256 7.3135 83.1592 7.04703C82.8927 6.78056 82.5313 6.63086 82.1544 6.63086C81.7776 6.63086 81.4162 6.78056 81.1497 7.04703C80.8833 7.3135 80.7336 7.67491 80.7336 8.05176V34.0068C79.6857 33.9634 78.6465 34.2128 77.7326 34.7272C76.8186 35.2415 76.0661 36.0004 75.5596 36.9187C74.8368 38.2229 74.5758 39.733 74.8188 41.2042C75.0411 42.5111 74.9836 43.8503 74.6502 45.1334C74.327 44.9986 73.9654 44.9881 73.6349 45.1038C73.3044 45.2196 73.0283 45.4535 72.8599 45.7605L70.4766 50.1009V21.9766C70.4766 16.148 68.1612 10.5582 64.0398 6.43679C59.9184 2.31538 54.3285 0 48.5 0C42.6715 0 37.0816 2.31538 32.9602 6.43679C28.8388 10.5582 26.5234 16.148 26.5234 21.9766V61.0039H21.3135C21.0326 61.0042 20.7582 61.0876 20.5247 61.2438C20.2913 61.3999 20.1094 61.6217 20.0019 61.8812C19.8945 62.1407 19.8663 62.4262 19.9211 62.7017C19.9758 62.9771 20.1109 63.2302 20.3094 63.4289L24.5133 67.6348H24.1553C23.025 67.6358 21.9414 68.0852 21.1422 68.8844C20.343 69.6836 19.8936 70.7672 19.8926 71.8975V72.8447C19.8936 73.975 20.343 75.0586 21.1422 75.8578C21.9414 76.657 23.025 77.1064 24.1553 77.1074H72.8447C73.975 77.1064 75.0586 76.657 75.8578 75.8578C76.657 75.0586 77.1064 73.975 77.1074 72.8447V71.8975C77.1065 71.0894 76.8764 70.2983 76.4438 69.6158C76.0112 68.9334 75.3939 68.3877 74.6635 68.0421L83.6511 51.6999C83.803 51.4229 83.8582 51.1032 83.8082 50.7914C83.7581 50.4795 83.6055 50.1932 83.3745 49.9777C84.2785 48.9392 85.3889 48.1004 86.635 47.5148C87.9238 46.9168 88.9864 45.9206 89.6663 44.673C90.3821 43.3652 90.5508 41.827 90.1354 40.3951C89.72 38.9632 88.7543 37.7541 87.4497 37.0324ZM29.3652 21.9766C29.3652 16.9017 31.3812 12.0347 34.9697 8.44624C38.5581 4.85778 43.4251 2.8418 48.5 2.8418C53.5749 2.8418 58.4419 4.85778 62.0303 8.44624C65.6188 12.0347 67.6348 16.9017 67.6348 21.9766V45.8003C66.4206 44.1393 64.8707 42.7522 63.0857 41.7289C61.3007 40.7057 59.3205 40.0693 57.2736 39.8609C59.3009 38.4482 60.9571 36.5667 62.1014 34.3766C63.2456 32.1864 63.844 29.7523 63.8457 27.2812V21.9766C63.8407 17.9082 62.2223 14.0078 59.3455 11.131C56.4687 8.25426 52.5684 6.63587 48.5 6.63086C48.1232 6.63086 47.7617 6.78056 47.4953 7.04703C47.2288 7.3135 47.0791 7.67491 47.0791 8.05176C47.0751 11.3668 45.7564 14.5449 43.4124 16.8889C41.0683 19.233 37.8902 20.5517 34.5752 20.5557C34.1983 20.5557 33.8369 20.7054 33.5705 20.9718C33.304 21.2383 33.1543 21.5997 33.1543 21.9766V27.2812C33.156 29.7523 33.7544 32.1864 34.8986 34.3766C36.0429 36.5667 37.6991 38.4482 39.7264 39.8609C37.6795 40.0693 35.6993 40.7057 33.9143 41.7289C32.1293 42.7522 30.5794 44.1393 29.3652 45.8003V21.9766ZM73.7276 63.8457L71.6436 67.6348H50.1198C50.4301 66.5446 51.087 65.5851 51.9911 64.9015C52.8952 64.2179 53.9974 63.8473 55.1309 63.8457H73.7276ZM43.9342 42.627H53.0658L48.5 49.1479L43.9342 42.627ZM45.7719 50.2051H42.627V45.7131L45.7719 50.2051ZM54.373 45.7131V50.2051H51.2281L54.373 45.7131ZM48.5 39.7852C45.185 39.7811 42.0069 38.4625 39.6628 36.1184C37.3188 33.7743 36.0001 30.5963 35.9961 27.2812V23.333C39.5458 22.9976 42.8686 21.4389 45.3956 18.9235C47.9227 16.4082 49.497 13.0928 49.8489 9.54465C52.9123 9.88085 55.7441 11.335 57.8023 13.6288C59.8604 15.9225 61.0004 18.8948 61.0039 21.9766V27.2812C60.9999 30.5963 59.6812 33.7743 57.3372 36.1184C54.9931 38.4625 51.815 39.7811 48.5 39.7852ZM47.0791 74.2656H24.1553C23.7784 74.2656 23.417 74.1159 23.1505 73.8495C22.8841 73.583 22.7344 73.2216 22.7344 72.8447V71.8975C22.7344 71.5206 22.8841 71.1592 23.1505 70.8927C23.417 70.6263 23.7784 70.4766 24.1553 70.4766H28.8916C29.2684 70.4766 29.6299 70.3269 29.8963 70.0604C30.1628 69.7939 30.3125 69.4325 30.3125 69.0557C30.3125 68.6788 30.1628 68.3174 29.8963 68.0509C29.6299 67.7845 29.2684 67.6348 28.8916 67.6348H28.5335L24.7445 63.8457H41.8691C43.0026 63.8473 44.1047 64.2179 45.0089 64.9015C45.913 65.5851 46.5698 66.5446 46.8802 67.6348H42.1533C41.7765 67.6348 41.4151 67.7845 41.1486 68.0509C40.8821 68.3174 40.7324 68.6788 40.7324 69.0557C40.7324 69.4325 40.8821 69.7939 41.1486 70.0604C41.4151 70.3269 41.7765 70.4766 42.1533 70.4766H47.0791V74.2656ZM48.5 64.4974C47.7609 63.421 46.7711 62.5405 45.6159 61.9319C44.4608 61.3233 43.1749 61.0048 41.8691 61.0039H37.417V55.7939C37.417 55.4171 37.2673 55.0557 37.0008 54.7892C36.7343 54.5227 36.3729 54.373 35.9961 54.373C35.6192 54.373 35.2578 54.5227 34.9914 54.7892C34.7249 55.0557 34.5752 55.4171 34.5752 55.7939V61.0039H29.3652V54.4678C29.3703 51.5758 30.4324 48.7855 32.3516 46.6221C34.2707 44.4588 36.9145 43.0716 39.7852 42.7217V51.626C39.7852 52.0028 39.9349 52.3642 40.2013 52.6307C40.4678 52.8972 40.8292 53.0469 41.2061 53.0469H55.7939C56.1708 53.0469 56.5322 52.8972 56.7987 52.6307C57.0651 52.3642 57.2148 52.0028 57.2148 51.626V42.7217C60.0855 43.0716 62.7293 44.4588 64.6484 46.6221C66.5676 48.7855 67.6297 51.5758 67.6348 54.4678V55.2673L64.4804 61.0039H62.4248V55.7939C62.4248 55.4171 62.2751 55.0557 62.0086 54.7892C61.7422 54.5227 61.3807 54.373 61.0039 54.373C60.6271 54.373 60.2656 54.5227 59.9992 54.7892C59.7327 55.0557 59.583 55.4171 59.583 55.7939V61.0039H55.1309C53.8249 61.0037 52.5386 61.3216 51.3832 61.9304C50.2279 62.5391 49.2382 63.4202 48.5 64.4974ZM74.2656 72.8447C74.2656 73.2216 74.1159 73.583 73.8495 73.8495C73.583 74.1159 73.2216 74.2656 72.8447 74.2656H49.9209V70.4766H72.8447C73.2216 70.4766 73.583 70.6263 73.8495 70.8927C74.1159 71.1592 74.2656 71.5206 74.2656 71.8975V72.8447ZM75.2906 61.0039H67.7238L71.4712 54.1836L77.2798 57.3778L75.2906 61.0039ZM78.6496 54.8959L72.839 51.6999L74.6654 48.3806L80.4759 51.5748L78.6496 54.8959ZM80.8643 48.5455L77.2002 46.5316C77.8066 44.6681 77.9522 42.6854 77.6246 40.7533C77.4841 39.9077 77.6343 39.0395 78.0509 38.2904C78.4086 37.6432 79.008 37.164 79.718 36.9574C80.4279 36.7508 81.1908 36.8336 81.84 37.1878L82.0294 37.2882L81.8646 37.5799C81.0939 38.953 80.861 40.5635 81.2111 42.0987C81.5612 43.6339 82.4693 44.9842 83.7591 45.8874C82.6657 46.6225 81.6898 47.5186 80.8643 48.5455ZM87.1806 43.3147C86.9952 43.6533 86.7595 43.9618 86.4816 44.2297L85.5608 43.6765C84.7881 43.2072 84.2279 42.4561 83.9985 41.5816C83.7691 40.7071 83.8884 39.7776 84.3313 38.9895L84.5207 38.6617L86.0837 39.5218C86.7312 39.8802 87.2103 40.4806 87.4159 41.1916C87.6215 41.9025 87.5369 42.666 87.1806 43.3147Z" fill="black"/>
<path d="M35.5225 70.4766C36.3072 70.4766 36.9434 69.8404 36.9434 69.0557C36.9434 68.2709 36.3072 67.6348 35.5225 67.6348C34.7377 67.6348 34.1016 68.2709 34.1016 69.0557C34.1016 69.8404 34.7377 70.4766 35.5225 70.4766Z" fill="black"/>
</svg>
