<svg width="93" height="93" viewBox="0 0 93 93" fill="none" xmlns="http://www.w3.org/2000/svg">
<rect x="14" y="12" width="7" height="8" fill="#F9CE69"/>
<rect x="14" y="21" width="7" height="14" fill="#F9CE69"/>
<rect x="22" y="12" width="7" height="22" fill="#FFCF00"/>
<path d="M64 77.5C64 83.8513 58.8513 89 52.5 89C46.1487 89 41 83.8513 41 77.5C41 71.1487 46.1487 66 52.5 66C58.8513 66 64 71.1487 64 77.5ZM50.1336 77.5C50.1336 78.8069 51.1931 79.8664 52.5 79.8664C53.8069 79.8664 54.8664 78.8069 54.8664 77.5C54.8664 76.1931 53.8069 75.1336 52.5 75.1336C51.1931 75.1336 50.1336 76.1931 50.1336 77.5Z" fill="#FFCF00"/>
<path d="M58.5 11.5L54 13V25.5L58 26.5L71 26C82.6 20 75.5 13.8333 70.5 11.5H58.5Z" fill="#FFCF00"/>
<path d="M81.375 47.9531H71.2031V50.8594H81.375V47.9531Z" fill="black"/>
<path d="M69.8451 38.7247L65.4817 50.3481L68.2039 51.3701L72.5673 39.7466L69.8451 38.7247Z" fill="black"/>
<path d="M15.9844 36.3281H36.3281V33.4219H31.9688V27.6094H36.3281V24.7031H31.9688V13.0781H36.3281V10.1719H15.9844C14.8282 10.1719 13.7194 10.6312 12.9018 11.4487C12.0843 12.2662 11.625 13.3751 11.625 14.5312V31.9688C11.625 33.1249 12.0843 34.2338 12.9018 35.0513C13.7194 35.8688 14.8282 36.3281 15.9844 36.3281ZM14.5312 31.9688V21.7969H20.3438V33.4219H15.9844C15.599 33.4219 15.2294 33.2688 14.9569 32.9963C14.6843 32.7238 14.5312 32.3541 14.5312 31.9688ZM29.0625 33.4219H23.25V13.0781H29.0625V33.4219ZM15.9844 13.0781H20.3438V18.8906H14.5312V14.5312C14.5312 14.1459 14.6843 13.7762 14.9569 13.5037C15.2294 13.2312 15.599 13.0781 15.9844 13.0781Z" fill="black"/>
<path d="M79.9219 4.35938H55.2188V2.90625C55.2188 2.52086 55.0657 2.15125 54.7931 1.87874C54.5206 1.60622 54.151 1.45313 53.7656 1.45312H39.2344C38.849 1.45313 38.4794 1.60622 38.2069 1.87874C37.9343 2.15125 37.7812 2.52086 37.7812 2.90625V4.35938H13.0781C11.1519 4.36168 9.30517 5.12791 7.9431 6.48998C6.58103 7.85205 5.81481 9.69874 5.8125 11.625V52.3125C5.81481 54.2388 6.58103 56.0855 7.9431 57.4475C9.30517 58.8096 11.1519 59.5758 13.0781 59.5781H37.7812V61.0312C37.7812 61.4166 37.9343 61.7863 38.2069 62.0588C38.4794 62.3313 38.849 62.4844 39.2344 62.4844H43.5938V68.7488C41.6196 70.5146 40.2281 72.8381 39.6033 75.4121C38.9786 77.986 39.1502 80.6889 40.0953 83.1632C41.0404 85.6375 42.7145 87.7665 44.896 89.2685C47.0776 90.7706 49.6639 91.5748 52.3125 91.5748C54.9611 91.5748 57.5474 90.7706 59.729 89.2685C61.9105 87.7665 63.5846 85.6375 64.5297 83.1632C65.4748 80.6889 65.6464 77.986 65.0217 75.4121C64.3969 72.8381 63.0054 70.5146 61.0312 68.7488V61.0312C61.0292 59.23 60.4693 57.4735 59.4285 56.0034C58.3876 54.5332 56.917 53.4215 55.2188 52.8211V50.8594H63.9375V47.9531H55.2188V27.1037C56.1516 27.4366 57.1345 27.6076 58.125 27.6094H69.75C72.0624 27.6094 74.28 26.6908 75.9151 25.0557C77.5502 23.4206 78.4688 21.203 78.4688 18.8906C78.4688 16.5783 77.5502 14.3606 75.9151 12.7255C74.28 11.0905 72.0624 10.1719 69.75 10.1719H58.125C57.1345 10.1737 56.1516 10.3447 55.2188 10.6776V7.26562H79.9219C81.0781 7.26562 82.1869 7.72492 83.0044 8.54246C83.822 9.36 84.2812 10.4688 84.2812 11.625V52.3125C84.2812 53.4687 83.822 54.5775 83.0044 55.395C82.1869 56.2126 81.0781 56.6719 79.9219 56.6719H62.4844V59.5781H79.9219C81.8481 59.5758 83.6948 58.8096 85.0569 57.4475C86.419 56.0855 87.1852 54.2388 87.1875 52.3125V11.625C87.1852 9.69874 86.419 7.85205 85.0569 6.48998C83.6948 5.12791 81.8481 4.36168 79.9219 4.35938ZM13.0781 56.6719C11.9219 56.6719 10.8131 56.2126 9.99558 55.395C9.17804 54.5775 8.71875 53.4687 8.71875 52.3125V11.625C8.71875 10.4688 9.17804 9.36 9.99558 8.54246C10.8131 7.72492 11.9219 7.26562 13.0781 7.26562H37.7812V42.1406H11.625V45.0469H37.7812V47.9531H11.625V50.8594H37.7812V56.6719H13.0781ZM62.4844 78.4688C62.4844 80.4806 61.8878 82.4472 60.7701 84.1199C59.6524 85.7927 58.0638 87.0965 56.2051 87.8663C54.3464 88.6362 52.3012 88.8377 50.3281 88.4452C48.3549 88.0527 46.5425 87.0839 45.1199 85.6614C43.6973 84.2388 42.7286 82.4263 42.3361 80.4532C41.9436 78.48 42.145 76.4348 42.9149 74.5761C43.6848 72.7175 44.9886 71.1288 46.6613 70.0111C48.3341 68.8934 50.3007 68.2969 52.3125 68.2969C55.0093 68.2999 57.5948 69.3726 59.5017 71.2795C61.4086 73.1865 62.4813 75.7719 62.4844 78.4688ZM58.125 61.0312V66.7711C56.3217 65.8638 54.3311 65.3913 52.3125 65.3913C50.2939 65.3913 48.3033 65.8638 46.5 66.7711V62.4844H53.7656C54.151 62.4844 54.5206 62.3313 54.7931 62.0588C55.0657 61.7863 55.2188 61.4166 55.2188 61.0312V56.0267C56.0994 56.5329 56.8314 57.2617 57.3415 58.1401C57.8516 59.0185 58.1218 60.0155 58.125 61.0312ZM49.9875 55.7012C50.7208 55.3813 51.5125 55.2171 52.3125 55.2188V59.5781H40.6875V4.35938H52.3125V52.3125C51.1122 52.3098 49.9244 52.5573 48.825 53.0391L49.9875 55.7012ZM58.125 13.0781H69.75C71.2916 13.0781 72.77 13.6905 73.8601 14.7806C74.9501 15.8706 75.5625 17.3491 75.5625 18.8906C75.5625 20.4322 74.9501 21.9106 73.8601 23.0007C72.77 24.0907 71.2916 24.7031 69.75 24.7031H58.125C57.103 24.7013 56.0999 24.4275 55.2188 23.9097V13.8715C56.0999 13.3538 57.103 13.08 58.125 13.0781Z" fill="black"/>
<path d="M52.3125 72.6563C51.2854 72.6543 50.2908 73.0159 49.5047 73.6771C48.7187 74.3382 48.192 75.2562 48.018 76.2685C47.8439 77.2807 48.0338 78.3219 48.5538 79.2076C49.0739 80.0933 49.8906 80.7664 50.8594 81.1076V84.2813H53.7657V81.1076C54.7344 80.7664 55.5512 80.0933 56.0712 79.2076C56.5913 78.3219 56.7811 77.2807 56.6071 76.2685C56.433 75.2562 55.9064 74.3382 55.1203 73.6771C54.3343 73.0159 53.3396 72.6543 52.3125 72.6563ZM52.3125 78.4688C52.0251 78.4688 51.7442 78.3835 51.5052 78.2239C51.2663 78.0642 51.08 77.8372 50.97 77.5717C50.86 77.3062 50.8313 77.014 50.8873 76.7321C50.9434 76.4503 51.0818 76.1913 51.285 75.9881C51.4882 75.7849 51.7472 75.6465 52.029 75.5904C52.3109 75.5344 52.6031 75.5631 52.8686 75.6731C53.1341 75.7831 53.3611 75.9694 53.5208 76.2083C53.6804 76.4473 53.7657 76.7282 53.7657 77.0156C53.7657 77.401 53.6126 77.7706 53.34 78.0431C53.0675 78.3157 52.6979 78.4688 52.3125 78.4688Z" fill="black"/>
</svg>
