<svg width="70" height="70" viewBox="0 0 70 70" fill="none" xmlns="http://www.w3.org/2000/svg">
<g clip-path="url(#clip0_254_1206)">
<path d="M15.5 64V53.5H22V64H15.5Z" fill="#FFCF00"/>
<path d="M25.5 33.5V13.5L43 23.5L25.5 33.5Z" fill="#FFCF00"/>
<path fill-rule="evenodd" clip-rule="evenodd" d="M1.39441 27.9344C2.14957 27.9344 2.7616 27.3224 2.7616 26.5672V5.2877C2.7616 3.87993 3.90715 2.73438 5.31493 2.73438H64.685C66.0928 2.73438 67.2384 3.87993 67.2384 5.2877V9.47151C67.2384 10.2261 67.8504 10.8387 68.6056 10.8387C69.3607 10.8387 69.9727 10.2261 69.9727 9.47151V5.2877C69.9727 2.37228 67.6005 0 64.685 0H5.31493C2.39951 0 0.0272217 2.37228 0.0272217 5.2877V26.5672C0.0272217 27.3224 0.639252 27.9344 1.39441 27.9344Z" fill="black"/>
<path fill-rule="evenodd" clip-rule="evenodd" d="M68.6056 19.2592C67.8504 19.2592 67.2384 19.8717 67.2384 20.6263V41.9064C67.2384 43.3142 66.0928 44.4597 64.685 44.4597H5.31493C3.90715 44.4597 2.7616 43.3142 2.7616 41.9064V37.7226C2.7616 36.9674 2.14957 36.3554 1.39441 36.3554C0.639252 36.3554 0.0272217 36.9674 0.0272217 37.7226V41.9064C0.0272217 44.8218 2.39951 47.1941 5.31493 47.1941H64.685C67.6005 47.1941 69.9727 44.8218 69.9727 41.9064V20.6263C69.9727 19.8717 69.3607 19.2592 68.6056 19.2592Z" fill="black"/>
<path fill-rule="evenodd" clip-rule="evenodd" d="M26.2426 11.5116C25.8196 11.2675 25.2983 11.2675 24.8754 11.5116C24.4524 11.7557 24.1918 12.2069 24.1918 12.6956V34.498C24.1918 34.9866 24.4524 35.4379 24.8754 35.682C25.0869 35.8043 25.3229 35.8652 25.559 35.8652C25.795 35.8652 26.0311 35.8043 26.2426 35.682L45.1242 24.7808C45.5471 24.5367 45.8078 24.0855 45.8078 23.5968C45.8078 23.1087 45.5471 22.6574 45.1242 22.4128L26.2426 11.5116ZM26.9261 32.1305V15.0636L41.7067 23.5968L26.9261 32.1305Z" fill="black"/>
<path fill-rule="evenodd" clip-rule="evenodd" d="M68.6056 57.2387H23.8953V55.9505C23.8953 53.2108 21.6672 50.9827 18.9275 50.9827C16.1883 50.9827 13.9597 53.2108 13.9597 55.9505V57.2387H1.39441C0.639252 57.2387 0.0272217 57.8507 0.0272217 58.6059C0.0272217 59.361 0.639252 59.9731 1.39441 59.9731H13.9597V61.2607C13.9597 64.0004 16.1883 66.2285 18.9275 66.2285C21.6672 66.2285 23.8953 64.0004 23.8953 61.2607V59.9731H68.6056C69.3607 59.9731 69.9727 59.361 69.9727 58.6059C69.9727 57.8507 69.3607 57.2387 68.6056 57.2387ZM21.1609 61.2607C21.1609 62.4927 20.1591 63.4941 18.9275 63.4941C17.696 63.4941 16.6941 62.4927 16.6941 61.2607V55.9505C16.6941 54.719 17.696 53.7171 18.9275 53.7171C20.1591 53.7171 21.1609 54.719 21.1609 55.9505V61.2607Z" fill="black"/>
<path fill-rule="evenodd" clip-rule="evenodd" d="M1.39442 33.5393C2.1624 33.5393 2.78885 32.9129 2.78885 32.1449C2.78885 31.3769 2.1624 30.7505 1.39442 30.7505C0.62645 30.7505 0 31.3769 0 32.1449C0 32.9129 0.62645 33.5393 1.39442 33.5393Z" fill="black"/>
<path fill-rule="evenodd" clip-rule="evenodd" d="M68.6056 13.6542C67.8376 13.6542 67.2112 14.2807 67.2112 15.0487C67.2112 15.8166 67.8376 16.4431 68.6056 16.4431C69.3736 16.4431 70 15.8166 70 15.0487C70 14.2807 69.3736 13.6542 68.6056 13.6542Z" fill="black"/>
</g>
<defs>
<clipPath id="clip0_254_1206">
<rect width="70" height="70" fill="white"/>
</clipPath>
</defs>
</svg>
