<svg width="80" height="67" viewBox="0 0 80 67" fill="none" xmlns="http://www.w3.org/2000/svg">
<path d="M65.4154 34.7887H51.5526V53.7057L58.6284 50.6732L65.4154 53.7057V34.7887Z" fill="#FFCF00"/>
<path d="M76.0938 59.1936H75.3664C74.0708 57.9815 73.3344 56.2969 73.3344 54.5104C73.3344 52.724 74.0708 51.0395 75.3663 49.8273H76.0938C77.1363 49.8273 78.117 49.4216 78.8553 48.6847C79.5936 47.9479 80 46.9693 80 45.9288C80 43.7791 78.2477 42.0301 76.0938 42.0301H72.5031C72.912 41.7186 73.3041 41.38 73.6741 41.0107C75.8531 38.8357 77.0478 35.9438 77.0375 32.8675C77.018 26.9389 72.3919 22.0518 66.5149 21.496C66.6883 21.0668 66.7799 20.6043 66.7799 20.1273C66.7799 18.1126 65.1381 16.4734 63.1203 16.4734H62.4999C61.361 15.3922 60.7139 13.8995 60.7139 12.317C60.7139 10.7341 61.3613 9.24108 62.5006 8.1599H63.1203C64.0958 8.1599 65.0145 7.78063 65.7099 7.08917C66.3999 6.39817 66.7799 5.48073 66.7799 4.50606C66.7799 2.49217 65.1381 0.85379 63.1203 0.85379H19.5782C13.1794 0.85379 7.95818 5.97945 7.93927 12.2792C7.92911 15.3556 9.12364 18.2475 11.3027 20.4223C11.6727 20.7916 12.0647 21.1301 12.4736 21.4417H7.67677C5.65802 21.4417 4.01568 23.0801 4.01568 25.094C4.01568 26.0701 4.3963 26.9875 5.08708 27.6771C5.77911 28.3676 6.69865 28.7478 7.67661 28.7478H8.29552C9.43489 29.8292 10.0824 31.3222 10.0824 32.9051C10.0824 34.4884 9.43474 35.9816 8.29489 37.0629H7.67677C5.65802 37.0629 4.01568 38.7013 4.01568 40.7152C4.01568 41.6899 4.39568 42.6073 5.08849 43.3013C5.34755 43.5589 5.63833 43.7732 5.95208 43.9405C2.39334 46.1448 0.0144305 50.0391 5.54762e-05 54.4697C-0.00978827 57.8194 1.29068 60.9677 3.66208 63.3345C6.02458 65.6924 9.16505 66.991 12.5049 66.991H76.0938C77.1363 66.991 78.1169 66.5852 78.8553 65.8484C79.5936 65.1115 80 64.1328 80 63.0923C80 60.9426 78.2477 59.1936 76.0938 59.1936ZM77.6563 45.9288C77.6563 46.3446 77.4934 46.7358 77.1978 47.0309C76.9024 47.3258 76.5103 47.4883 76.0938 47.4883H66.7228V44.3693H76.0938C76.9553 44.3693 77.6563 45.0689 77.6563 45.9288ZM12.9602 18.7685C11.2257 17.0375 10.2749 14.7357 10.283 12.2867C10.2982 7.27256 14.4679 3.19315 19.5782 3.19315H63.1203C63.846 3.19315 64.4361 3.78216 64.4361 4.50622C64.4361 4.85772 64.2989 5.18864 64.0527 5.4352C63.8025 5.68393 63.4714 5.82085 63.1203 5.82085H25.6625C25.0152 5.82085 24.4907 6.34452 24.4907 6.99045C24.4907 7.63638 25.0152 8.16005 25.6625 8.16005H59.5227C58.7764 9.39999 58.37 10.8303 58.37 12.3173C58.37 13.8038 58.7763 15.234 59.5222 16.4736H19.4252C18.2957 16.4736 17.2375 16.0279 16.4458 15.2185C15.6546 14.4096 15.2336 13.3429 15.2608 12.2148C15.3147 9.97902 17.2277 8.16005 19.525 8.16005H20.975C21.6224 8.16005 22.1469 7.63638 22.1469 6.99045C22.1469 6.34452 21.6224 5.82085 20.975 5.82085H19.525C15.9663 5.82085 13.0021 8.66376 12.9175 12.1585C12.8752 13.922 13.5327 15.589 14.7686 16.8525C16.0052 18.1166 17.659 18.8128 19.4252 18.8128H63.1203C63.846 18.8128 64.4361 19.4026 64.4361 20.1274C64.4361 20.4786 64.2994 20.8086 64.0513 21.0562C63.8019 21.305 63.4713 21.442 63.1203 21.442H19.4252C16.9833 21.442 14.6872 20.4925 12.9602 18.7685ZM6.74443 26.0231C6.49615 25.7753 6.35943 25.4455 6.35943 25.0942C6.35943 24.3701 6.95036 23.7811 7.67677 23.7811H19.425H63.1203H65.3969C70.5067 23.7811 74.6774 27.8607 74.6938 32.8751C74.7019 35.3236 73.7511 37.6254 72.0166 39.3564C70.5688 40.8016 68.7208 41.6998 66.7228 41.9534V39.2958C68.0392 39.0579 69.2477 38.4215 70.2055 37.4423C71.442 36.1782 72.0997 34.5105 72.0575 32.7468C71.975 29.2519 69.0116 26.4086 65.4517 26.4086H7.67677C7.32474 26.4089 6.99364 26.2719 6.74443 26.0231ZM11.2736 28.7482H65.4517C67.7494 28.7482 69.6616 30.5668 69.7144 32.8026C69.7416 33.9315 69.3205 34.999 68.5285 35.8085C68.0194 36.3289 67.4 36.698 66.7228 36.8957V34.4496C66.7228 33.8036 66.1983 33.28 65.5509 33.28H42.3721C41.7247 33.28 41.2002 33.8036 41.2002 34.4496C41.2002 35.0955 41.7247 35.6192 42.3721 35.6192H50.2817V37.0632H11.2732C12.0196 35.8231 12.4263 34.3925 12.4263 32.9054C12.4263 31.4184 12.0197 29.9881 11.2736 28.7482ZM52.6255 35.6192H64.3792V52.2011L59.0413 49.4414C58.8724 49.354 58.6872 49.3104 58.5024 49.3104C58.3175 49.3104 58.1324 49.354 57.9633 49.4415L52.6256 52.2011V35.6192H52.6255ZM7.67677 39.4023H50.2817V42.03H7.67677C7.32458 42.03 6.99302 41.8931 6.74583 41.6473C6.49661 41.3978 6.35943 41.0669 6.35943 40.7154C6.35958 39.9914 6.95052 39.4023 7.67677 39.4023ZM77.1978 64.1944C76.9022 64.4894 76.5102 64.6518 76.0938 64.6518H12.5049C9.79114 64.6518 7.23927 63.5965 5.31958 61.6805C3.39255 59.7574 2.33584 57.1989 2.3438 54.4769C2.36177 48.9036 6.99568 44.3693 12.6735 44.3693H50.2816V47.4883H12.6143C8.76583 47.4883 5.5613 50.5615 5.47068 54.3393C5.42552 56.2463 6.13661 58.0487 7.47318 59.4146C8.80974 60.7806 10.5966 61.5328 12.5047 61.5328H55.2203C55.8677 61.5328 56.3922 61.0092 56.3922 60.3632C56.3922 59.7173 55.8677 59.1936 55.2203 59.1936H12.5049C11.2333 59.1936 10.0418 58.6917 9.15005 57.7803C8.25817 56.8688 7.78364 55.6664 7.8138 54.395C7.87427 51.8765 10.0277 49.8275 12.6143 49.8275H50.2817V54.1241C50.2817 54.5324 50.495 54.9112 50.8447 55.1234C51.1944 55.3357 51.6294 55.3505 51.9928 55.1626L58.5024 51.7969L65.0122 55.1626C65.1816 55.2502 65.3666 55.2937 65.5511 55.2937C65.7625 55.2937 65.9734 55.2367 66.16 55.1234C66.5095 54.9112 66.723 54.5324 66.723 54.1241V49.8273H72.3499C71.4716 51.2115 70.9906 52.8274 70.9906 54.5104C70.9906 56.1935 71.4716 57.8093 72.35 59.1936H59.9078C59.2605 59.1936 58.736 59.7173 58.736 60.3632C58.736 61.0092 59.2605 61.5328 59.9078 61.5328H76.0938C76.9553 61.5328 77.6563 62.2324 77.6563 63.0923C77.6563 63.5081 77.4934 63.8993 77.1978 64.1944Z" fill="black"/>
</svg>
